
; ASM FILE music02.asm :
; 0x9582..0x97B3 : Music 02
Music02:        db 0
		db 0
		db 0
		db 0BAh
		dw Music02_Channel0
		dw Music02_Channel1
		dw Music02_Channel2
		dw Music02_Channel3
		dw Music02_Channel4
		dw Music02_Channel5
		dw Music02_Channel6
		dw Music02_Channel7
		dw Music02_Channel9
		dw Music02_Channel9
Music02_Channel0:
		  setRelease 01h
		  vibrato 02Ch
		mainLoopStart
		        waitL 48
		  inst 49
		  vol 0Bh
		        note  B5
		        note  G6
		        noteL Gs6,72
		        noteL B5,24
		        note  G6
		        note  Gs6
		        note  As6
		        note  B6
		        note  G6
		        note  Gs6
		  sustain
		        noteL E6,192
		  vibrato 020h
		  setRelease 01h
		        noteL E6,96
		  vibrato 02Ch
		        note  Gs5
		        waitL 24
		        note  Ds5
		        note  G5
		        noteL Gs5,48
		        noteL G5,24
		        note  D5
		        note  Ds5
		        note  G5
		        noteL Gs5,48
		        noteL G5,24
		        wait
		        note  B4
		        note  Cs5
		        noteL D5,48
		        noteL F5,24
		        note  As4
		        note  B4
		        note  Cs5
		        noteL D5,48
		        noteL F5,24
		        note  G6
		        note  Fs6
		        note  G6
		        note  Fs6
		        noteL G6,48
		  sustain
		        noteL Gs6,144
		  vibrato 020h
		  setRelease 01h
		        noteL Gs6,216
		  vibrato 02Ch
		  vol 0Ch
		        noteL Gs6,24
		        note  As6
		        note  B6
		        note  G6
		        note  Gs6
		  vol 0Bh
		        noteL E6,240
		  vol 0Ch
		        noteL F6,24
		        note  Cs6
		        note  B5
		        note  As5
		        note  Gs5
		        note  Fs5
		mainLoopEnd
Music02_Channel1:
		  inst 49
		  setRelease 01h
		  vibrato 02Ch
		mainLoopStart
		        waitL 24
		  vol 0Bh
		        note  F5
		        note  G5
		        note  Gs5
		        noteL E5,72
		        noteL F5,24
		        noteL D5,48
		        noteL E5,24
		        note  F5
		        note  G5
		        note  Gs5
		        note  As5
		        note  B5
		        note  Cs6
		        note  G5
		        note  Gs5
		        noteL D5,72
		        noteL Cs6,24
		        note  G5
		        note  Gs5
		        note  D5
		        noteL Cs6,72
		        noteL Ds6,24
		        note  E6
		        note  Fs6
		  vol 0Ah
		  sustain
		        noteL G6,144
		  vibrato 020h
		  setRelease 01h
		        note  G6
		  vibrato 02Ch
		  sustain
		        note  F6
		  vibrato 020h
		  setRelease 01h
		        note  F6
		        waitL 48
		countedLoopStart 9
		        waitL 96
		countedLoopEnd
		mainLoopEnd
Music02_Channel2:
		  inst 36
		  vol 0Bh
		  setRelease 00h
		  vibrato 02Ch
		mainLoopStart
		        noteL As3,192
		        note  As3
		        noteL As3,96
		        note  E3
		        note  As3
		        note  E3
		  vol 0Ah
		        noteL Gs3,144
		        note  Gs3
		        note  Cs4
		  vol 09h
		        note  Cs4
		        wait
		        wait
		  vol 0Ch
		        noteL E3,48
		  vol 0Bh
		        note  E4
		        note  F4
		        waitL 24
		  vol 0Ch
		        note  E3
		  vol 0Bh
		        note  E4
		        note  F4
		        note  G4
		        note  Gs4
		        note  E4
		        note  F4
		        noteL Cs5,96
		        note  B4
		        noteL As4,192
		mainLoopEnd
Music02_Channel3:
		  stereo 040h
		  inst 59
		  shifting 084h
		  vol 0Ah
		  setRelease 00h
		  vibrato 02Ch
		mainLoopStart
		        noteL D7,96
		        note  D7
		        note  D7
		        note  D7
		        note  Cs7
		        note  Cs7
		        note  Cs7
		        note  Cs7
		        noteL G6,48
		        note  D6
		        note  D7
		        note  G6
		        note  D6
		        note  D7
		        note  F6
		        note  B5
		        note  B6
		        note  F6
		        note  B5
		        note  B6
		        noteL C6,24
		        note  Cs6
		        note  C6
		        note  Cs6
		        note  C6
		        note  Cs6
		        note  D6
		        note  Cs6
		        note  D6
		        note  Cs6
		        note  D6
		        note  Cs6
		        note  D6
		        note  Cs6
		        note  D6
		        note  Cs6
		        note  D6
		        note  Cs6
		        note  D6
		        note  Cs6
		        note  D6
		        note  Cs6
		        note  D6
		        note  Cs6
		        note  D6
		        note  Cs6
		        note  B5
		        note  Cs6
		        note  D6
		        note  E6
		        note  F6
		        note  G6
		        note  Gs6
		        note  As6
		        noteL B6,96
		        note  Cs7
		mainLoopEnd
Music02_Channel4:
		  stereo 080h
		  shifting 084h
		  inst 59
		  vol 0Ah
		  setRelease 01h
		  vibrato 02Ch
		mainLoopStart
		        noteL B6,96
		        note  B6
		        note  B6
		        note  B6
		        note  As6
		        note  As6
		        note  As6
		        note  As6
		        noteL Ds6,48
		        note  As5
		        note  As6
		        note  Ds6
		        note  As5
		        note  As6
		        note  Cs6
		        note  G5
		        note  G6
		        note  Cs6
		        note  G5
		        note  G6
		        noteL Gs5,24
		        note  A5
		        note  Gs5
		        note  A5
		        note  Gs5
		        note  A5
		        note  As5
		        note  B5
		        note  As5
		        note  B5
		        note  As5
		        note  B5
		        note  As5
		        note  B5
		        note  As5
		        note  B5
		        note  As5
		        note  B5
		        note  As5
		        note  B5
		        note  As5
		        note  B5
		        note  As5
		        note  B5
		        note  As5
		        note  B5
		        note  G5
		        note  As5
		        note  B5
		        note  Cs6
		        note  D6
		        note  E6
		        note  F6
		        note  G6
		        noteL Gs6,96
		        note  As6
		mainLoopEnd
Music02_Channel5:
		channel_end
Music02_Channel6:
		  psgInst 028h
		  setRelease 00h
		  vibrato 00h
		mainLoopStart
		        psgNoteL D5,96
		        psgNote  D5
		        psgNote  D5
		        psgNote  D5
		        psgNote  Cs5
		        psgNote  Cs5
		        psgNote  Cs5
		        psgNote  Cs5
		        psgNoteL G4,48
		        psgNote  D4
		        psgNote  D5
		        psgNote  G4
		        psgNote  D4
		        psgNote  D5
		        psgNote  F4
		        psgNote  B3
		        psgNote  B4
		        psgNote  F4
		        psgNote  B3
		        psgNote  B4
		        psgNoteL C4,24
		        psgNote  Cs4
		        psgNote  C4
		        psgNote  Cs4
		        psgNote  C4
		        psgNote  Cs4
		        psgNote  D4
		        psgNote  Cs4
		        psgNote  D4
		        psgNote  Cs4
		        psgNote  D4
		        psgNote  Cs4
		        psgNote  D4
		        psgNote  Cs4
		        psgNote  D4
		        psgNote  Cs4
		        psgNote  D4
		        psgNote  Cs4
		        psgNote  D4
		        psgNote  Cs4
		        psgNote  D4
		        psgNote  Cs4
		        psgNote  D4
		        psgNote  Cs4
		        psgNote  D4
		        psgNote  Cs4
		        psgNote  B3
		        psgNote  Cs4
		        psgNote  D4
		        psgNote  E4
		        psgNote  F4
		        psgNote  G4
		        psgNote  Gs4
		        psgNote  As4
		        psgNoteL B4,96
		        psgNote  Cs5
		mainLoopEnd
Music02_Channel7:
		  psgInst 028h
		  setRelease 00h
		  vibrato 00h
		mainLoopStart
		        psgNoteL B4,96
		        psgNote  B4
		        psgNote  B4
		        psgNote  B4
		        psgNote  As4
		        psgNote  As4
		        psgNote  As4
		        psgNote  As4
		        psgNoteL Ds4,48
		        psgNote  As3
		        psgNote  As4
		        psgNote  Ds4
		        psgNote  As3
		        psgNote  As4
		        psgNote  Cs4
		        psgNote  G3
		        psgNote  G4
		        psgNote  Cs4
		        psgNote  G3
		        psgNote  G4
		        psgNoteL Gs3,24
		        psgNote  A3
		        psgNote  Gs3
		        psgNote  A3
		        psgNote  Gs3
		        psgNote  A3
		        psgNote  As3
		        psgNote  B3
		        psgNote  As3
		        psgNote  B3
		        psgNote  As3
		        psgNote  B3
		        psgNote  As3
		        psgNote  B3
		        psgNote  As3
		        psgNote  B3
		        psgNote  As3
		        psgNote  B3
		        psgNote  As3
		        psgNote  B3
		        psgNote  As3
		        psgNote  B3
		        psgNote  As3
		        psgNote  B3
		        psgNote  As3
		        psgNote  B3
		        psgNote  G3
		        psgNote  As3
		        psgNote  B3
		        psgNote  Cs4
		        psgNote  D4
		        psgNote  E4
		        psgNote  F4
		        psgNote  G4
		        psgNoteL Gs4,96
		        psgNote  As4
		mainLoopEnd
Music02_Channel9:
		channel_end
