
; ASM FILE music07.asm :
; 0x9E3F..0xA7C8 : Music 07
Music_7:        db 0
		db 0
		db 0
		db 0CEh
		dw Music_7_Channel_0
		dw Music_7_Channel_1
		dw Music_7_Channel_2
		dw Music_7_Channel_3
		dw Music_7_Channel_4
		dw Music_7_Channel_5
		dw Music_7_Channel_6
		dw Music_7_Channel_7
		dw Music_7_Channel_9
		dw Music_7_Channel_9
Music_7_Channel_0:
		        waitL 48
		  inst 42
		  vol 0Ah
		  setRelease 01h
		  vibrato 02Ch
		        noteL B4,10
		        noteL E5,8
		        noteL Cs5,56
		        waitL 42
		        noteL D5,8
		        note  G5
		        noteL E5,52
		        waitL 40
		  vol 0Bh
		        noteL F5,8
		        note  As5
		        noteL G5,50
		        waitL 38
		        noteL Gs5,8
		        note  Cs6
		        noteL As5,54
		mainLoopStart
		  vibrato 04Ch
		  inst 17
		  vol 0Bh
		        noteL Ds6,48
		        note  Gs5
		        noteL Fs6,156
		        noteL Ds6,12
		        note  Cs6
		        note  Ds6
		        note  B5
		        note  Cs6
		        note  As5
		        note  B5
		        noteL Gs5,16
		        note  Fs5
		        note  Gs5
		        noteL As5,72
		        noteL Gs5,24
		  sustain
		        noteL As5,144
		  vibrato 040h
		  setRelease 01h
		        note  As5
		  vibrato 04Ch
		        noteL Gs5,48
		        note  Ds5
		        noteL Cs6,156
		        noteL B5,12
		        note  As5
		        note  B5
		        note  Gs5
		        note  As5
		        note  Fs5
		        note  Gs5
		        noteL E5,16
		        note  Fs5
		        note  Gs5
		        noteL As5,72
		        noteL Ds6,24
		  sustain
		        noteL Ds6,144
		  vibrato 040h
		  setRelease 01h
		        note  Ds6
		        waitL 120
		  vol 0Ah
		  vibrato 04Ch
		        noteL Ds6,36
		        note  Gs5
		        noteL Fs6,120
		        waitL 192
		        noteL F5,24
		        note  Fs5
		        note  Gs5
		        noteL As5,34
		        noteL Ds6,32
		        noteL Fs6,30
		        noteL F6,34
		        noteL Cs6,32
		        noteL As5,30
		  vol 0Bh
		        noteL Gs5,48
		        note  Ds5
		        noteL Cs6,156
		        noteL B5,12
		        note  As5
		        note  B5
		        note  Gs5
		        note  As5
		        note  Fs5
		        note  Gs5
		        noteL E5,16
		        note  Fs5
		        note  Gs5
		        noteL As5,72
		        noteL Ds6,24
		        noteL Ds6,96
		        note  Ds6
		        note  Cs6
		  vibrato 02Ch
		  inst 53
		  vol 0Bh
		        noteL Ds5,24
		        note  E5
		  vol 0Ch
		        note  Gs5
		        note  A5
		  vol 0Dh
		        note  Cs6
		        note  Ds6
		        noteL E6,48
		  inst 13
		  vol 0Bh
		        noteL Ds5,72
		        noteL Gs5,24
		  setRelease 0Ch
		        note  Fs5
		        note  Ds5
		        note  Fs5
		        note  Gs5
		  setRelease 01h
		        noteL Cs6,48
		        note  As5
		        noteL Gs5,72
		        noteL As5,12
		        wait
		        noteL As5,72
		        noteL Ds6,24
		  setRelease 0Ch
		        note  Cs6
		        note  As5
		        note  Cs6
		        note  Ds6
		  setRelease 01h
		        noteL Fs6,48
		        note  Ds6
		  vol 0Ah
		        noteL Cs6,96
		  inst 26
		  vol 0Bh
		        noteL Cs5,24
		        noteL Ds5,8
		        noteL E5,12
		        waitL 4
		        noteL E5,48
		        noteL E5,24
		        noteL Fs5,8
		        noteL G5,12
		        waitL 4
		        noteL G5,48
		        noteL G5,24
		        noteL A5,8
		        noteL As5,12
		        waitL 4
		        noteL As5,48
		        noteL D5,24
		        noteL E5,8
		        noteL F5,12
		        waitL 4
		        noteL F5,48
		        noteL F5,24
		        noteL G5,8
		        noteL Gs5,12
		        waitL 4
		        noteL Gs5,48
		        noteL Gs5,24
		        noteL As5,8
		        noteL C6,12
		        waitL 4
		        noteL C6,48
		        noteL Cs6,72
		        noteL B5,12
		        note  Cs6
		        noteL Cs6,96
		mainLoopEnd
Music_7_Channel_1:
		        waitL 36
		  inst 42
		  vol 0Ah
		  setRelease 01h
		  vibrato 02Ch
		        noteL Gs4,86
		        waitL 32
		        noteL B4,78
		        waitL 30
		  vol 0Bh
		        noteL D5,76
		        waitL 28
		        noteL F5,80
		mainLoopStart
		  inst 16
		  vol 0Bh
		        waitL 124
		  sustain
		        noteL Cs6,4
		  setRelease 01h
		        noteL Ds6,32
		        note  Gs5
		        noteL Fs6,120
		        waitL 72
		        waitL 168
		        noteL F5,8
		        note  Fs5
		        note  Gs5
		        noteL As5,72
		        noteL Gs5,12
		        note  As5
		        noteL Ds5,96
		        waitL 116
		  sustain
		        noteL Fs5,4
		  setRelease 01h
		        noteL Gs5,36
		        noteL Ds5,12
		        noteL Cs5,8
		        note  Ds5
		        note  Gs5
		        noteL Cs6,10
		        noteL Ds6,8
		        noteL Cs6,6
		        note  Ds6
		        note  Cs6
		        note  Ds6
		        noteL Cs6,54
		        waitL 96
		        waitL 168
		        noteL F5,8
		        note  Fs5
		        note  Gs5
		        noteL As5,72
		        noteL Ds6,12
		        note  Cs6
		        noteL Ds6,60
		  vol 0Ch
		        noteL Ds5,12
		        noteL Gs5,8
		        note  As5
		        note  Cs6
		        noteL Ds6,48
		        note  Gs5
		        noteL Fs6,12
		        noteL Gs6,10
		        noteL Fs6,8
		        noteL Gs6,6
		        note  Fs6
		        note  Gs6
		        noteL Fs6,32
		        noteL Cs6,8
		        note  Fs6
		        noteL Ds6,48
		        waitL 12
		        note  Ds6
		        note  Cs6
		        note  Ds6
		        note  B5
		        note  Cs6
		        note  As5
		        note  B5
		        noteL Gs5,16
		        note  Fs5
		        note  Gs5
		        noteL As5,72
		        noteL Gs5,12
		        note  As5
		  sustain
		        noteL As5,144
		  vibrato 020h
		  setRelease 01h
		        note  As5
		        waitL 112
		  vol 0Bh
		  vibrato 02Ch
		        noteL Gs5,16
		        note  Ds5
		        noteL Cs6,30
		        noteL B5,10
		        noteL As5,8
		        noteL Gs5,192
		        waitL 24
		        noteL B4,8
		        note  Ds5
		        note  Fs5
		        noteL As5,24
		        note  Fs5
		        noteL Gs5,10
		        noteL As5,8
		        note  Gs5
		        noteL As5,6
		        noteL Gs5,8
		        note  As5
		        noteL Gs5,24
		        noteL Fs5,40
		        noteL E5,16
		        note  Gs5
		        noteL A5,12
		        note  Cs6
		        note  E6
		        note  Gs6
		        noteL Gs6,24
		        noteL Fs6,72
		  inst 53
		  vol 09h
		        noteL Cs4,48
		  vol 0Ah
		        note  E4
		  vol 0Bh
		        note  A4
		  vol 0Ch
		        note  Cs5
		  inst 13
		  vol 0Ah
		        noteL As4,72
		        noteL Ds5,24
		  setRelease 0Ch
		        note  Ds5
		        note  Cs5
		        note  Ds5
		        note  Ds5
		  setRelease 01h
		        noteL Gs5,48
		        note  Gs5
		        noteL F5,72
		        noteL F5,12
		        wait
		        noteL F5,72
		        noteL As5,24
		  setRelease 0Ch
		        note  As5
		        note  Gs5
		        note  As5
		        note  As5
		  setRelease 01h
		        noteL Ds6,48
		        note  Cs6
		  vol 09h
		        noteL Gs5,96
		  inst 26
		  vol 0Bh
		        noteL A4,24
		        noteL B4,8
		        noteL Cs5,12
		        waitL 4
		        noteL Cs5,48
		        noteL C5,24
		        noteL D5,8
		        noteL E5,12
		        waitL 4
		        noteL E5,48
		        noteL Ds5,24
		        noteL F5,8
		        noteL G5,12
		        waitL 4
		        noteL G5,48
		        noteL As4,24
		        noteL C5,8
		        noteL D5,12
		        waitL 4
		        noteL D5,48
		        noteL Cs5,24
		        noteL Ds5,8
		        noteL F5,12
		        waitL 4
		        noteL F5,48
		        noteL F5,24
		        noteL Fs5,8
		        noteL Gs5,12
		        waitL 4
		        noteL Gs5,48
		  vol 0Ah
		        noteL Gs5,96
		  vol 09h
		        note  Gs5
		mainLoopEnd
Music_7_Channel_2:
		        waitL 20
		  inst 42
		  vol 0Ah
		  setRelease 01h
		  vibrato 02Ch
		        noteL F4,102
		        waitL 18
		        noteL Gs4,92
		        waitL 16
		  vol 0Bh
		        noteL B4,90
		        waitL 16
		        noteL D5,92
		mainLoopStart
		        waitL 6
		  stereo 080h
		  shifting 020h
		  inst 16
		  vol 09h
		        waitL 124
		  sustain
		        noteL Cs6,4
		  setRelease 01h
		        noteL Ds6,32
		        note  Gs5
		        noteL Fs6,120
		        waitL 72
		        waitL 168
		        noteL F5,8
		        note  Fs5
		        noteL Gs5,2
		  shifting 00h
		  stereo 0C0h
		  vol 0Ah
		        noteL Fs5,72
		        noteL F5,12
		        note  Fs5
		        noteL As4,48
		        note  B4
		        waitL 122
		  shifting 020h
		  stereo 080h
		  vol 09h
		  sustain
		        noteL Fs5,4
		  setRelease 01h
		        noteL Gs5,36
		        noteL Ds5,12
		        noteL Cs5,8
		        note  Ds5
		        note  Gs5
		        noteL Cs6,10
		        noteL Ds6,8
		        noteL Cs6,6
		        note  Ds6
		        note  Cs6
		        note  Ds6
		        noteL Cs6,54
		        waitL 96
		        waitL 168
		        noteL F5,8
		        note  Fs5
		        note  Gs5
		        noteL As5,72
		        noteL Ds6,12
		        note  Cs6
		        noteL Ds6,60
		  vol 0Ah
		        noteL Ds5,12
		        noteL Gs5,8
		        note  As5
		        note  Cs6
		        noteL Ds6,48
		        note  Gs5
		        noteL Fs6,12
		        noteL Gs6,10
		        noteL Fs6,8
		        noteL Gs6,6
		        note  Fs6
		        note  Gs6
		        noteL Fs6,32
		        noteL Cs6,8
		        note  Fs6
		        noteL Ds6,48
		        waitL 12
		        note  Ds6
		        note  Cs6
		        note  Ds6
		        note  B5
		        note  Cs6
		        note  As5
		        note  B5
		        noteL Gs5,16
		        note  Fs5
		        note  Gs5
		        noteL As5,72
		        noteL Gs5,12
		        note  As5
		  sustain
		        noteL As5,144
		  vibrato 020h
		  setRelease 01h
		        note  As5
		        waitL 112
		  vol 09h
		  vibrato 02Ch
		        noteL Gs5,16
		        note  Ds5
		        noteL Cs6,30
		        noteL B5,10
		        noteL As5,8
		        noteL Gs5,192
		        waitL 24
		        noteL B4,8
		        note  Ds5
		        note  Fs5
		        noteL As5,24
		        note  Fs5
		        noteL Gs5,10
		        noteL As5,8
		        note  Gs5
		        noteL As5,6
		        noteL Gs5,8
		        note  As5
		        noteL Gs5,24
		        noteL Fs5,40
		        noteL E5,16
		        note  Gs5
		        noteL A5,12
		        note  Cs6
		        note  E6
		        note  Gs6
		        noteL Gs6,24
		        noteL Fs6,66
		  shifting 00h
		  stereo 0C0h
		  inst 53
		  vol 09h
		        noteL A4,48
		  vol 0Ah
		        note  Ds5
		  vol 0Bh
		        note  Gs5
		  vol 0Ch
		        noteL B5,24
		        note  A5
		  inst 13
		  vol 0Ah
		        noteL Gs4,72
		        noteL Cs5,24
		  setRelease 0Ch
		        note  Cs5
		        note  Gs4
		        note  Cs5
		        note  Cs5
		  setRelease 01h
		        noteL Fs5,48
		        note  Fs5
		        noteL Ds5,72
		        noteL Ds5,12
		        wait
		        noteL Ds5,72
		        noteL Gs5,24
		  setRelease 0Ch
		        note  Gs5
		        note  Ds5
		        note  Gs5
		        note  Gs5
		  setRelease 01h
		        noteL Cs6,48
		        note  Gs5
		        note  Fs5
		  vol 09h
		        note  E5
		  inst 26
		  vol 0Ah
		        wait
		        note  A4
		        wait
		        note  C5
		        wait
		        note  Ds5
		        wait
		        note  As4
		        wait
		        note  Cs5
		        wait
		        note  F5
		        noteL E5,96
		  vol 09h
		        note  E5
		mainLoopEnd
Music_7_Channel_3:
		  inst 34
		  vol 0Ah
		  setRelease 01h
		  vibrato 02Ch
		        noteL D3,122
		        noteL F3,110
		  vol 0Bh
		        noteL Gs3,106
		        noteL B3,108
		mainLoopStart
		        noteL E3,192
		        note  E3
		        note  Gs2
		        noteL Gs2,96
		        noteL Ds3,0
		  setSlide 0Fh
		        noteL Gs3,36
		  noSlide
		        note  Ds3
		        noteL Gs2,24
		        noteL A2,192
		        note  A2
		        note  B2
		        noteL B2,96
		        waitL 24
		        noteL Fs3,12
		        wait
		  sustain
		        noteL B3,0
		  setSlide 0Bh
		        noteL C4,7
		        note  B3
		        note  C4
		  setRelease 01h
		        noteL B3,27
		  setSlide 012h
		        noteL E4,96
		        waitL 24
		  noSlide
		        note  B3
		        note  As3
		        note  Gs3
		        noteL E3,144
		        waitL 24
		        note  E3
		        noteL Gs2,144
		        noteL Ds3,48
		        noteL Gs3,96
		        waitL 24
		        noteL Gs2,48
		        noteL Gs2,24
		        noteL A2,192
		        note  A2
		        noteL B2,96
		        note  E3
		        noteL A3,144
		        noteL E3,48
		        note  A2
		        noteL A3,16
		        note  Gs3
		        note  Fs3
		  vol 0Ch
		        noteL E3,24
		        note  Cs3
		        noteL A2,16
		        note  Gs2
		        note  Fs2
		        waitL 24
		        noteL Gs2,8
		        note  Gs2
		        note  Gs2
		        noteL Gs2,48
		  vol 0Bh
		        noteL As2,96
		        note  B2
		        note  Cs3
		        waitL 24
		  vol 0Ch
		        noteL Ds3,8
		        note  Ds3
		        note  Ds3
		        noteL Ds3,48
		  vol 0Bh
		        noteL F3,96
		        note  E3
		        note  A2
		        noteL A3,48
		        waitL 16
		        note  A3
		        note  Gs3
		        noteL G3,48
		        waitL 16
		        note  G3
		        note  Fs3
		        noteL F3,48
		        waitL 16
		        note  As2
		        note  F3
		        noteL G3,48
		        waitL 16
		        note  G3
		        note  Fs3
		        noteL F3,48
		        waitL 16
		        note  F3
		        note  E3
		        noteL Ds3,48
		        waitL 16
		        note  Gs2
		        note  Ds3
		        noteL D3,120
		        noteL A3,24
		        note  Gs3
		        note  Fs3
		mainLoopEnd
Music_7_Channel_4:
		  shifting 010h
		        waitL 56
		  inst 56
		  vol 07h
		  setRelease 01h
		  vibrato 02Ch
		  stereo 040h
		        noteL B4,10
		        noteL E5,8
		  stereo 080h
		        noteL Cs5,56
		        waitL 42
		  vol 08h
		  stereo 040h
		        noteL D5,8
		        note  G5
		  stereo 080h
		        noteL E5,52
		        waitL 40
		  vol 09h
		  stereo 040h
		        noteL F5,8
		        note  As5
		  stereo 080h
		        noteL G5,50
		        waitL 38
		  vol 0Ah
		  stereo 040h
		        noteL Gs5,8
		        note  Cs6
		  stereo 080h
		        noteL As5,52
		  shifting 010h
		mainLoopStart
		  stereo 040h
		  vibrato 04Ch
		  inst 17
		  vol 09h
		        noteL Ds6,48
		        note  Gs5
		        noteL Fs6,156
		        noteL Ds6,12
		        note  Cs6
		        note  Ds6
		        note  B5
		        note  Cs6
		        note  As5
		        note  B5
		        noteL Gs5,16
		        note  Fs5
		        note  Gs5
		        noteL As5,72
		        noteL Gs5,24
		  sustain
		        noteL As5,144
		  vibrato 040h
		  setRelease 01h
		        note  As5
		  vibrato 04Ch
		        noteL Gs5,48
		        note  Ds5
		        noteL Cs6,156
		        noteL B5,12
		        note  As5
		        note  B5
		        note  Gs5
		        note  As5
		        note  Fs5
		        note  Gs5
		        noteL E5,16
		        note  Fs5
		        note  Gs5
		        noteL As5,72
		        noteL Ds6,24
		  sustain
		        noteL Ds6,144
		  vibrato 040h
		  setRelease 01h
		        note  Ds6
		        waitL 120
		  vol 08h
		  vibrato 04Ch
		        noteL Ds6,36
		        note  Gs5
		        noteL Fs6,120
		        waitL 192
		        noteL F5,24
		        note  Fs5
		        note  Gs5
		        noteL As5,34
		        noteL Ds6,32
		        noteL Fs6,30
		        noteL F6,34
		        noteL Cs6,32
		        noteL As5,30
		  vol 09h
		        noteL Gs5,48
		        note  Ds5
		        noteL Cs6,156
		        noteL B5,12
		        note  As5
		        note  B5
		        note  Gs5
		        note  As5
		        note  Fs5
		        note  Gs5
		        noteL E5,16
		        note  Fs5
		        note  Gs5
		        noteL As5,72
		        noteL Ds6,24
		        noteL Ds6,96
		        note  Ds6
		        note  Cs6
		  stereo 080h
		  vibrato 02Ch
		  inst 53
		  vol 09h
		        noteL Ds5,24
		        note  E5
		  vol 0Ah
		        note  Gs5
		        note  A5
		  vol 0Bh
		        note  Cs6
		        note  Ds6
		        noteL E6,48
		  stereo 040h
		  inst 13
		  vol 09h
		        noteL Ds5,72
		        noteL Gs5,24
		  setRelease 0Ch
		        note  Fs5
		        note  Ds5
		        note  Fs5
		        note  Gs5
		  setRelease 01h
		        noteL Cs6,48
		        note  As5
		        noteL Gs5,72
		        noteL As5,12
		        wait
		        noteL As5,72
		        noteL Ds6,24
		  setRelease 0Ch
		        note  Cs6
		        note  As5
		        note  Cs6
		        note  Ds6
		  setRelease 01h
		        noteL Fs6,48
		        note  Ds6
		        noteL Cs6,96
		  stereo 080h
		  inst 26
		  vol 09h
		        noteL Cs5,24
		        noteL Ds5,8
		        noteL E5,12
		        waitL 4
		        noteL E5,48
		        noteL E5,24
		        noteL Fs5,8
		        noteL G5,12
		        waitL 4
		        noteL G5,48
		        noteL G5,24
		        noteL A5,8
		        noteL As5,12
		        waitL 4
		        noteL As5,48
		        noteL D5,24
		        noteL E5,8
		        noteL F5,12
		        waitL 4
		        noteL F5,48
		        noteL F5,24
		        noteL G5,8
		        noteL Gs5,12
		        waitL 4
		        noteL Gs5,48
		        noteL Gs5,24
		        noteL As5,8
		        noteL C6,12
		        waitL 4
		        noteL C6,48
		        noteL Cs6,72
		        noteL B5,12
		        note  Cs6
		        noteL Cs6,96
		mainLoopEnd
Music_7_Channel_5:
		        waitL 122
		        waitL 110
		        waitL 106
		        waitL 108
		mainLoopStart
		countedLoopStart 15
		        waitL 192
		countedLoopEnd
		        waitL 96
		        sampleL 10,6
		countedLoopStart 9
		        sampleL 11,4
		countedLoopEnd
		countedLoopStart 8
		        sampleL 10,4
		countedLoopEnd
		        sampleL 9,4
		        sample  9
		        sampleL 9,6
		repeatStart
		        sampleL 9,24
		        sampleL 10,8
		        sample  10
		        sample  10
		        sampleL 9,72
		        sampleL 9,48
		        sampleL 9,24
		        wait
		countedLoopStart 2
		        sampleL 10,8
		countedLoopEnd
		        sampleL 9,72
		        sampleL 9,24
		        sampleL 9,6
		countedLoopStart 3
		        sampleL 10,4
		countedLoopEnd
		countedLoopStart 4
		        sampleL 11,4
		countedLoopEnd
		        sampleL 11,6
		repeatSection1Start
		repeatEnd
		repeatSection2Start
		countedLoopStart 3
		        waitL 192
		countedLoopEnd
		mainLoopEnd
Music_7_Channel_6:
		  psgInst 00h
		  setRelease 01h
		  vibrato 04Ch
		        waitL    232
		        waitL    160
		  psgInst 02Bh
		        psgNoteL F3,12
		        psgNoteL Fs3,10
		        psgNoteL Gs3,8
		        psgNote  As3
		        psgNote  B3
		        psgNote  Cs4
		mainLoopStart
		  psgInst 02Ah
		countedLoopStart 3
		        psgNoteL E3,8
		        psgNote  Gs3
		        psgNote  B3
		        psgNote  Ds4
		        psgNote  E4
		        psgNote  Gs4
		        psgNote  B4
		        psgNote  Gs4
		        psgNote  E4
		        psgNote  Ds4
		        psgNote  B3
		        psgNote  Gs3
		countedLoopEnd
		countedLoopStart 2
		        psgNoteL Ds3,8
		        psgNote  Gs3
		        psgNote  As3
		        psgNote  B3
		        psgNote  Ds4
		        psgNote  Gs4
		        psgNote  As4
		        psgNote  Gs4
		        psgNote  Ds4
		        psgNote  B3
		        psgNote  As3
		        psgNote  Gs3
		countedLoopEnd
		        psgNoteL Ds3,8
		        psgNote  Gs3
		        psgNote  As3
		        psgNote  B3
		        psgNote  Ds4
		        psgNote  Gs4
		        psgNote  As4
		        psgNote  Gs4
		        psgNote  Ds4
		        psgNote  B3
		        psgNote  Gs3
		        psgNote  Ds3
		countedLoopStart 3
		        psgNoteL A2,8
		        psgNote  Cs3
		        psgNote  Ds3
		        psgNote  Gs3
		        psgNote  A3
		        psgNote  Cs4
		        psgNote  Ds4
		        psgNote  Cs4
		        psgNote  A3
		        psgNote  Gs3
		        psgNote  Ds3
		        psgNote  Cs3
		countedLoopEnd
		countedLoopStart 3
		        psgNoteL B2,8
		        psgNote  Ds3
		        psgNote  Fs3
		        psgNote  As3
		        psgNote  B3
		        psgNote  Ds4
		        psgNote  Fs4
		        psgNote  Ds4
		        psgNote  B3
		        psgNote  As3
		        psgNote  Fs3
		        psgNote  Ds3
		countedLoopEnd
		countedLoopStart 3
		        psgNoteL E3,8
		        psgNote  Gs3
		        psgNote  B3
		        psgNote  Ds4
		        psgNote  E4
		        psgNote  Gs4
		        psgNote  B4
		        psgNote  Gs4
		        psgNote  E4
		        psgNote  Ds4
		        psgNote  B3
		        psgNote  Gs3
		countedLoopEnd
		countedLoopStart 2
		        psgNoteL Ds3,8
		        psgNote  Gs3
		        psgNote  As3
		        psgNote  B3
		        psgNote  Ds4
		        psgNote  Gs4
		        psgNote  As4
		        psgNote  Gs4
		        psgNote  Ds4
		        psgNote  B3
		        psgNote  As3
		        psgNote  Gs3
		countedLoopEnd
		        psgNoteL Ds3,8
		        psgNote  Gs3
		        psgNote  As3
		        psgNote  B3
		        psgNote  Ds4
		        psgNote  Gs4
		        psgNote  As4
		        psgNote  Gs4
		        psgNote  Ds4
		        psgNote  B3
		        psgNote  Gs3
		        psgNote  Ds3
		countedLoopStart 3
		        psgNoteL A2,8
		        psgNote  Cs3
		        psgNote  Ds3
		        psgNote  Gs3
		        psgNote  A3
		        psgNote  Cs4
		        psgNote  Ds4
		        psgNote  Cs4
		        psgNote  A3
		        psgNote  Gs3
		        psgNote  Ds3
		        psgNote  Cs3
		countedLoopEnd
		        psgNoteL B2,8
		        psgNote  Ds3
		        psgNote  Fs3
		        psgNote  As3
		        psgNote  B3
		        psgNote  Ds4
		        psgNote  Fs4
		        psgNote  Ds4
		        psgNote  B3
		        psgNote  As3
		        psgNote  Fs3
		        psgNote  Ds3
		        psgNote  E3
		        psgNote  Gs3
		        psgNote  B3
		        psgNote  Ds4
		        psgNote  E4
		        psgNote  Gs4
		        psgNote  B4
		        psgNote  Gs4
		        psgNote  E4
		        psgNote  Ds4
		        psgNote  B3
		        psgNote  Gs3
		repeatStart
		        psgNoteL E3,8
		        psgNote  Gs3
		        psgNote  A3
		        psgNote  Cs4
		        psgNote  E4
		        psgNote  Gs4
		        psgNote  A4
		        psgNote  Gs4
		        psgNote  E4
		        psgNote  Cs4
		        psgNote  A3
		repeatSection1Start
		        psgNoteL Gs3,8
		repeatEnd
		repeatSection2Start
		        psgNoteL E3,8
		        psgNote  A2
		        psgNote  Cs3
		        psgNote  Ds3
		        psgNote  E3
		        psgNote  Gs3
		        psgNote  A3
		        psgNote  Cs3
		        psgNote  Ds3
		        psgNote  E3
		        psgNote  Gs3
		        psgNote  A3
		        psgNote  Cs4
		        psgNote  E3
		        psgNote  Gs3
		        psgNote  A3
		        psgNote  Cs4
		        psgNote  Ds4
		        psgNote  E4
		        psgNote  A3
		        psgNote  Cs4
		        psgNote  Ds4
		        psgNote  E4
		        psgNote  Gs4
		        psgNote  A4
		        waitL    24
		  psgInst 02Bh
		        psgNoteL Gs3,8
		        psgNote  Cs4
		        psgNote  Ds4
		        psgNoteL Gs4,48
		countedLoopStart 1
		        psgNoteL Fs3,8
		        psgNote  Ds3
		        psgNote  Cs3
		        psgNote  Gs2
		        psgNote  Cs3
		        psgNote  Ds3
		countedLoopEnd
		countedLoopStart 1
		        psgNoteL Gs3,8
		        psgNote  Ds3
		        psgNote  Gs3
		        psgNote  As3
		countedLoopEnd
		        psgNoteL Cs4,8
		        psgNote  Ds4
		        psgNote  Cs4
		        psgNote  As3
		        psgNote  Gs3
		        psgNote  Ds3
		        psgNote  F3
		        psgNote  Gs3
		        psgNote  As3
		        psgNote  Cs4
		        psgNote  Ds4
		        psgNote  Cs4
		        psgNote  Ds4
		        psgNote  Fs4
		        psgNote  Gs4
		        psgNote  As4
		        waitL    24
		        psgNoteL Ds4,8
		        psgNote  Gs4
		        psgNote  As4
		        psgNoteL Ds5,48
		countedLoopStart 1
		        psgNoteL Gs3,8
		        psgNote  Ds3
		        psgNote  Cs3
		        psgNote  Gs2
		        psgNote  Cs3
		        psgNote  Ds3
		countedLoopEnd
		countedLoopStart 1
		        psgNoteL Fs3,8
		        psgNote  Cs3
		        psgNote  Fs3
		        psgNote  Gs3
		countedLoopEnd
		        psgNoteL Cs4,8
		        psgNote  Ds4
		        psgNote  Cs4
		        psgNote  Gs3
		        psgNote  Cs4
		        psgNote  Gs3
		        psgNote  Cs4
		        psgNote  Ds4
		        psgNote  E4
		        psgNote  Gs4
		        psgNote  A4
		        psgNote  Gs4
		        psgNote  E4
		        psgNote  Cs4
		        psgNote  A3
		        psgNote  E3
		        psgNoteL Cs3,24
		  psgInst 02Ah
		        psgNoteL Ds3,8
		        psgNoteL E3,14
		        waitL    2
		        psgNoteL E3,24
		        psgNote  E4
		        psgNote  E3
		        psgNoteL Fs3,8
		        psgNoteL G3,14
		        waitL    2
		        psgNoteL G3,24
		        psgNote  G4
		        psgNote  G3
		        psgNoteL A3,8
		        psgNoteL As3,14
		        waitL    2
		        psgNoteL As3,24
		        psgNote  As4
		        psgNote  D3
		        psgNoteL E3,8
		        psgNoteL F3,14
		        waitL    2
		        psgNoteL F3,24
		        psgNote  F4
		        psgNote  F3
		        psgNoteL G3,8
		        psgNoteL Gs3,14
		        waitL    2
		        psgNoteL Gs3,24
		        psgNote  Gs4
		        psgNote  Gs3
		        psgNoteL As3,8
		        psgNoteL C4,14
		        waitL    2
		        psgNoteL C4,24
		        psgNote  C5
		  psgInst 02Bh
		        psgNoteL E3,8
		        psgNote  Gs3
		        psgNote  A3
		        psgNote  Cs4
		        psgNote  E4
		        psgNote  Gs4
		        psgNoteL Cs5,48
		        psgNoteL Cs5,16
		        psgNote  Gs4
		        psgNote  E4
		        psgNote  Cs4
		        psgNote  Gs3
		        psgNote  E3
		mainLoopEnd
Music_7_Channel_7:
		  psgInst 00h
		  setRelease 01h
		  vibrato 04Ch
		        waitL    232
		        waitL    168
		  psgInst 02Ah
		  shifting 010h
		        psgNoteL F3,12
		        psgNoteL Fs3,10
		        psgNoteL Gs3,8
		        psgNote  As3
		        psgNote  B3
		        psgNote  Gs3
		mainLoopStart
		  shifting 010h
		  psgInst 028h
		countedLoopStart 3
		        psgNoteL E3,8
		        psgNote  Gs3
		        psgNote  B3
		        psgNote  Ds4
		        psgNote  E4
		        psgNote  Gs4
		        psgNote  B4
		        psgNote  Gs4
		        psgNote  E4
		        psgNote  Ds4
		        psgNote  B3
		        psgNote  Gs3
		countedLoopEnd
		countedLoopStart 2
		        psgNoteL Ds3,8
		        psgNote  Gs3
		        psgNote  As3
		        psgNote  B3
		        psgNote  Ds4
		        psgNote  Gs4
		        psgNote  As4
		        psgNote  Gs4
		        psgNote  Ds4
		        psgNote  B3
		        psgNote  As3
		        psgNote  Gs3
		countedLoopEnd
		        psgNoteL Ds3,8
		        psgNote  Gs3
		        psgNote  As3
		        psgNote  B3
		        psgNote  Ds4
		        psgNote  Gs4
		        psgNote  As4
		        psgNote  Gs4
		        psgNote  Ds4
		        psgNote  B3
		        psgNote  Gs3
		        psgNote  Ds3
		countedLoopStart 3
		        psgNoteL A2,8
		        psgNote  Cs3
		        psgNote  Ds3
		        psgNote  Gs3
		        psgNote  A3
		        psgNote  Cs4
		        psgNote  Ds4
		        psgNote  Cs4
		        psgNote  A3
		        psgNote  Gs3
		        psgNote  Ds3
		        psgNote  Cs3
		countedLoopEnd
		countedLoopStart 3
		        psgNoteL B2,8
		        psgNote  Ds3
		        psgNote  Fs3
		        psgNote  As3
		        psgNote  B3
		        psgNote  Ds4
		        psgNote  Fs4
		        psgNote  Ds4
		        psgNote  B3
		        psgNote  As3
		        psgNote  Fs3
		        psgNote  Ds3
		countedLoopEnd
		countedLoopStart 3
		        psgNoteL E3,8
		        psgNote  Gs3
		        psgNote  B3
		        psgNote  Ds4
		        psgNote  E4
		        psgNote  Gs4
		        psgNote  B4
		        psgNote  Gs4
		        psgNote  E4
		        psgNote  Ds4
		        psgNote  B3
		        psgNote  Gs3
		countedLoopEnd
		countedLoopStart 2
		        psgNoteL Ds3,8
		        psgNote  Gs3
		        psgNote  As3
		        psgNote  B3
		        psgNote  Ds4
		        psgNote  Gs4
		        psgNote  As4
		        psgNote  Gs4
		        psgNote  Ds4
		        psgNote  B3
		        psgNote  As3
		        psgNote  Gs3
		countedLoopEnd
		        psgNoteL Ds3,8
		        psgNote  Gs3
		        psgNote  As3
		        psgNote  B3
		        psgNote  Ds4
		        psgNote  Gs4
		        psgNote  As4
		        psgNote  Gs4
		        psgNote  Ds4
		        psgNote  B3
		        psgNote  Gs3
		        psgNote  Ds3
		countedLoopStart 3
		        psgNoteL A2,8
		        psgNote  Cs3
		        psgNote  Ds3
		        psgNote  Gs3
		        psgNote  A3
		        psgNote  Cs4
		        psgNote  Ds4
		        psgNote  Cs4
		        psgNote  A3
		        psgNote  Gs3
		        psgNote  Ds3
		        psgNote  Cs3
		countedLoopEnd
		        psgNoteL B2,8
		        psgNote  Ds3
		        psgNote  Fs3
		        psgNote  As3
		        psgNote  B3
		        psgNote  Ds4
		        psgNote  Fs4
		        psgNote  Ds4
		        psgNote  B3
		        psgNote  As3
		        psgNote  Fs3
		        psgNote  Ds3
		        psgNote  E3
		        psgNote  Gs3
		        psgNote  B3
		        psgNote  Ds4
		        psgNote  E4
		        psgNote  Gs4
		        psgNote  B4
		        psgNote  Gs4
		        psgNote  E4
		        psgNote  Ds4
		        psgNote  B3
		        psgNote  Gs3
		repeatStart
		        psgNoteL E3,8
		        psgNote  Gs3
		        psgNote  A3
		        psgNote  Cs4
		        psgNote  E4
		        psgNote  Gs4
		        psgNote  A4
		        psgNote  Gs4
		        psgNote  E4
		        psgNote  Cs4
		        psgNote  A3
		repeatSection1Start
		        psgNoteL Gs3,8
		repeatEnd
		repeatSection2Start
		        psgNoteL E3,8
		        psgNote  A2
		        psgNote  Cs3
		        psgNote  Ds3
		        psgNote  E3
		        psgNote  Gs3
		        psgNote  A3
		        psgNote  Cs3
		        psgNote  Ds3
		        psgNote  E3
		        psgNote  Gs3
		        psgNote  A3
		        psgNote  Cs4
		        psgNote  E3
		        psgNote  Gs3
		        psgNote  A3
		        psgNote  Cs4
		        psgNote  Ds4
		        psgNote  E4
		        psgNote  A3
		        psgNote  Cs4
		        psgNote  Ds4
		        psgNote  E4
		        psgNote  Gs4
		        psgNote  A4
		        waitL    24
		  psgInst 029h
		        psgNoteL Gs3,8
		        psgNote  Cs4
		        psgNote  Ds4
		        psgNoteL Gs4,48
		countedLoopStart 1
		        psgNoteL Fs3,8
		        psgNote  Ds3
		        psgNote  Cs3
		        psgNote  Gs2
		        psgNote  Cs3
		        psgNote  Ds3
		countedLoopEnd
		countedLoopStart 1
		        psgNoteL Gs3,8
		        psgNote  Ds3
		        psgNote  Gs3
		        psgNote  As3
		countedLoopEnd
		        psgNoteL Cs4,8
		        psgNote  Ds4
		        psgNote  Cs4
		        psgNote  As3
		        psgNote  Gs3
		        psgNote  Ds3
		        psgNote  F3
		        psgNote  Gs3
		        psgNote  As3
		        psgNote  Cs4
		        psgNote  Ds4
		        psgNote  Cs4
		        psgNote  Ds4
		        psgNote  Fs4
		        psgNote  Gs4
		        psgNote  As4
		        waitL    24
		        psgNoteL Ds4,8
		        psgNote  Gs4
		        psgNote  As4
		        psgNoteL Ds5,48
		countedLoopStart 1
		        psgNoteL Gs3,8
		        psgNote  Ds3
		        psgNote  Cs3
		        psgNote  Gs2
		        psgNote  Cs3
		        psgNote  Ds3
		countedLoopEnd
		countedLoopStart 1
		        psgNoteL Fs3,8
		        psgNote  Cs3
		        psgNote  Fs3
		        psgNote  Gs3
		countedLoopEnd
		        psgNoteL Cs4,8
		        psgNote  Ds4
		        psgNote  Cs4
		        psgNote  Gs3
		        psgNote  Cs4
		        psgNote  Gs3
		        psgNote  Cs4
		        psgNote  Ds4
		        psgNote  E4
		        psgNote  Gs4
		        psgNote  A4
		        psgNote  Gs4
		        psgNote  E4
		        psgNote  Cs4
		        psgNote  A3
		  shifting 00h
		  psgInst 02Ah
		        psgNoteL A2,24
		        psgNoteL B2,8
		        psgNoteL Cs3,14
		        waitL    2
		        psgNoteL Cs3,24
		        psgNote  Cs4
		        psgNote  C3
		        psgNoteL D3,8
		        psgNoteL E3,14
		        waitL    2
		        psgNoteL E3,24
		        psgNote  E4
		        psgNote  Ds3
		        psgNoteL F3,8
		        psgNoteL G3,14
		        waitL    2
		        psgNoteL G3,24
		        psgNote  G4
		        psgNote  As2
		        psgNoteL C3,8
		        psgNoteL D3,14
		        waitL    2
		        psgNoteL D3,24
		        psgNote  D4
		        psgNote  Cs3
		        psgNoteL Ds3,8
		        psgNoteL F3,14
		        waitL    2
		        psgNoteL F3,24
		        psgNote  F4
		        psgNote  F3
		        psgNoteL Fs3,8
		        psgNoteL Gs3,14
		        waitL    2
		        psgNoteL Gs3,24
		        psgNoteL Gs4,32
		  shifting 010h
		  psgInst 029h
		        psgNoteL E3,8
		        psgNote  Gs3
		        psgNote  A3
		        psgNote  Cs4
		        psgNote  E4
		        psgNote  Gs4
		        psgNoteL Cs5,48
		  shifting 00h
		  psgInst 02Bh
		        psgNoteL E5,16
		        psgNote  Cs5
		        psgNote  Gs4
		        psgNote  E4
		        psgNote  Cs4
		        psgNote  Gs3
		mainLoopEnd
Music_7_Channel_9:
		channel_end
