
; ASM FILE music01.asm :
; 0x8950..0x9582 : Music 01
Music01:        db 0
		db 0
		db 0
		db 0BAh
		dw Music01_Channel0
		dw Music01_Channel1
		dw Music01_Channel2
		dw Music01_Channel3
		dw Music01_Channel4
		dw Music01_Channel5
		dw Music01_Channel6
		dw Music01_Channel7
		dw Music01_Channel9
		dw Music01_Channel9
Music01_Channel0:
		  setRelease 01h
		  vibrato 02Ch
		  inst 9
		  vol 0Ch
		  stereo 0C0h
		        noteL G5,4
		        waitL 8
		        noteL C6,12
		        noteL D6,4
		        waitL 8
		mainLoopStart
		repeatStart
		        noteL E6,50
		        waitL 10
		        noteL G5,4
		        waitL 8
		        noteL C6,12
		        noteL D6,4
		        waitL 8
		        noteL E6,4
		        waitL 8
		        noteL G6,4
		        waitL 8
		        noteL F6,18
		        noteL E6,6
		        note  D6
		        wait
		        noteL A5,4
		        waitL 8
		        noteL D6,12
		        noteL E6,4
		        waitL 8
		        noteL F6,50
		        waitL 10
		        noteL A5,4
		        waitL 8
		        noteL D6,12
		        noteL E6,4
		        waitL 8
		        noteL F6,4
		        waitL 8
		        noteL A6,4
		        waitL 8
		        noteL C7,18
		        noteL B6,6
		        noteL A6,12
		        noteL G6,4
		        waitL 8
		repeatSection1Start
		  inst 26
		  vol 0Bh
		        noteL G5,3
		        note  A5
		        note  B5
		        note  C6
		        note  D6
		        note  E6
		        note  F6
		        note  G6
		        noteL A6,10
		        waitL 14
		        noteL C6,36
		        noteL B5,12
		        note  C6
		        note  A6
		        noteL G6,65
		        waitL 7
		        noteL E6,24
		        noteL F6,10
		        waitL 14
		        noteL A5,36
		        noteL Gs5,12
		        note  A5
		        note  F6
		        noteL E6,60
		        noteL G5,12
		        note  E6
		        note  Ds6
		        noteL D6,10
		        waitL 14
		        noteL As5,36
		        noteL B5,12
		        note  F6
		        note  E6
		        note  D6
		        note  B5
		        note  C6
		        note  E6
		        noteL A6,24
		        waitL 12
		        note  A6
		        noteL G6,6
		        waitL 30
		        noteL A6,12
		        noteL G6,6
		        waitL 30
		        noteL A6,12
		        noteL G6,6
		        waitL 30
		        noteL A6,12
		        noteL G6,6
		        wait
		  inst 9
		  vol 0Ch
		        noteL G5,4
		        waitL 8
		        noteL C6,12
		        noteL D6,4
		        waitL 8
		repeatEnd
		repeatSection2Start
		        waitL 24
		  inst 61
		countedLoopStart 7
		        waitL 12
		  vol 08h
		        note  F5
		        note  F5
		  vol 0Bh
		        noteL C6,6
		  vol 08h
		        note  C5
		countedLoopEnd
		countedLoopStart 2
		  inst 62
		  vol 09h
		        noteL C5,24
		  inst 61
		  vol 0Bh
		        noteL F5,6
		  vol 08h
		        note  C5
		  vol 0Bh
		        noteL C6,12
		countedLoopEnd
		  inst 62
		  vol 09h
		        noteL C5,24
		  inst 61
		  vol 0Bh
		        noteL C6,6
		  vol 08h
		        note  A5
		        note  F5
		        note  C5
		countedLoopStart 2
		  inst 62
		  vol 09h
		        noteL C5,24
		  inst 61
		  vol 0Bh
		        noteL F5,6
		  vol 08h
		        note  C5
		  vol 0Bh
		        noteL C6,12
		countedLoopEnd
		  inst 62
		  vol 09h
		        noteL C5,24
		  inst 61
		  vol 0Bh
		        noteL C6,6
		  vol 08h
		        note  A5
		        note  F5
		        note  C5
		countedLoopStart 6
		  vol 0Bh
		        noteL C6,6
		  vol 08h
		        note  A5
		        note  F5
		        note  C5
		countedLoopEnd
		  inst 26
		  vol 0Bh
		        noteL As5,4
		        note  C6
		        note  D6
		        note  E6
		        note  F6
		        note  G6
		        noteL A6,10
		        waitL 14
		        noteL C6,36
		        noteL B5,12
		        note  C6
		        note  A6
		        noteL G6,65
		        waitL 7
		        noteL E6,24
		        noteL F6,10
		        waitL 14
		        noteL A5,36
		        noteL Gs5,12
		        note  A5
		        note  F6
		        noteL E6,60
		        noteL G5,12
		        note  E6
		        note  Ds6
		        noteL D6,10
		        waitL 14
		        noteL As5,36
		        noteL B5,12
		        note  F6
		        note  E6
		        note  D6
		        note  B5
		        note  C6
		        note  E6
		        noteL A6,24
		        waitL 12
		        note  A6
		        noteL G6,6
		        wait
		  inst 61
		  vol 0Bh
		        note  F5
		  vol 08h
		        note  C5
		  vol 0Bh
		        noteL C6,12
		  inst 26
		  vol 0Bh
		        note  A6
		        noteL G6,6
		        wait
		  inst 61
		  vol 0Bh
		        note  F5
		  vol 08h
		        note  C5
		  vol 0Bh
		        noteL C6,12
		  inst 26
		  vol 0Bh
		        note  A6
		        noteL G6,6
		        wait
		  inst 61
		  vol 0Bh
		        note  C6
		  vol 08h
		        note  F5
		  inst 26
		  vol 0Bh
		        noteL B5,24
		        noteL C6,6
		        wait
		  inst 9
		  vol 0Ch
		        noteL G5,4
		        waitL 8
		        noteL C6,12
		        noteL D6,4
		        waitL 8
		mainLoopEnd
Music01_Channel1:
		        waitL 36
		  setRelease 01h
		  vibrato 02Ch
		  inst 35
		  vol 0Bh
		  stereo 0C0h
		mainLoopStart
		repeatStart
		        noteL C3,12
		        noteL C4,6
		        wait
		        noteL B2,12
		        noteL B3,6
		        wait
		        noteL A2,12
		        noteL A3,6
		        wait
		        noteL G2,12
		        noteL G3,6
		        wait
		        noteL C3,12
		        noteL C4,6
		        wait
		        noteL Cs3,12
		        noteL Cs4,6
		        wait
		        noteL D3,12
		        noteL D4,6
		        wait
		        noteL A2,12
		        noteL A3,6
		        wait
		        noteL D3,12
		        noteL D4,6
		        wait
		        noteL Cs3,12
		        noteL Cs4,6
		        wait
		        noteL C3,12
		        noteL C4,6
		        wait
		        noteL B2,12
		        noteL B3,6
		        wait
		        noteL A2,12
		        noteL A3,6
		        wait
		        noteL Gs2,12
		        noteL Gs3,6
		        wait
		repeatSection1Start
		        noteL G2,12
		        noteL G3,6
		        wait
		        noteL G2,24
		        noteL F2,36
		        noteL F2,4
		        waitL 8
		        noteL G2,36
		        noteL G2,4
		        waitL 8
		        noteL E2,36
		        noteL E2,4
		        waitL 8
		        noteL A2,36
		        noteL A2,4
		        waitL 8
		        noteL D3,36
		        noteL D3,4
		        waitL 8
		        noteL G2,36
		        noteL G2,4
		        waitL 8
		        noteL C3,36
		        noteL C3,4
		        waitL 8
		        noteL C3,36
		        noteL C3,4
		        waitL 8
		        noteL E2,36
		        noteL E2,4
		        waitL 8
		        noteL Gs2,24
		        note  E2
		        note  A2
		        note  G2
		        note  Fs2
		        wait
		        waitL 12
		        noteL G3,6
		        wait
		        note  G2
		        waitL 30
		        noteL G3,6
		        wait
		        note  G2
		        waitL 18
		        waitL 12
		        noteL G3,6
		        wait
		        note  G2
		        waitL 30
		        noteL G3,6
		        wait
		        noteL G2,12
		        wait
		repeatEnd
		repeatSection2Start
		        noteL G2,12
		        noteL D3,6
		        wait
		        noteL G3,12
		        note  F3
		        noteL Ds3,36
		        noteL Ds3,4
		        waitL 8
		        noteL Gs2,48
		        noteL As2,36
		        noteL As2,4
		        waitL 8
		        noteL Gs2,48
		        noteL Fs2,36
		        noteL Fs2,4
		        waitL 8
		        noteL B2,48
		        noteL Cs3,24
		        note  B2
		        noteL As2,48
		        noteL Ds3,12
		        wait
		        noteL Ds3,6
		        note  D3
		        note  Ds3
		        wait
		        noteL F3,12
		        wait
		        noteL F3,6
		        note  E3
		        note  F3
		        wait
		        noteL Fs3,12
		        wait
		        noteL Fs3,6
		        note  F3
		        note  Fs3
		        wait
		        noteL G3,12
		        wait
		        noteL G2,6
		        note  Gs2
		        note  As2
		        note  G2
		        noteL Gs2,12
		        wait
		        noteL Gs2,6
		        note  G2
		        note  Gs2
		        wait
		        noteL As2,12
		        wait
		        noteL As2,6
		        note  A2
		        note  As2
		        wait
		        noteL B2,12
		        wait
		        noteL B2,6
		        note  As2
		        note  B2
		        wait
		        noteL C3,12
		        wait
		        noteL Gs2,6
		        note  As2
		        note  C3
		        note  Gs2
		        noteL Cs3,12
		        noteL Cs4,6
		        wait
		        noteL Fs2,12
		        noteL Fs3,6
		        wait
		        noteL B2,12
		        noteL B3,6
		        wait
		        noteL E2,12
		        noteL E3,6
		        wait
		        noteL A2,12
		        noteL A3,6
		        wait
		        noteL D3,12
		        noteL D4,6
		        wait
		        noteL G2,12
		        noteL G3,6
		        wait
		        noteL C3,24
		        noteL F2,36
		        noteL F2,4
		        waitL 8
		        noteL G2,36
		        noteL G2,4
		        waitL 8
		        noteL E2,36
		        noteL E2,4
		        waitL 8
		        noteL A2,36
		        noteL A2,4
		        waitL 8
		        noteL D3,36
		        noteL D3,4
		        waitL 8
		        noteL G2,36
		        noteL G2,4
		        waitL 8
		        noteL C3,36
		        noteL C3,4
		        waitL 8
		        noteL C3,36
		        noteL C3,4
		        waitL 8
		        noteL E2,36
		        noteL E2,4
		        waitL 8
		        noteL Gs2,24
		        note  E2
		        note  A2
		        note  G2
		        note  Fs2
		        wait
		        waitL 12
		        noteL G3,6
		        wait
		        note  G2
		        waitL 30
		        noteL G3,6
		        wait
		        note  G2
		        wait
		        note  G3
		        wait
		        note  G2
		        waitL 18
		        noteL G3,24
		        noteL C4,6
		        wait
		        note  G3
		        wait
		        noteL C3,12
		        wait
		mainLoopEnd
Music01_Channel2:
		        waitL 36
		mainLoopStart
		  setRelease 01h
		  vibrato 02Ch
		  stereo 0C0h
		countedLoopStart 3
		        waitL 96
		countedLoopEnd
		  inst 31
		  vol 09h
		        noteL F5,6
		        note  C5
		        note  E5
		        note  F5
		        note  A5
		        note  F5
		        note  E5
		        note  C5
		        note  D5
		        note  As4
		        note  B4
		        note  D5
		        note  F5
		        note  D5
		        note  B4
		        note  G4
		        note  G5
		        note  Ds5
		        note  E5
		        note  G5
		        note  B5
		        note  G5
		        note  E5
		        note  D5
		        note  Cs5
		        note  A5
		        note  G5
		        note  A4
		        note  F5
		        note  A4
		        note  E5
		        note  A4
		        note  D5
		        note  A4
		        note  Cs5
		        note  D5
		        note  F5
		        note  D5
		        note  C5
		        note  A4
		        note  B4
		        note  As4
		        note  B4
		        note  D5
		        note  G5
		        note  F5
		        note  D5
		        note  B4
		        note  C5
		        note  G4
		        note  B4
		        note  C5
		        note  E5
		        note  G5
		        note  B5
		        note  D6
		        note  C6
		        note  E5
		        note  B5
		        note  C5
		        note  As5
		        note  E5
		        note  A5
		        note  C5
		        note  Gs5
		        note  D5
		        note  E5
		        note  Gs5
		        note  B5
		        note  Gs5
		        note  E5
		        note  D5
		        note  E5
		        note  B4
		        note  D5
		        note  E5
		        note  Gs5
		        note  E5
		        note  D5
		        note  B4
		        note  C5
		        note  B4
		        note  C5
		        note  D5
		        note  E5
		        note  Ds5
		        note  E5
		        note  G5
		        note  A5
		        note  Gs5
		        note  A5
		        note  B5
		        note  C6
		        note  B5
		        note  C6
		        note  E6
		        waitL 12
		        noteL D6,6
		        note  Cs6
		        note  D6
		        waitL 30
		        noteL Ds6,6
		        note  D6
		        note  Ds6
		        waitL 30
		        noteL E6,6
		        note  Ds6
		        note  E6
		        waitL 30
		        noteL F6,6
		        note  E6
		        note  D6
		        note  C6
		        note  B5
		        note  G5
		  vol 08h
		countedLoopStart 5
		        waitL 12
		        noteL E5,6
		        wait
		countedLoopEnd
		countedLoopStart 6
		        waitL 12
		        noteL F5,6
		        wait
		countedLoopEnd
		        waitL 12
		        noteL Fs5,6
		        waitL 18
		        noteL G5,6
		        wait
		        noteL G5,24
		  vol 07h
		  setRelease 06h
		        waitL 12
		        note  G4
		        note  As4
		        note  G4
		        wait
		        note  C5
		        note  C5
		        note  C5
		        wait
		        note  As4
		        note  As4
		        note  As4
		        wait
		        note  As4
		        note  D5
		        note  As4
		        wait
		        note  As4
		        note  Cs5
		        note  As4
		        wait
		        note  Ds5
		        note  Ds5
		        note  Ds5
		        wait
		        note  Cs5
		        note  F5
		        note  Cs5
		        note  F5
		        note  D5
		        note  D5
		        note  D5
		  setRelease 01h
		  inst 26
		  vol 09h
		        noteL Fs5,48
		        note  F5
		        note  Ds5
		        noteL Ds5,6
		        wait
		        note  Ds5
		        note  F5
		        noteL Ds5,24
		        noteL Ds5,72
		        noteL D5,24
		        noteL Ds5,48
		        noteL Ds5,6
		        wait
		        note  Ds5
		        note  As5
		        noteL Ds5,24
		        noteL Cs6,12
		        note  B5
		        note  Fs5
		        note  E5
		        note  B5
		        note  A5
		        note  E5
		        note  D5
		        note  A5
		        note  G5
		        note  D5
		        note  C5
		        note  G5
		        note  F5
		        note  C5
		        note  As4
		  inst 31
		  vol 09h
		        noteL F5,6
		        note  C5
		        note  E5
		        note  F5
		        note  A5
		        note  F5
		        note  E5
		        note  C5
		        note  D5
		        note  As4
		        note  B4
		        note  D5
		        note  F5
		        note  D5
		        note  B4
		        note  G4
		        note  G5
		        note  Ds5
		        note  E5
		        note  G5
		        note  B5
		        note  G5
		        note  E5
		        note  D5
		        note  Cs5
		        note  A5
		        note  G5
		        note  A4
		        note  F5
		        note  A4
		        note  E5
		        note  A4
		        note  D5
		        note  A4
		        note  Cs5
		        note  D5
		        note  F5
		        note  D5
		        note  C5
		        note  A4
		        note  B4
		        note  As4
		        note  B4
		        note  D5
		        note  G5
		        note  F5
		        note  D5
		        note  B4
		        note  C5
		        note  G4
		        note  B4
		        note  C5
		        note  E5
		        note  G5
		        note  B5
		        note  D6
		        note  C6
		        note  E5
		        note  B5
		        note  C5
		        note  As5
		        note  E5
		        note  A5
		        note  C5
		        note  Gs5
		        note  D5
		        note  E5
		        note  Gs5
		        note  B5
		        note  Gs5
		        note  E5
		        note  D5
		        note  E5
		        note  B4
		        note  D5
		        note  E5
		        note  Gs5
		        note  E5
		        note  D5
		        note  B4
		        note  C5
		        note  B4
		        note  C5
		        note  D5
		        note  E5
		        note  Ds5
		        note  E5
		        note  G5
		        note  A5
		        note  Gs5
		        note  A5
		        note  B5
		        note  C6
		        note  B5
		        note  C6
		        note  E6
		        waitL 12
		  vol 08h
		        noteL B5,6
		        note  As5
		        note  B5
		        waitL 30
		        noteL C6,6
		        note  B5
		        note  C6
		        wait
		        note  Cs6
		        wait
		        noteL D6,12
		        wait
		        noteL F5,24
		        noteL E5,12
		        wait
		        note  E5
		        wait
		mainLoopEnd
Music01_Channel3:
		        waitL 36
		mainLoopStart
		  setRelease 01h
		  vibrato 02Ch
		  stereo 0C0h
		  inst 61
		countedLoopStart 2
		  vol 0Bh
		        waitL 12
		        noteL A5,6
		  vol 08h
		        note  C5
		  vol 0Bh
		        noteL C6,12
		  vol 08h
		        note  C5
		  vol 0Bh
		        noteL C6,6
		  vol 08h
		        note  A5
		        note  F5
		        note  C5
		  vol 0Bh
		        noteL C6,12
		  vol 08h
		        note  C5
		countedLoopEnd
		  inst 61
		  vol 0Bh
		        waitL 12
		        noteL A5,6
		  vol 08h
		        note  C5
		  vol 0Bh
		        noteL C6,12
		  vol 08h
		        note  C5
		  vol 0Bh
		        noteL C6,6
		  vol 08h
		        note  A5
		        note  F5
		        note  C5
		  vol 0Bh
		        noteL C6,12
		  inst 62
		  vol 09h
		        note  C5
		countedLoopStart 4
		        waitL 12
		  inst 61
		  vol 0Bh
		        noteL C6,6
		  vol 08h
		        note  A5
		  inst 62
		  vol 09h
		        noteL C5,30
		  inst 61
		  vol 08h
		        noteL A5,6
		        note  F5
		        note  C5
		  inst 62
		  vol 09h
		        noteL C5,12
		  inst 61
		  vol 08h
		        note  C5
		countedLoopEnd
		        waitL 12
		  inst 61
		  vol 0Bh
		        noteL C6,6
		  vol 08h
		        note  A5
		  inst 62
		  vol 09h
		        noteL C5,30
		  inst 61
		  vol 08h
		        noteL A5,6
		        note  F5
		        note  C5
		  vol 0Bh
		        noteL C5,12
		  inst 62
		  vol 09h
		        note  C5
		countedLoopStart 2
		  inst 61
		  vol 08h
		        noteL C5,12
		  vol 0Bh
		        noteL C6,6
		  vol 08h
		        note  F5
		  vol 0Bh
		        noteL C6,12
		  inst 62
		  vol 09h
		        note  C5
		countedLoopEnd
		  inst 61
		  vol 08h
		        noteL C5,12
		  vol 0Bh
		        noteL C6,6
		  vol 08h
		        note  F5
		  inst 62
		  vol 09h
		        noteL C5,24
		  inst 61
		countedLoopStart 2
		  vol 0Bh
		        waitL 12
		        noteL A5,6
		  vol 08h
		        note  C5
		  vol 0Bh
		        noteL C6,12
		  vol 08h
		        note  C5
		  vol 0Bh
		        noteL C6,6
		  vol 08h
		        note  A5
		        note  F5
		        note  C5
		  vol 0Bh
		        noteL C6,12
		  vol 08h
		        note  C5
		countedLoopEnd
		  inst 61
		  vol 0Bh
		        waitL 12
		        noteL A5,6
		  vol 08h
		        note  C5
		  vol 0Bh
		        noteL C6,12
		  vol 08h
		        note  C5
		  vol 0Bh
		        noteL C6,6
		  vol 08h
		        note  A5
		        note  F5
		        note  C5
		  vol 0Bh
		        noteL C6,12
		  inst 62
		  vol 09h
		        note  C5
		  inst 31
		  vol 08h
		  setRelease 06h
		        wait
		        note  Ds5
		        note  G5
		        note  Ds5
		        wait
		        note  Ds5
		        note  Gs5
		        note  Ds5
		        wait
		        note  F5
		        note  Gs5
		        note  F5
		        wait
		        note  D5
		        note  F5
		        note  D5
		        wait
		        note  Fs5
		        note  As5
		        note  Fs5
		        wait
		        note  Fs5
		        note  B5
		        note  Fs5
		        wait
		        note  Gs5
		        note  Cs6
		        note  Gs5
		        note  D6
		        note  As5
		        note  Gs5
		        note  F5
		  setRelease 01h
		  inst 26
		  vol 09h
		        noteL As5,72
		        noteL A5,24
		        noteL As5,48
		        noteL As5,6
		        wait
		        note  As5
		        note  B5
		        noteL Cs6,24
		        noteL B5,48
		        note  As5
		        note  Gs5
		        noteL Gs5,6
		        wait
		        note  Gs5
		        note  As5
		        noteL C6,24
		        note  F5
		        note  As5
		        note  Ds5
		        note  Gs5
		        note  Cs5
		        note  Fs5
		        note  B4
		        noteL E5,6
		  inst 61
		  vol 08h
		        note  F5
		  inst 62
		  vol 09h
		        noteL C5,12
		countedLoopStart 4
		        waitL 12
		  inst 61
		  vol 0Bh
		        noteL C6,6
		  vol 08h
		        note  A5
		  inst 62
		  vol 09h
		        noteL C5,30
		  inst 61
		  vol 08h
		        noteL A5,6
		        note  F5
		        note  C5
		  inst 62
		  vol 09h
		        noteL C5,12
		  inst 61
		  vol 08h
		        note  C5
		countedLoopEnd
		        waitL 12
		  inst 61
		  vol 0Bh
		        noteL C6,6
		  vol 08h
		        note  A5
		  inst 62
		  vol 09h
		        noteL C5,30
		  inst 61
		  vol 08h
		        noteL A5,6
		        note  F5
		        note  C5
		  vol 0Bh
		        noteL C5,12
		  inst 62
		  vol 09h
		        note  C5
		  inst 61
		  vol 0Bh
		        note  C6
		  inst 31
		  vol 09h
		        noteL D6,6
		        note  Cs6
		        note  D6
		        wait
		  inst 62
		  vol 09h
		        noteL C6,12
		  inst 61
		  vol 0Bh
		        note  C7
		  inst 31
		  vol 09h
		        noteL Ds6,6
		        note  D6
		        note  Ds6
		        wait
		        note  E6
		        wait
		        noteL F6,12
		        wait
		        noteL G5,24
		        noteL G5,12
		  inst 61
		  vol 0Bh
		        note  C6
		  inst 31
		  vol 09h
		        note  G5
		  inst 62
		  vol 09h
		        note  C6
		mainLoopEnd
Music01_Channel4:
		        waitL 6
		  shifting 020h
		  setRelease 01h
		  vibrato 02Ch
		  inst 9
		  vol 09h
		  stereo 080h
		        noteL G5,4
		        waitL 8
		        noteL C6,12
		        noteL D6,4
		        waitL 8
		mainLoopStart
		repeatStart
		        noteL E6,50
		        waitL 10
		        noteL G5,4
		        waitL 8
		        noteL C6,12
		        noteL D6,4
		        waitL 8
		        noteL E6,4
		        waitL 8
		        noteL G6,4
		        waitL 8
		        noteL F6,18
		        noteL E6,6
		        note  D6
		        wait
		        noteL A5,4
		        waitL 8
		        noteL D6,12
		        noteL E6,4
		        waitL 8
		        noteL F6,50
		        waitL 10
		        noteL A5,4
		        waitL 8
		        noteL D6,12
		        noteL E6,4
		        waitL 8
		        noteL F6,4
		        waitL 8
		        noteL A6,4
		        waitL 8
		        noteL C7,18
		        noteL B6,6
		        noteL A6,12
		        noteL G6,4
		        waitL 8
		repeatSection1Start
		  inst 26
		  vol 09h
		  stereo 040h
		        noteL G5,3
		        note  A5
		        note  B5
		        note  C6
		        note  D6
		        note  E6
		        note  F6
		        note  G6
		        noteL A6,10
		        waitL 14
		        noteL C6,36
		        noteL B5,12
		        note  C6
		        note  A6
		        noteL G6,65
		        waitL 7
		        noteL E6,24
		        noteL F6,10
		        waitL 14
		        noteL A5,36
		        noteL Gs5,12
		        note  A5
		        note  F6
		        noteL E6,60
		        noteL G5,12
		        note  E6
		        note  Ds6
		        noteL D6,10
		        waitL 14
		        noteL As5,36
		        noteL B5,12
		        note  F6
		        note  E6
		        note  D6
		        note  B5
		        note  C6
		        note  E6
		        noteL A6,24
		        waitL 12
		        note  A6
		        noteL G6,6
		        waitL 30
		        noteL A6,12
		        noteL G6,6
		        waitL 30
		        noteL A6,12
		        noteL G6,6
		        waitL 30
		        noteL A6,12
		        noteL G6,6
		        wait
		  inst 9
		  vol 09h
		  stereo 080h
		        noteL G5,4
		        waitL 8
		        noteL C6,12
		        noteL D6,4
		        waitL 8
		repeatEnd
		repeatSection2Start
		countedLoopStart 9
		        waitL 96
		countedLoopEnd
		  inst 26
		  vol 09h
		  stereo 040h
		        noteL As5,4
		        note  C6
		        note  D6
		        note  E6
		        note  F6
		        note  G6
		        noteL A6,10
		        waitL 14
		        noteL C6,36
		        noteL B5,12
		        note  C6
		        note  A6
		        noteL G6,65
		        waitL 7
		        noteL E6,24
		        noteL F6,10
		        waitL 14
		        noteL A5,36
		        noteL Gs5,12
		        note  A5
		        note  F6
		        noteL E6,60
		        noteL G5,12
		        note  E6
		        note  Ds6
		        noteL D6,10
		        waitL 14
		        noteL As5,36
		        noteL B5,12
		        note  F6
		        note  E6
		        note  D6
		        note  B5
		        note  C6
		        note  E6
		        noteL A6,24
		        waitL 12
		        note  A6
		        noteL G6,6
		        waitL 30
		        noteL A6,12
		        noteL G6,6
		        waitL 30
		        noteL A6,12
		        noteL G6,6
		        waitL 18
		        noteL B5,24
		        noteL C6,6
		        wait
		  inst 9
		  vol 09h
		  stereo 080h
		        noteL G5,4
		        waitL 8
		        noteL C6,12
		        noteL D6,4
		        waitL 8
		mainLoopEnd
Music01_Channel5:
		channel_end
Music01_Channel6:
		  setRelease 00h
		  vibrato 04Ch
		  psgInst 00h
		        waitL    36
		mainLoopStart
		        waitL    12
		  psgInst 01Ah
		        psgNoteL G2,24
		        psgNote  G2
		        psgNote  G2
		        psgNote  G2
		        psgNote  G2
		        psgNote  A2
		        psgNote  A2
		        psgNote  A2
		        psgNote  A2
		        psgNote  A2
		        psgNote  A2
		        psgNote  A2
		        psgNote  A2
		        psgNote  C3
		        psgNoteL C3,12
		        psgNoteL B2,24
		repeatStart
		  psgInst 00h
		        waitL    12
		  psgInst 07Ah
		        psgNote  F3
		        psgNote  A3
		        psgNote  E4
		        psgNoteL D4,48
		        waitL    12
		        psgNote  E3
		        psgNote  G3
		        psgNote  D4
		        psgNoteL Cs4,48
		        waitL    12
		        psgNote  D3
		        psgNote  F3
		        psgNote  C4
		        psgNoteL B3,24
		        psgNoteL C4,12
		        psgNote  D4
		        psgNote  C4
		        psgNoteL B3,4
		        psgNote  C4
		        psgNote  E4
		        psgNoteL A4,24
		        psgNoteL G4,48
		        waitL    12
		        psgNote  E3
		        psgNote  Gs3
		        psgNote  F4
		        psgNoteL E4,24
		        psgNoteL D4,12
		        psgNote  C4
		        psgNote  B3
		        psgNote  Gs3
		        psgNote  A3
		        psgNote  B3
		repeatSection1Start
		        psgNoteL C4,24
		  psgInst 00h
		        waitL    36
		  psgInst 01Ah
		        psgNoteL B3,6
		        psgNote  As3
		        psgNoteL B3,36
		        psgNoteL C4,6
		        psgNote  B3
		        psgNoteL C4,36
		        psgNoteL Cs4,6
		        psgNote  C4
		        psgNoteL Cs4,36
		        psgNoteL D4,6
		        psgNote  C4
		        psgNote  B3
		        psgNote  A3
		        psgNote  G3
		        psgNote  B2
		  psgInst 00h
		        waitL    12
		  psgInst 07Ah
		  setRelease 03h
		        psgNoteL G5,6
		        psgNote  Fs5
		        psgNote  G5
		        wait
		        psgNote  C6
		        wait
		  setRelease 00h
		        psgNoteL G5,3
		        psgNote  A5
		        psgNote  G5
		        psgNote  A5
		        psgNote  G5
		        psgNote  A5
		        psgNote  G5
		        psgNote  A5
		        psgNote  G5
		        psgNote  A5
		        psgNote  G5
		        psgNote  A5
		        psgNote  G5
		        psgNote  A5
		        psgNote  G5
		        wait
		        waitL    6
		        psgNote  G4
		        psgNote  C5
		        psgNote  E5
		        psgNote  A5
		        wait
		        psgNote  G5
		        wait
		        psgNoteL F5,18
		        psgNoteL E5,6
		        psgNote  D5
		        waitL    18
		  psgInst 00h
		        waitL    12
		  psgInst 07Ah
		  setRelease 03h
		        psgNoteL A5,6
		        psgNote  Gs5
		        psgNote  A5
		        wait
		        psgNote  D6
		        wait
		  setRelease 00h
		        psgNoteL A5,3
		        psgNote  B5
		        psgNote  A5
		        psgNote  B5
		        psgNote  A5
		        psgNote  B5
		        psgNote  A5
		        psgNote  B5
		        psgNote  A5
		        psgNote  B5
		        psgNote  A5
		        psgNote  B5
		        psgNote  A5
		        psgNote  B5
		        psgNote  A5
		        wait
		        waitL    6
		        psgNote  A4
		        psgNote  D5
		        psgNote  E5
		        psgNote  Fs5
		        wait
		        psgNote  D5
		        wait
		        psgNoteL C5,12
		        psgNoteL B4,6
		        wait
		        psgNote  G4
		        wait
		  psgInst 07Bh
		        psgNote  G4
		        psgNote  Gs4
		        psgNoteL As4,4
		        waitL    8
		        psgNoteL Ds4,6
		        psgNote  D4
		        psgNoteL Ds4,4
		        waitL    8
		        psgNoteL As4,4
		        waitL    8
		        psgNoteL Gs4,3
		        psgNoteL As4,2
		        psgNoteL Gs4,3
		        psgNoteL As4,2
		        psgNote  Gs4
		        psgNoteL G4,12
		        psgNote  F4
		        psgNote  Ds4
		        psgNoteL D4,3
		        psgNote  Ds4
		        psgNote  D4
		        psgNote  Ds4
		        psgNote  D4
		        psgNote  Ds4
		        psgNote  D4
		        psgNote  Ds4
		        psgNoteL D4,12
		        psgNote  C4
		        psgNoteL As3,6
		        wait
		        psgNoteL As4,8
		        waitL    4
		        psgNoteL As4,12
		        psgNote  B4
		        psgNoteL Cs5,4
		        waitL    8
		        psgNoteL Fs4,6
		        psgNote  F4
		        psgNoteL Fs4,4
		        waitL    8
		        psgNoteL Cs5,4
		        waitL    8
		        psgNoteL B4,3
		        psgNoteL Cs5,2
		        psgNoteL B4,3
		        psgNoteL Cs5,2
		        psgNote  B4
		        psgNoteL As4,12
		        psgNote  Gs4
		        psgNote  Fs4
		        psgNoteL F4,3
		        psgNote  Fs4
		        psgNote  F4
		        psgNote  Fs4
		        psgNoteL F4,12
		        psgNote  Fs4
		        psgNote  Gs4
		        psgNoteL As4,36
		        psgNoteL Gs4,12
		        psgNoteL Fs4,4
		        waitL    8
		        psgNoteL Ds4,6
		        psgNote  D4
		        psgNote  Ds4
		        waitL    18
		  psgInst 00h
		        waitL    12
		  psgInst 07Bh
		        psgNoteL Ds4,6
		        psgNote  D4
		        psgNote  Ds4
		        waitL    18
		  psgInst 00h
		        waitL    12
		  psgInst 07Bh
		        psgNoteL Ds4,6
		        psgNote  D4
		        psgNote  Ds4
		        wait
		        psgNote  Fs4
		        wait
		        psgNote  As3
		        waitL    18
		        psgNoteL As4,3
		        psgNote  B4
		        psgNote  As4
		        psgNote  B4
		        psgNote  As4
		        psgNote  B4
		        psgNoteL As4,6
		  psgInst 00h
		        waitL    12
		  psgInst 07Bh
		        psgNoteL Gs4,6
		        psgNote  G4
		        psgNote  Gs4
		        waitL    18
		  psgInst 00h
		        waitL    12
		  psgInst 07Bh
		        psgNoteL Gs4,6
		        psgNote  G4
		        psgNote  Gs4
		        waitL    18
		  psgInst 00h
		        waitL    12
		  psgInst 07Bh
		        psgNoteL Gs4,6
		        psgNote  G4
		        psgNote  Gs4
		        wait
		        psgNote  B4
		        wait
		        psgNoteL Gs5,12
		        psgNoteL Fs5,4
		        psgNote  Gs5
		        psgNote  Fs5
		        psgNoteL F5,12
		        psgNote  Ds5
		        psgNoteL B4,6
		        psgNote  Cs5
		        psgNote  F5
		        psgNote  Gs5
		        psgNote  Fs5
		        psgNote  E5
		        psgNote  Cs5
		        psgNote  As4
		        psgNote  A4
		        psgNote  B4
		        psgNote  Ds5
		        psgNote  Fs5
		        psgNote  E5
		        psgNote  D5
		        psgNote  B4
		        psgNote  Gs4
		        psgNote  G4
		        psgNote  A4
		        psgNote  Cs5
		        psgNote  E5
		        psgNote  D5
		        psgNote  C5
		        psgNote  A4
		        psgNote  Fs4
		        psgNoteL F4,4
		        psgNote  Fs4
		        psgNote  G4
		        psgNote  As4
		        psgNote  B4
		        psgNote  D5
		        psgNoteL C5,3
		        psgNote  D5
		        psgNote  C5
		        psgNote  D5
		        psgNote  C5
		        psgNote  D5
		        psgNote  C5
		        wait
		repeatEnd
		repeatSection2Start
		        psgNoteL C4,24
		        waitL    12
		        psgNote  A4
		        psgNoteL G4,6
		        waitL    12
		  psgInst 00h
		        waitL    18
		  psgInst 07Bh
		        psgNoteL A4,12
		        psgNoteL G4,6
		        waitL    12
		  psgInst 00h
		        waitL    18
		  psgInst 07Bh
		        psgNoteL A4,12
		        psgNoteL G4,6
		        waitL    18
		        psgNoteL G4,3
		        psgNote  A4
		        psgNote  G4
		        psgNote  A4
		        psgNoteL G4,2
		        psgNoteL A4,3
		        psgNoteL G4,2
		        psgNoteL Fs4,3
		        psgNoteL G4,2
		        psgNoteL C5,6
		        waitL    12
		  psgInst 00h
		        waitL    30
		mainLoopEnd
Music01_Channel7:
		  setRelease 00h
		  vibrato 04Ch
		  psgInst 00h
		        waitL    42
		mainLoopStart
		        waitL    6
		  psgInst 01Ah
		        psgNoteL E3,24
		        psgNote  E3
		        psgNote  E3
		        psgNote  E3
		        psgNote  E3
		        psgNote  E3
		        psgNote  F3
		        psgNote  F3
		        psgNote  F3
		        psgNote  F3
		        psgNote  F3
		        psgNote  F3
		        psgNote  F3
		        psgNote  Fs3
		        psgNoteL G3,12
		        psgNoteL G3,24
		        waitL    6
		repeatStart
		  psgInst 00h
		        waitL    12
		  psgInst 078h
		        psgNote  F3
		        psgNote  A3
		        psgNote  E4
		        psgNoteL D4,48
		        waitL    12
		        psgNote  E3
		        psgNote  G3
		        psgNote  D4
		        psgNoteL Cs4,48
		        waitL    12
		        psgNote  D3
		        psgNote  F3
		        psgNote  C4
		        psgNoteL B3,24
		        psgNoteL C4,12
		        psgNote  D4
		        psgNote  C4
		        psgNoteL B3,4
		        psgNote  C4
		        psgNote  E4
		        psgNoteL A4,24
		        psgNoteL G4,48
		        waitL    12
		        psgNote  E3
		        psgNote  Gs3
		        psgNote  F4
		        psgNoteL E4,24
		        psgNoteL D4,12
		        psgNote  C4
		        psgNote  B3
		        psgNote  Gs3
		        psgNote  A3
		        psgNote  B3
		repeatSection1Start
		        psgNoteL C4,24
		  psgInst 00h
		        waitL    30
		  psgInst 01Ah
		        psgNoteL D4,6
		        psgNote  Cs4
		        psgNoteL D4,36
		        psgNoteL Ds4,6
		        psgNote  D4
		        psgNoteL Ds4,36
		        psgNoteL E4,6
		        psgNote  Ds4
		        psgNoteL E4,36
		        psgNoteL F4,6
		        psgNote  E4
		        psgNote  D4
		        psgNote  C4
		        psgNote  A3
		        psgNote  G3
		  psgInst 00h
		        waitL    18
		  psgInst 078h
		  setRelease 03h
		        psgNoteL G5,6
		        psgNote  Fs5
		        psgNote  G5
		        wait
		        psgNote  C6
		        wait
		  setRelease 00h
		        psgNoteL G5,3
		        psgNote  A5
		        psgNote  G5
		        psgNote  A5
		        psgNote  G5
		        psgNote  A5
		        psgNote  G5
		        psgNote  A5
		        psgNote  G5
		        psgNote  A5
		        psgNote  G5
		        psgNote  A5
		        psgNote  G5
		        psgNote  A5
		        psgNote  G5
		        wait
		        waitL    6
		        psgNote  G4
		        psgNote  C5
		        psgNote  E5
		        psgNote  A5
		        wait
		        psgNote  G5
		        wait
		        psgNoteL F5,18
		        psgNoteL E5,6
		        psgNote  D5
		        waitL    18
		  psgInst 00h
		        waitL    12
		  psgInst 078h
		  setRelease 03h
		        psgNoteL A5,6
		        psgNote  Gs5
		        psgNote  A5
		        wait
		        psgNote  D6
		        wait
		  setRelease 00h
		        psgNoteL A5,3
		        psgNote  B5
		        psgNote  A5
		        psgNote  B5
		        psgNote  A5
		        psgNote  B5
		        psgNote  A5
		        psgNote  B5
		        psgNote  A5
		        psgNote  B5
		        psgNote  A5
		        psgNote  B5
		        psgNote  A5
		        psgNote  B5
		        psgNote  A5
		        wait
		        waitL    6
		        psgNote  A4
		        psgNote  D5
		        psgNote  E5
		        psgNote  Fs5
		        wait
		        psgNote  D5
		        wait
		        psgNoteL C5,12
		        psgNoteL B4,6
		        wait
		        psgNote  G4
		        wait
		  psgInst 079h
		        psgNote  G4
		        psgNote  Gs4
		        psgNoteL As4,4
		        waitL    8
		        psgNoteL Ds4,6
		        psgNote  D4
		        psgNoteL Ds4,4
		        waitL    8
		        psgNoteL As4,4
		        waitL    8
		        psgNoteL Gs4,3
		        psgNoteL As4,2
		        psgNoteL Gs4,3
		        psgNoteL As4,2
		        psgNote  Gs4
		        psgNoteL G4,12
		        psgNote  F4
		        psgNote  Ds4
		        psgNoteL D4,3
		        psgNote  Ds4
		        psgNote  D4
		        psgNote  Ds4
		        psgNote  D4
		        psgNote  Ds4
		        psgNote  D4
		        psgNote  Ds4
		        psgNoteL D4,12
		        psgNote  C4
		        psgNoteL As3,6
		        wait
		        psgNoteL As4,8
		        waitL    4
		        psgNoteL As4,12
		        psgNote  B4
		        psgNoteL Cs5,4
		        waitL    8
		        psgNoteL Fs4,6
		        psgNote  F4
		        psgNoteL Fs4,4
		        waitL    8
		        psgNoteL Cs5,4
		        waitL    8
		        psgNoteL B4,3
		        psgNoteL Cs5,2
		        psgNoteL B4,3
		        psgNoteL Cs5,2
		        psgNote  B4
		        psgNoteL As4,12
		        psgNote  Gs4
		        psgNote  Fs4
		        psgNoteL F4,3
		        psgNote  Fs4
		        psgNote  F4
		        psgNote  Fs4
		        psgNoteL F4,12
		        psgNote  Fs4
		        psgNote  Gs4
		        psgNoteL As4,36
		        psgNoteL Gs4,12
		        psgNoteL Fs4,4
		        waitL    8
		        psgNoteL Ds4,6
		        psgNote  D4
		        psgNote  Ds4
		        waitL    18
		  psgInst 00h
		        waitL    12
		  psgInst 079h
		        psgNoteL Ds4,6
		        psgNote  D4
		        psgNote  Ds4
		        waitL    18
		  psgInst 00h
		        waitL    12
		  psgInst 079h
		        psgNoteL Ds4,6
		        psgNote  D4
		        psgNote  Ds4
		        wait
		        psgNote  Fs4
		        wait
		        psgNote  As3
		        waitL    18
		        psgNoteL As4,3
		        psgNote  B4
		        psgNote  As4
		        psgNote  B4
		        psgNote  As4
		        psgNote  B4
		        psgNoteL As4,6
		  psgInst 00h
		        waitL    12
		  psgInst 079h
		        psgNoteL Gs4,6
		        psgNote  G4
		        psgNote  Gs4
		        waitL    18
		  psgInst 00h
		        waitL    12
		  psgInst 079h
		        psgNoteL Gs4,6
		        psgNote  G4
		        psgNote  Gs4
		        waitL    18
		  psgInst 00h
		        waitL    12
		  psgInst 079h
		        psgNoteL Gs4,6
		        psgNote  G4
		        psgNote  Gs4
		        wait
		        psgNote  B4
		        wait
		        psgNoteL Gs5,12
		        psgNoteL Fs5,4
		        psgNote  Gs5
		        psgNote  Fs5
		        psgNoteL F5,12
		        psgNote  Ds5
		        psgNoteL B4,6
		        psgNote  Cs5
		        psgNote  F5
		        psgNote  Gs5
		        psgNote  Fs5
		        psgNote  E5
		        psgNote  Cs5
		        psgNote  As4
		        psgNote  A4
		        psgNote  B4
		        psgNote  Ds5
		        psgNote  Fs5
		        psgNote  E5
		        psgNote  D5
		        psgNote  B4
		        psgNote  Gs4
		        psgNote  G4
		        psgNote  A4
		        psgNote  Cs5
		        psgNote  E5
		        psgNote  D5
		        psgNote  C5
		        psgNote  A4
		        psgNote  Fs4
		        psgNoteL F4,4
		        psgNote  Fs4
		        psgNote  G4
		        psgNote  As4
		        psgNote  B4
		        psgNote  D5
		        psgNoteL C5,3
		        psgNote  D5
		        psgNote  C5
		        psgNote  D5
		        psgNote  C5
		        psgNote  D5
		        psgNote  C5
		        wait
		repeatEnd
		repeatSection2Start
		        psgNoteL C4,24
		        waitL    12
		        psgNote  A4
		        psgNoteL G4,6
		        waitL    12
		  psgInst 00h
		        waitL    18
		  psgInst 079h
		        psgNoteL A4,12
		        psgNoteL G4,6
		        waitL    12
		  psgInst 00h
		        waitL    18
		  psgInst 079h
		        psgNoteL A4,12
		        psgNoteL G4,6
		        waitL    18
		        psgNoteL G4,3
		        psgNote  A4
		        psgNote  G4
		        psgNote  A4
		        psgNoteL G4,2
		        psgNoteL A4,3
		        psgNoteL G4,2
		        psgNoteL Fs4,3
		        psgNoteL G4,2
		        psgNoteL C5,6
		        waitL    12
		  psgInst 00h
		        waitL    30
		mainLoopEnd
Music01_Channel9:
		channel_end
