
; ASM FILE music42.asm :
; 0xCFFB..0xD7CC : Music 42
Music42:        db 0
		db 0
		db 0
		db 0C7h
		dw Music42_Channel0
		dw Music42_Channel1
		dw Music42_Channel2
		dw Music42_Channel3
		dw Music42_Channel4
		dw Music42_Channel5
		dw Music42_Channel6
		dw Music42_Channel7
		dw Music42_Channel9
		dw Music42_Channel9
Music42_Channel0:
		mainLoopStart
		  inst 17
		  vol 0Dh
		  setRelease 01h
		  vibrato 050h
		  stereo 0C0h
		        noteL E7,12
		  sustain
		        noteL E7,180
		  setRelease 01h
		        noteL E7,144
		        noteL D7,12
		        noteL D7,36
		        noteL G7,12
		  sustain
		        noteL G7,180
		  setRelease 01h
		        noteL G7,192
		        noteL D7,12
		  sustain
		        noteL D7,180
		  setRelease 01h
		        noteL D7,144
		        noteL C7,12
		        noteL C7,36
		        noteL Ds7,12
		  sustain
		        noteL Ds7,180
		        noteL Ds7,192
		  setRelease 01h
		        noteL Ds7,96
		        wait
		  vibrato 02Ch
		  inst 8
		  vol 0Bh
		        noteL As5,48
		        note  F5
		        note  E5
		        note  Cs5
		        noteL D5,49
		  sustain
		  setSlide 08h
		  vibrato 020h
		        noteL Cs6,143
		        noteL Cs6,192
		        noteL Cs6,106
		        noteL Cs6,96
		  vol 0Ah
		        noteL Cs6,48
		  vol 09h
		        noteL Cs6,24
		  vol 08h
		        noteL Cs6,12
		  vol 07h
		        noteL Cs6,6
		  vol 06h
		        noteL Cs6,2
		  vol 05h
		        note  Cs6
		  vol 04h
		  setRelease 01h
		        note  Cs6
		  vibrato 02Ch
		        waitL 48
		  noSlide
		  inst 36
		  vol 0Bh
		        noteL G4,90
		        noteL Fs4,44
		        noteL F4,38
		        noteL Cs4,26
		        noteL D4,24
		        noteL As3,22
		        noteL B3,20
		        noteL G3,24
		  sustain
		        noteL Fs3,41
		  setSlide 04h
		  setRelease 01h
		        noteL F3,79
		        waitL 168
		  noSlide
		        waitL 50
		        noteL As4,90
		        noteL A4,44
		        noteL Gs4,38
		        noteL E4,26
		        noteL F4,24
		        noteL C4,22
		        noteL Cs4,20
		        noteL A3,24
		  sustain
		        noteL As3,41
		  setRelease 01h
		  setSlide 05h
		        noteL B3,79
		        waitL 192
		        waitL 168
		  noSlide
		mainLoopEnd
Music42_Channel1:
		mainLoopStart
		  inst 6
		  setRelease 01h
		  vibrato 02Ch
		  stereo 080h
		  vol 0Bh
		        noteL Gs5,6
		        note  F6
		        note  B6
		        note  G7
		        waitL 24
		  vol 09h
		        noteL Gs5,6
		        note  F6
		        note  B6
		        note  G7
		        waitL 24
		  vol 07h
		        noteL Gs5,6
		        note  F6
		        note  B6
		        note  G7
		        waitL 24
		  vol 05h
		        noteL Gs5,6
		        note  F6
		        note  B6
		        note  G7
		        waitL 24
		  vol 03h
		        noteL Gs5,6
		        note  F6
		        note  B6
		        note  G7
		        waitL 24
		  vol 01h
		        noteL Gs5,6
		        note  F6
		        note  B6
		        note  G7
		        waitL 120
		  vol 0Bh
		        noteL E5,6
		        note  Cs6
		        note  B6
		        note  As7
		        waitL 24
		  vol 09h
		        noteL E5,6
		        note  Cs6
		        note  B6
		        note  As7
		        waitL 24
		  vol 07h
		        noteL E5,6
		        note  Cs6
		        note  B6
		        note  As7
		        waitL 24
		  vol 05h
		        noteL E5,6
		        note  Cs6
		        note  B6
		        note  As7
		        waitL 24
		  vol 03h
		        noteL E5,6
		        note  Cs6
		        note  B6
		        note  As7
		        waitL 24
		  vol 01h
		        noteL E5,6
		        note  Cs6
		        note  B6
		        note  As7
		        waitL 120
		  vol 0Bh
		        noteL Ds5,6
		        note  D6
		        note  As6
		        note  G7
		        waitL 24
		  vol 09h
		        noteL Ds5,6
		        note  D6
		        note  As6
		        note  G7
		        waitL 24
		  vol 07h
		        noteL Ds5,6
		        note  D6
		        note  As6
		        note  G7
		        waitL 24
		  vol 05h
		        noteL Ds5,6
		        note  D6
		        note  As6
		        note  G7
		        waitL 24
		  vol 03h
		        noteL Ds5,6
		        note  D6
		        note  As6
		        note  G7
		        waitL 24
		  vol 01h
		        noteL Ds5,6
		        note  D6
		        note  As6
		        note  G7
		        waitL 120
		  vol 0Bh
		        noteL Cs5,6
		        note  B5
		        note  Gs6
		        note  As7
		        waitL 24
		  vol 09h
		        noteL Cs5,6
		        note  B5
		        note  Gs6
		        note  As7
		        waitL 24
		  vol 07h
		        noteL Cs5,6
		        note  B5
		        note  Gs6
		        note  As7
		        waitL 24
		  vol 05h
		        noteL Cs5,6
		        note  B5
		        note  Gs6
		        note  As7
		        waitL 24
		  vol 03h
		        noteL Cs5,6
		        note  B5
		        note  Gs6
		        note  As7
		        waitL 24
		  vol 01h
		        noteL Cs5,6
		        note  B5
		        note  Gs6
		        note  As7
		        waitL 216
		  inst 50
		  vol 0Ah
		  stereo 0C0h
		  sustain
		        noteL A4,75
		  setSlide 04h
		  setRelease 01h
		        noteL B4,213
		  noSlide
		  vol 09h
		  sustain
		        noteL As4,192
		  setRelease 01h
		        noteL As4,168
		        waitL 72
		  stereo 080h
		  setRelease 00h
		  inst 55
		  vol 09h
		        noteL A4,20
		        noteL As4,16
		        noteL A4,12
		        noteL As4,11
		        noteL A4,9
		        noteL As4,8
		        note  A4
		        noteL As4,6
		        note  A4
		        noteL As4,5
		        note  A4
		countedLoopStart 17
		        noteL As4,4
		        note  A4
		        note  As4
		        note  A4
		        note  As4
		        note  A4
		        note  As4
		        note  A4
		countedLoopEnd
		        noteL As4,4
		        note  A4
		        note  As4
		        note  A4
		        note  As4
		        note  A4
		        note  As4
		        note  A4
		  vol 08h
		        note  As4
		        note  A4
		        note  As4
		        note  A4
		  vol 07h
		        note  As4
		        note  A4
		        note  As4
		        note  A4
		  vol 06h
		        note  As4
		        note  A4
		        note  As4
		        note  A4
		  vol 05h
		        note  As4
		        note  A4
		        note  As4
		        note  A4
		  vol 04h
		        note  As4
		        note  A4
		        note  As4
		        note  A4
		  vol 03h
		        note  As4
		        note  A4
		        note  As4
		        note  A4
		  vol 02h
		        note  As4
		        note  A4
		        note  As4
		        note  A4
		  vol 01h
		        note  As4
		        note  A4
		        note  As4
		        note  A4
		  vol 00h
		        note  As4
		        note  A4
		        note  As4
		        note  A4
		  vol 00h
		        note  As4
		        note  A4
		        note  As4
		        note  A4
		  vol 09h
		        noteL C5,20
		        noteL Cs5,16
		        noteL C5,12
		        noteL Cs5,11
		        noteL C5,9
		        noteL Cs5,8
		        note  C5
		        noteL Cs5,6
		        note  C5
		        noteL Cs5,5
		        note  C5
		        noteL Cs5,4
		        note  C5
		countedLoopStart 19
		        noteL Cs5,4
		        note  C5
		        note  Cs5
		        note  C5
		countedLoopEnd
		        noteL Cs5,4
		        note  C5
		        note  Cs5
		        note  C5
		        note  Cs5
		        note  C5
		        note  Cs5
		        note  C5
		  vol 08h
		        note  Cs5
		        note  C5
		        note  Cs5
		        note  C5
		  vol 07h
		        note  Cs5
		        note  C5
		        note  Cs5
		        note  C5
		  vol 06h
		        note  Cs5
		        note  C5
		        note  Cs5
		        note  C5
		  vol 05h
		        note  Cs5
		        note  C5
		        note  Cs5
		        note  C5
		  vol 04h
		        note  Cs5
		        note  C5
		        note  Cs5
		        note  C5
		  vol 03h
		        note  Cs5
		        note  C5
		        note  Cs5
		        note  C5
		  vol 02h
		        note  Cs5
		        note  C5
		        note  Cs5
		        note  C5
		  vol 01h
		        note  Cs5
		        note  C5
		        note  Cs5
		        note  C5
		  vol 00h
		        note  Cs5
		        note  C5
		        note  Cs5
		        note  C5
		  vol 00h
		        note  Cs5
		        note  C5
		        note  Cs5
		        note  C5
		        waitL 192
		mainLoopEnd
Music42_Channel2:
		mainLoopStart
		        waitL 24
		  inst 6
		  setRelease 01h
		  vibrato 02Ch
		  stereo 040h
		  vol 0Ah
		        noteL Gs5,6
		        note  F6
		        note  B6
		        note  G7
		        waitL 24
		  vol 08h
		        noteL Gs5,6
		        note  F6
		        note  B6
		        note  G7
		        waitL 24
		  vol 06h
		        noteL Gs5,6
		        note  F6
		        note  B6
		        note  G7
		        waitL 24
		  vol 04h
		        noteL Gs5,6
		        note  F6
		        note  B6
		        note  G7
		        waitL 24
		  vol 02h
		        noteL Gs5,6
		        note  F6
		        note  B6
		        note  G7
		        waitL 24
		  vol 00h
		        noteL Gs5,6
		        note  F6
		        note  B6
		        note  G7
		        waitL 120
		  vol 0Ah
		        noteL E5,6
		        note  Cs6
		        note  B6
		        note  As7
		        waitL 24
		  vol 08h
		        noteL E5,6
		        note  Cs6
		        note  B6
		        note  As7
		        waitL 24
		  vol 06h
		        noteL E5,6
		        note  Cs6
		        note  B6
		        note  As7
		        waitL 24
		  vol 04h
		        noteL E5,6
		        note  Cs6
		        note  B6
		        note  As7
		        waitL 24
		  vol 02h
		        noteL E5,6
		        note  Cs6
		        note  B6
		        note  As7
		        waitL 24
		  vol 00h
		        noteL E5,6
		        note  Cs6
		        note  B6
		        note  As7
		        waitL 120
		  vol 0Ah
		        noteL Ds5,6
		        note  D6
		        note  As6
		        note  G7
		        waitL 24
		  vol 08h
		        noteL Ds5,6
		        note  D6
		        note  As6
		        note  G7
		        waitL 24
		  vol 06h
		        noteL Ds5,6
		        note  D6
		        note  As6
		        note  G7
		        waitL 24
		  vol 04h
		        noteL Ds5,6
		        note  D6
		        note  As6
		        note  G7
		        waitL 24
		  vol 02h
		        noteL Ds5,6
		        note  D6
		        note  As6
		        note  G7
		        waitL 24
		  vol 00h
		        noteL Ds5,6
		        note  D6
		        note  As6
		        note  G7
		        waitL 120
		  vol 0Ah
		        noteL Cs5,6
		        note  B5
		        note  Gs6
		        note  As7
		        waitL 24
		  vol 08h
		        noteL Cs5,6
		        note  B5
		        note  Gs6
		        note  As7
		        waitL 24
		  vol 06h
		        noteL Cs5,6
		        note  B5
		        note  Gs6
		        note  As7
		        waitL 24
		  vol 04h
		        noteL Cs5,6
		        note  B5
		        note  Gs6
		        note  As7
		        waitL 24
		  vol 02h
		        noteL Cs5,6
		        note  B5
		        note  Gs6
		        note  As7
		        waitL 24
		  vol 00h
		        noteL Cs5,6
		        note  B5
		        note  Gs6
		        note  As7
		        waitL 192
		  inst 50
		  vol 0Ah
		  stereo 0C0h
		  sustain
		        noteL Ds4,75
		  setSlide 04h
		  setRelease 01h
		        noteL F4,213
		  noSlide
		  vol 09h
		  sustain
		        noteL B3,192
		  setRelease 01h
		        noteL B3,168
		        waitL 24
		        waitL 50
		  stereo 040h
		  setRelease 00h
		  inst 55
		  vol 09h
		        noteL A4,20
		        noteL As4,16
		        noteL A4,12
		        noteL As4,11
		        noteL A4,9
		        noteL As4,8
		        note  A4
		        noteL As4,6
		        note  A4
		        noteL As4,5
		        note  A4
		countedLoopStart 17
		        noteL As4,4
		        note  A4
		        note  As4
		        note  A4
		        note  As4
		        note  A4
		        note  As4
		        note  A4
		countedLoopEnd
		        noteL As4,4
		        note  A4
		        note  As4
		        note  A4
		        note  As4
		        note  A4
		        note  As4
		        note  A4
		  vol 08h
		        note  As4
		        note  A4
		        note  As4
		        note  A4
		  vol 07h
		        note  As4
		        note  A4
		        note  As4
		        note  A4
		  vol 06h
		        note  As4
		        note  A4
		        note  As4
		        note  A4
		  vol 05h
		        note  As4
		        note  A4
		        note  As4
		        note  A4
		  vol 04h
		        note  As4
		        note  A4
		        note  As4
		        note  A4
		  vol 03h
		        note  As4
		        note  A4
		        note  As4
		        note  A4
		  vol 02h
		        note  As4
		        note  A4
		        note  As4
		        note  A4
		  vol 01h
		        note  As4
		        note  A4
		        note  As4
		        note  A4
		  vol 00h
		        note  As4
		        note  A4
		        note  As4
		        note  A4
		  vol 00h
		        note  As4
		        note  A4
		        note  As4
		        note  A4
		  vol 09h
		        noteL C5,20
		        noteL Cs5,16
		        noteL C5,12
		        noteL Cs5,11
		        noteL C5,9
		        noteL Cs5,8
		        note  C5
		        noteL Cs5,6
		        note  C5
		        noteL Cs5,5
		        note  C5
		        noteL Cs5,4
		        note  C5
		countedLoopStart 19
		        noteL Cs5,4
		        note  C5
		        note  Cs5
		        note  C5
		countedLoopEnd
		        noteL Cs5,4
		        note  C5
		        note  Cs5
		        note  C5
		        note  Cs5
		        note  C5
		        note  Cs5
		        note  C5
		  vol 08h
		        note  Cs5
		        note  C5
		        note  Cs5
		        note  C5
		  vol 07h
		        note  Cs5
		        note  C5
		        note  Cs5
		        note  C5
		  vol 06h
		        note  Cs5
		        note  C5
		        note  Cs5
		        note  C5
		  vol 05h
		        note  Cs5
		        note  C5
		        note  Cs5
		        note  C5
		  vol 04h
		        note  Cs5
		        note  C5
		        note  Cs5
		        note  C5
		  vol 03h
		        note  Cs5
		        note  C5
		        note  Cs5
		        note  C5
		  vol 02h
		        note  Cs5
		        note  C5
		        note  Cs5
		        note  C5
		  vol 01h
		        note  Cs5
		        note  C5
		        note  Cs5
		        note  C5
		  vol 00h
		        note  Cs5
		        note  C5
		        note  Cs5
		        note  C5
		  vol 00h
		        note  Cs5
		        note  C5
		        note  Cs5
		        note  C5
		        waitL 190
		mainLoopEnd
Music42_Channel3:
		mainLoopStart
		        waitL 6
		  inst 17
		  shifting 020h
		  vol 0Bh
		  setRelease 01h
		  vibrato 050h
		        noteL E7,12
		  sustain
		        noteL E7,180
		  setRelease 01h
		        noteL E7,144
		        noteL D7,12
		        noteL D7,36
		        noteL G7,12
		  sustain
		        noteL G7,180
		  setRelease 01h
		        noteL G7,192
		        noteL D7,12
		  sustain
		        noteL D7,180
		  setRelease 01h
		        noteL D7,144
		        noteL C7,12
		        noteL C7,36
		        noteL Ds7,12
		  sustain
		        noteL Ds7,180
		        noteL Ds7,186
		  setRelease 01h
		        noteL Ds7,96
		  vibrato 02Ch
		  inst 50
		  vol 0Ah
		  shifting 00h
		  stereo 0C0h
		  sustain
		        noteL F3,75
		  setSlide 04h
		  setRelease 01h
		        noteL G3,213
		  noSlide
		  vol 09h
		  sustain
		        noteL E3,192
		  setRelease 01h
		        noteL E3,168
		        waitL 24
		        waitL 106
		        waitL 254
		  inst 36
		  vol 08h
		        noteL G4,90
		        noteL Fs4,44
		        noteL F4,38
		        noteL Cs4,26
		        noteL D4,24
		        noteL As3,22
		        noteL B3,20
		        noteL G3,24
		  sustain
		        noteL Fs3,41
		  setSlide 04h
		  setRelease 01h
		        noteL F3,79
		        waitL 168
		  noSlide
		        waitL 50
		        noteL As4,90
		        noteL A4,44
		        noteL Gs4,38
		        noteL E4,26
		        noteL F4,24
		        noteL C4,22
		        noteL Cs4,20
		        noteL A3,24
		  sustain
		        noteL As3,41
		  setRelease 01h
		  setSlide 05h
		        noteL B3,79
		        waitL 192
		        waitL 154
		  noSlide
		mainLoopEnd
Music42_Channel4:
		mainLoopStart
		countedLoopStart 3
		        waitL 192
		  setRelease 01h
		  vibrato 00h
		  inst 61
		  vol 0Dh
		        noteL A5,8
		  vol 0Bh
		        note  A5
		  vol 09h
		        note  A5
		  vol 0Ch
		        note  A5
		  vol 0Ah
		        note  A5
		  vol 08h
		        note  A5
		  vol 0Bh
		        note  A5
		  vol 09h
		        note  A5
		  vol 07h
		        note  A5
		  vol 0Ah
		        note  A5
		  vol 08h
		        note  A5
		  vol 06h
		        note  A5
		  vol 09h
		        note  A5
		  vol 07h
		        note  A5
		  vol 05h
		        note  A5
		  vol 08h
		        note  A5
		  vol 06h
		        note  A5
		  vol 04h
		        note  A5
		  vol 07h
		        note  A5
		  vol 05h
		        note  A5
		  vol 03h
		        note  A5
		  vol 06h
		        note  A5
		        waitL 16
		countedLoopEnd
		        waitL 96
		  inst 62
		  vol 06h
		        noteL A5,6
		        note  A5
		  vol 07h
		        note  A5
		        note  A5
		  vol 08h
		        note  A5
		        note  A5
		  vol 09h
		        note  A5
		        note  A5
		  vol 0Ah
		        note  A5
		        note  A5
		  vol 0Bh
		        note  A5
		        note  A5
		  vol 0Ch
		        note  A5
		        note  A5
		  vol 0Dh
		        note  A5
		        note  A5
		  inst 62
		  vol 0Bh
		        noteL As3,192
		        wait
		  inst 61
		  vol 0Dh
		        noteL A5,8
		  vol 0Bh
		        note  A5
		  vol 09h
		        note  A5
		  vol 0Ch
		        note  A5
		  vol 0Ah
		        note  A5
		  vol 08h
		        note  A5
		  vol 0Bh
		        note  A5
		  vol 09h
		        note  A5
		  vol 07h
		        note  A5
		  vol 0Ah
		        note  A5
		  vol 08h
		        note  A5
		  vol 06h
		        note  A5
		  vol 09h
		        note  A5
		  vol 07h
		        note  A5
		  vol 05h
		        note  A5
		  vol 08h
		        note  A5
		  vol 06h
		        note  A5
		  vol 04h
		        note  A5
		  vol 07h
		        note  A5
		  vol 05h
		        note  A5
		  vol 03h
		        note  A5
		  vol 06h
		        note  A5
		        waitL 122
		        waitL 192
		        waitL 220
		        waitL 212
		repeatStart
		  inst 61
		  vol 0Dh
		        noteL A5,8
		  vol 0Bh
		        note  A5
		  vol 09h
		        note  A5
		  vol 0Ch
		        note  A5
		  vol 0Ah
		        note  A5
		  vol 08h
		        note  A5
		  vol 0Bh
		        note  A5
		  vol 09h
		        note  A5
		  vol 07h
		        note  A5
		  vol 0Ah
		        note  A5
		  vol 08h
		        note  A5
		  vol 06h
		        note  A5
		  vol 09h
		        note  A5
		  vol 07h
		        note  A5
		  vol 05h
		        note  A5
		  vol 08h
		        note  A5
		  vol 06h
		        note  A5
		  vol 04h
		        note  A5
		  vol 07h
		        note  A5
		  vol 05h
		        note  A5
		  vol 03h
		        note  A5
		  vol 06h
		        note  A5
		        waitL 16
		repeatSection1Start
		        waitL 220
		        waitL 214
		repeatEnd
		repeatSection2Start
		  vol 0Dh
		        noteL A5,6
		  vol 0Bh
		        note  A5
		  vol 09h
		        note  A5
		  vol 0Ch
		        noteL A5,30
		  vol 0Dh
		        noteL A5,6
		  vol 0Bh
		        note  A5
		  vol 09h
		        note  A5
		  vol 0Ch
		        noteL A5,78
		  inst 62
		  vol 09h
		        noteL As3,48
		mainLoopEnd
Music42_Channel5:
		channel_end
Music42_Channel6:
		mainLoopStart
		  vibrato 00h
		  setRelease 00h
		  psgInst 01Bh
		        psgNoteL Gs3,6
		        psgNote  F4
		        psgNote  B4
		        psgNote  G5
		  psgInst 01Ah
		        psgNote  Gs3
		        psgNote  F4
		        psgNote  B4
		        psgNote  G5
		  psgInst 019h
		        psgNote  Gs3
		        psgNote  F4
		        psgNote  B4
		        psgNote  G5
		  psgInst 018h
		        psgNote  Gs3
		        psgNote  F4
		        psgNote  B4
		        psgNote  G5
		  psgInst 017h
		        psgNote  Gs3
		        psgNote  F4
		        psgNote  B4
		        psgNote  G5
		  psgInst 016h
		        psgNote  Gs3
		        psgNote  F4
		        psgNote  B4
		        psgNote  G5
		  psgInst 015h
		        psgNote  Gs3
		        psgNote  F4
		        psgNote  B4
		        psgNote  G5
		  psgInst 014h
		        psgNote  Gs3
		        psgNote  F4
		        psgNote  B4
		        psgNote  G5
		  psgInst 013h
		        psgNote  Gs3
		        psgNote  F4
		        psgNote  B4
		        psgNote  G5
		  psgInst 012h
		        psgNote  Gs3
		        psgNote  F4
		        psgNote  B4
		        psgNote  G5
		  psgInst 011h
		        psgNote  Gs3
		        psgNote  F4
		        psgNote  B4
		        psgNote  G5
		  psgInst 010h
		        psgNote  Gs3
		        psgNote  F4
		        psgNote  B4
		        psgNote  G5
		  psgInst 00h
		        waitL    96
		  psgInst 01Bh
		        psgNoteL E3,6
		        psgNote  Cs4
		        psgNote  B4
		        psgNote  As5
		  psgInst 01Ah
		        psgNote  E3
		        psgNote  Cs4
		        psgNote  B4
		        psgNote  As5
		  psgInst 019h
		        psgNote  E3
		        psgNote  Cs4
		        psgNote  B4
		        psgNote  As5
		  psgInst 018h
		        psgNote  E3
		        psgNote  Cs4
		        psgNote  B4
		        psgNote  As5
		  psgInst 017h
		        psgNote  E3
		        psgNote  Cs4
		        psgNote  B4
		        psgNote  As5
		  psgInst 016h
		        psgNote  E3
		        psgNote  Cs4
		        psgNote  B4
		        psgNote  As5
		  psgInst 015h
		        psgNote  E3
		        psgNote  Cs4
		        psgNote  B4
		        psgNote  As5
		  psgInst 014h
		        psgNote  E3
		        psgNote  Cs4
		        psgNote  B4
		        psgNote  As5
		  psgInst 013h
		        psgNote  E3
		        psgNote  Cs4
		        psgNote  B4
		        psgNote  As5
		  psgInst 012h
		        psgNote  E3
		        psgNote  Cs4
		        psgNote  B4
		        psgNote  As5
		  psgInst 011h
		        psgNote  E3
		        psgNote  Cs4
		        psgNote  B4
		        psgNote  As5
		  psgInst 010h
		        psgNote  E3
		        psgNote  Cs4
		        psgNote  B4
		        psgNote  As5
		  psgInst 00h
		        waitL    96
		  psgInst 01Bh
		        psgNoteL Ds3,6
		        psgNote  D4
		        psgNote  As4
		        psgNote  G5
		  psgInst 01Ah
		        psgNote  Ds3
		        psgNote  D4
		        psgNote  As4
		        psgNote  G5
		  psgInst 019h
		        psgNote  Ds3
		        psgNote  D4
		        psgNote  As4
		        psgNote  G5
		  psgInst 018h
		        psgNote  Ds3
		        psgNote  D4
		        psgNote  As4
		        psgNote  G5
		  psgInst 017h
		        psgNote  Ds3
		        psgNote  D4
		        psgNote  As4
		        psgNote  G5
		  psgInst 016h
		        psgNote  Ds3
		        psgNote  D4
		        psgNote  As4
		        psgNote  G5
		  psgInst 015h
		        psgNote  Ds3
		        psgNote  D4
		        psgNote  As4
		        psgNote  G5
		  psgInst 014h
		        psgNote  Ds3
		        psgNote  D4
		        psgNote  As4
		        psgNote  G5
		  psgInst 013h
		        psgNote  Ds3
		        psgNote  D4
		        psgNote  As4
		        psgNote  G5
		  psgInst 012h
		        psgNote  Ds3
		        psgNote  D4
		        psgNote  As4
		        psgNote  G5
		  psgInst 011h
		        psgNote  Ds3
		        psgNote  D4
		        psgNote  As4
		        psgNote  G5
		  psgInst 010h
		        psgNote  Ds3
		        psgNote  D4
		        psgNote  As4
		        psgNote  G5
		  psgInst 00h
		        waitL    96
		  psgInst 01Bh
		        psgNoteL Cs3,6
		        psgNote  B3
		        psgNote  Gs4
		        psgNote  As5
		  psgInst 01Ah
		        psgNote  Cs3
		        psgNote  B3
		        psgNote  Gs4
		        psgNote  As5
		  psgInst 019h
		        psgNote  Cs3
		        psgNote  B3
		        psgNote  Gs4
		        psgNote  As5
		  psgInst 018h
		        psgNote  Cs3
		        psgNote  B3
		        psgNote  Gs4
		        psgNote  As5
		  psgInst 017h
		        psgNote  Cs3
		        psgNote  B3
		        psgNote  Gs4
		        psgNote  As5
		  psgInst 016h
		        psgNote  Cs3
		        psgNote  B3
		        psgNote  Gs4
		        psgNote  As5
		  psgInst 015h
		        psgNote  Cs3
		        psgNote  B3
		        psgNote  Gs4
		        psgNote  As5
		  psgInst 014h
		        psgNote  Cs3
		        psgNote  B3
		        psgNote  Gs4
		        psgNote  As5
		  psgInst 013h
		        psgNote  Cs3
		        psgNote  B3
		        psgNote  Gs4
		        psgNote  As5
		  psgInst 012h
		        psgNote  Cs3
		        psgNote  B3
		        psgNote  Gs4
		        psgNote  As5
		  psgInst 011h
		        psgNote  Cs3
		        psgNote  B3
		        psgNote  Gs4
		        psgNote  As5
		  psgInst 010h
		        psgNote  Cs3
		        psgNote  B3
		        psgNote  Gs4
		        psgNote  As5
		  psgInst 00h
		        waitL    96
		        wait
		  ymTimer 0B8h
		countedLoopStart 4
		        waitL    96
		countedLoopEnd
		  ymTimer 0C9h
		countedLoopStart 11
		        waitL    161
		countedLoopEnd
		mainLoopEnd
Music42_Channel7:
		channel_end
Music42_Channel9:
		channel_end
