
; ASM FILE music59.asm :
; 0xE92B..0xFA96 : Music 59
Music_59:       db 0
		db 0
		db 0
		db 0C4h
		dw Music_59_Channel_0
		dw Music_59_Channel_1
		dw Music_59_Channel_2
		dw Music_59_Channel_3
		dw Music_59_Channel_4
		dw Music_59_Channel_5
		dw Music_59_Channel_6
		dw Music_59_Channel_7
		dw Music_59_Channel_9
		dw Music_59_Channel_9
Music_59_Channel_0:
		  inst 49
		  vol 0Ch
		  setRelease 01h
		  vibrato 02Ch
		repeatStart
		        noteL B6,60
		        noteL D6,12
		        note  G6
		        note  B6
		        noteL A6,60
		        noteL C6,12
		        note  F6
		        note  A6
		repeatSection1Start
		        noteL G6,60
		        noteL B5,12
		        note  D6
		        note  G6
		        noteL F6,48
		        noteL E6,12
		        noteL F6,36
		repeatEnd
		repeatSection2Start
		        noteL G6,24
		        noteL E6,12
		        noteL F6,24
		        noteL E6,12
		        noteL D6,72
		  inst 7
		  vol 0Bh
		        noteL C6,12
		        noteL D6,36
		        noteL E6,16
		        note  E6
		        note  D6
		        noteL A6,96
		        noteL E6,48
		        noteL D6,16
		        note  D6
		        note  C6
		        noteL G6,144
		        noteL C6,16
		        note  C6
		        note  B5
		        noteL F6,60
		        waitL 12
		        noteL A6,24
		        note  A6
		        note  B6
		        noteL B6,36
		        noteL C7,12
		        noteL G6,144
		        noteL A6,12
		        note  B6
		        note  C7
		        note  D7
		        noteL E7,96
		        noteL D7,48
		        noteL C7,36
		        noteL D7,12
		        noteL D7,96
		        waitL 24
		        noteL D7,12
		        note  C7
		        noteL B6,72
		        noteL C7,12
		        note  B6
		        noteL A6,72
		        noteL B6,24
		        noteL A6,36
		        noteL G6,108
		        waitL 24
		        noteL G6,12
		        note  A6
		        noteL As6,96
		        waitL 24
		        note  As6
		        note  A6
		        note  E6
		        noteL E6,16
		        note  F6
		        note  G6
		        noteL F6,48
		        waitL 24
		        note  A6
		        note  B6
		        note  C7
		        noteL E7,36
		        noteL D7,12
		        noteL D7,120
		        noteL E7,24
		        noteL E7,192
		  inst 26
		  vol 0Dh
		        noteL E6,16
		        note  E6
		        note  D6
		        noteL A6,96
		        noteL E6,48
		        noteL D6,16
		        note  D6
		        note  C6
		        noteL G6,144
		        noteL C6,16
		        note  C6
		        note  B5
		        noteL F6,64
		        noteL E6,16
		        note  F6
		        noteL A6,24
		        note  B6
		        noteL B6,36
		        noteL C7,12
		        noteL G6,144
		  vol 0Ch
		        noteL A5,12
		        note  B5
		        note  C6
		        note  D6
		        noteL E6,120
		        noteL D6,24
		        noteL C6,36
		        noteL D6,12
		        noteL D6,144
		        noteL B5,12
		        note  C6
		        note  E6
		        note  G6
		        noteL B6,120
		        noteL C7,24
		        noteL E7,36
		        noteL D7,12
		        noteL D7,144
		        noteL E6,16
		        note  E6
		        note  D6
		        noteL Gs6,112
		        noteL G6,16
		        note  F6
		        note  G6
		        note  G6
		        note  E6
		        noteL B6,96
		        noteL A6,48
		  inst 56
		  vol 0Bh
		        noteL A5,36
		        noteL B5,12
		        waitL 24
		        noteL C6,120
		        noteL D6,36
		        noteL Ds6,12
		        waitL 24
		        noteL F6,120
		  inst 38
		  vol 0Ch
		        noteL G6,72
		        noteL As5,12
		        noteL C6,60
		        noteL As6,16
		        note  Gs6
		        note  G6
		        noteL G6,72
		        noteL Ds6,12
		        noteL F6,108
		        noteL F6,72
		        noteL Gs5,12
		        noteL As5,60
		        noteL Fs6,16
		        note  F6
		        note  Fs6
		        noteL Gs6,72
		        noteL Fs6,12
		        noteL Gs6,36
		        noteL Cs7,12
		        noteL B6,60
		        noteL Ds6,36
		        noteL Cs6,24
		        noteL Ds6,12
		        noteL E6,24
		        noteL A5,96
		        noteL Gs6,36
		        noteL Fs6,24
		        noteL Gs6,12
		        noteL A6,24
		        noteL Cs6,96
		        noteL B6,36
		        noteL A6,24
		        noteL B6,12
		        noteL Cs7,24
		        noteL B6,36
		        noteL A6,24
		        noteL Gs6,12
		        noteL A6,24
		        noteL B6,192
		  inst 26
		  vol 0Dh
		        noteL B5,16
		        note  B5
		        note  A5
		        noteL E6,96
		        noteL D6,48
		        noteL D6,16
		        note  D6
		        note  C6
		        noteL G6,144
		        noteL C6,16
		        note  C6
		        note  B5
		        noteL D6,24
		        note  C6
		        note  E6
		        note  D6
		        note  F6
		        note  B5
		        noteL A5,36
		        noteL B5,12
		        noteL G5,144
		repeatStart
		        noteL A5,12
		        note  B5
		        note  C6
		        note  D6
		        noteL E6,120
		        noteL D6,24
		        noteL C6,36
		        noteL D6,12
		        noteL D6,129
		        noteL D6,6
		        noteL Cs6,5
		        noteL C6,4
		        noteL B5,12
		        note  C6
		        note  E6
		        note  G6
		        noteL B6,120
		        noteL C7,24
		        noteL E7,36
		        noteL D7,12
		        noteL D7,144
		        noteL E6,16
		        note  E6
		        note  D6
		        noteL Gs6,112
		        noteL G6,16
		        note  F6
		        note  G6
		        note  G6
		        note  E6
		        noteL B6,96
		        noteL A6,48
		repeatSection1Start
		        noteL C7,12
		        note  A6
		        note  F6
		        note  E6
		        note  D6
		        note  C6
		        note  A5
		        note  F5
		        note  C7
		        note  Gs6
		        note  G6
		        note  F6
		        note  D6
		        note  B5
		        note  Gs5
		        note  F5
		        note  G5
		        note  B4
		        note  C5
		        note  E5
		        note  G5
		        note  Ds5
		        note  E5
		        note  G5
		        note  B5
		        note  Fs5
		        note  G5
		        note  B5
		        note  C6
		        note  B5
		        note  C6
		        note  E6
		repeatEnd
		repeatSection2Start
		        waitL 48
		        noteL A5,24
		        note  B5
		        note  C6
		        note  D6
		        note  E6
		        note  F6
		        noteL G6,72
		        noteL D6,12
		        noteL Ds6,60
		        noteL As6,16
		        note  Gs6
		        note  G6
		        noteL G6,74
		        noteL C6,14
		        noteL D6,86
		        waitL 10
		        noteL As6,36
		        noteL Gs6,42
		        noteL G6,50
		  sustain
		        noteL G6,192
		  vibrato 020h
		  setRelease 01h
		        noteL G6,140
		        waitL 6
		channel_end
Music_59_Channel_1:
		  inst 9
		  vol 0Ah
		  setRelease 01h
		  vibrato 02Ch
		repeatStart
		        noteL D5,18
		        note  B4
		  vol 0Bh
		        noteL G5,12
		  vol 0Ah
		        noteL D5,48
		        noteL C5,18
		        note  A4
		  vol 0Bh
		        noteL F5,12
		  vol 0Ah
		        noteL C5,48
		repeatSection1Start
		        noteL B4,18
		        note  G4
		  vol 0Bh
		        noteL D5,12
		  vol 0Ah
		        noteL B4,48
		        noteL A4,18
		        note  F4
		  vol 0Bh
		        noteL C5,12
		  vol 0Ah
		        noteL A4,48
		repeatEnd
		repeatSection2Start
		        noteL B4,24
		        noteL G5,12
		        noteL A5,24
		        noteL G5,12
		        noteL F5,120
		  inst 5
		  vol 09h
		        noteL A5,192
		        note  G5
		        noteL F5,144
		        noteL F5,48
		        note  E5
		        noteL E5,144
		        note  A5
		        noteL A5,48
		        noteL Gs5,144
		        noteL Gs5,48
		        noteL G5,96
		        note  Fs5
		        noteL E5,36
		        noteL E5,108
		        noteL E5,48
		        noteL G5,96
		        note  G5
		        note  F5
		        note  F5
		        note  F5
		        note  F5
		        note  E5
		  inst 25
		  vol 0Bh
		        noteL A4,16
		        note  B4
		        note  Cs5
		        note  E5
		        note  A5
		        note  Cs6
		  inst 53
		  vol 0Bh
		        noteL C7,64
		        noteL C7,16
		        note  D7
		        noteL E7,24
		        noteL D7,48
		        noteL C7,24
		        noteL B6,64
		        noteL B6,16
		        note  C7
		        noteL D7,24
		        note  C7
		        noteL B6,48
		        noteL A6,64
		        noteL A6,16
		        note  B6
		        note  A6
		        note  Gs6
		        note  A6
		        noteL C7,24
		        note  D7
		        noteL D7,36
		        noteL E7,12
		        noteL E7,48
		        noteL F7,12
		        note  E7
		        note  C7
		        note  G6
		        note  F6
		        note  E6
		        note  C6
		        note  G5
		        waitL 82
		  inst 24
		  vol 0Ah
		        noteL Gs6,2
		        noteL A6,48
		        noteL E6,6
		        note  D6
		        noteL C6,12
		        noteL A5,6
		        wait
		        note  G5
		        wait
		        noteL F5,48
		        noteL E5,6
		        note  F5
		        noteL Gs5,12
		        note  G5
		        note  F5
		        noteL Cs6,2
		        noteL D6,10
		        noteL C6,12
		        note  As5
		        wait
		        noteL Fs6,2
		        noteL G6,22
		        noteL F6,36
		        waitL 44
		        noteL D6,2
		        note  Ds6
		        noteL E6,6
		        wait
		        note  E6
		        wait
		        note  E6
		        wait
		        noteL E6,48
		        noteL D6,6
		        note  C6
		        noteL C6,12
		        noteL Cs6,2
		        noteL D6,22
		        noteL C6,72
		        noteL A5,12
		        note  G5
		        noteL Fs5,36
		        noteL F5,12
		        noteL Fs5,60
		        waitL 24
		        noteL F5,8
		        note  G5
		        note  Gs5
		        noteL C6,12
		        noteL D6,2
		        noteL Ds6,22
		        noteL D6,24
		        note  C6
		        noteL Cs6,2
		        noteL D6,22
		        noteL C6,24
		        noteL B5,6
		        note  A5
		        waitL 12
		        noteL G5,24
		        noteL A5,6
		        note  B5
		        noteL D6,12
		        noteL Fs6,2
		        noteL G6,12
		        waitL 10
		        noteL G6,24
		        noteL F6,12
		        note  E6
		        note  Cs6
		        wait
		        noteL Gs6,2
		        noteL A6,34
		        waitL 114
		        noteL E7,18
		        noteL C7,10
		        noteL B6,8
		        noteL A6,6
		        note  G6
		        note  F6
		        note  E6
		        note  C6
		        note  A5
		        note  F5
		        waitL 24
		        noteL D5,12
		        noteL Cs5,6
		        note  D5
		        note  Ds5
		        noteL Fs5,2
		        noteL G5,10
		        note  F5
		        noteL E5,6
		        note  F5
		        noteL Gs5,12
		        noteL As5,10
		        noteL C6,8
		        noteL D6,6
		        note  Ds6
		        note  E6
		        note  F6
		        note  G6
		        note  Gs6
		        noteL As6,10
		        noteL C7,12
		        noteL D7,16
		  inst 14
		  vol 08h
		        waitL 12
		        noteL D6,6
		        wait
		        note  D6
		        waitL 18
		        noteL As5,6
		        wait
		        note  G5
		        waitL 18
		        noteL D6,6
		        wait
		        note  C6
		        waitL 18
		        noteL B5,6
		        wait
		        note  C6
		        waitL 18
		        noteL C6,36
		        waitL 12
		        noteL D6,6
		        wait
		        note  D6
		        waitL 18
		        noteL As5,6
		        wait
		        note  G5
		        waitL 18
		        noteL D6,6
		        wait
		        note  C6
		        waitL 18
		        noteL As5,6
		        wait
		        note  C6
		        waitL 18
		        noteL C6,36
		        waitL 12
		        noteL Cs6,6
		        wait
		        note  Cs6
		        waitL 18
		        noteL As5,6
		        wait
		        note  Fs5
		        waitL 18
		        noteL Cs6,6
		        wait
		        note  As5
		        waitL 18
		        noteL Gs5,6
		        wait
		        note  As5
		        waitL 18
		        noteL As5,36
		        waitL 12
		        noteL Cs6,6
		        wait
		        note  Cs6
		        waitL 18
		        noteL As5,6
		        wait
		        note  Fs5
		        waitL 18
		        noteL Cs6,6
		        wait
		        note  B5
		        waitL 18
		        noteL As5,6
		        wait
		        note  B5
		        waitL 18
		        noteL B5,36
		        waitL 24
		  inst 25
		  vol 0Ah
		        noteL A5,48
		        note  Gs5
		        note  Fs5
		        note  E5
		        note  Cs6
		        note  B5
		        note  A5
		        note  Gs5
		        note  Fs5
		        note  Gs5
		        note  A5
		        noteL Fs6,24
		        noteL E6,192
		  inst 5
		  vol 09h
		        noteL C6,48
		        noteL C6,96
		        noteL B5,48
		        note  B5
		        noteL B5,96
		        noteL C6,48
		        noteL A5,72
		        noteL A5,24
		        noteL B5,72
		        noteL G5,24
		        noteL E5,48
		        waitL 12
		        noteL E5,36
		        noteL E5,96
		repeatStart
		  inst 25
		  vol 0Ah
		        noteL F5,60
		        noteL A5,12
		        note  Gs5
		        note  A5
		        note  B5
		        note  A5
		        note  B5
		        noteL C6,36
		        noteL A5,24
		        noteL Gs5,60
		        noteL C5,12
		        note  D5
		        note  F5
		        note  G5
		        note  F5
		        note  G5
		        noteL Gs5,24
		        noteL G5,12
		        noteL F5,24
		        noteL A5,60
		        noteL D6,12
		        note  C6
		        note  D6
		        note  E6
		        note  Ds6
		        note  E6
		        note  Gs6
		        noteL A6,24
		        note  G6
		        noteL Fs6,96
		        noteL G6,36
		        noteL Fs6,12
		        noteL Fs6,48
		        noteL F5,60
		        noteL Gs5,12
		        note  C6
		        note  E6
		        noteL D6,96
		        noteL E5,60
		        noteL G5,12
		        note  B5
		        note  D6
		        noteL Cs6,96
		repeatSection1Start
		        noteL A6,12
		        note  F6
		        note  D6
		        note  C6
		        note  B5
		        note  A5
		        note  F5
		        note  D5
		        note  Gs6
		        note  F6
		        note  E6
		        note  D6
		        note  B5
		        note  Gs5
		        note  F5
		        note  D5
		  inst 13
		  vol 0Bh
		        noteL C6,60
		        waitL 12
		        noteL C6,8
		        note  C6
		        note  C6
		        noteL C6,6
		        waitL 10
		        noteL C6,6
		        waitL 10
		        noteL C6,6
		        waitL 10
		        noteL C6,6
		        waitL 18
		        noteL C6,8
		        waitL 16
		repeatEnd
		repeatSection2Start
		  inst 25
		  vol 0Bh
		        noteL F4,48
		  vol 0Ah
		        noteL F5,24
		        note  G5
		        note  A5
		        note  A5
		        note  B5
		        note  C6
		  inst 53
		  vol 0Ah
		        noteL C6,192
		        noteL Gs5,174
		        waitL 10
		        noteL F5,36
		        noteL Ds5,42
		        noteL D5,50
		  sustain
		        noteL E5,192
		  setRelease 01h
		  vibrato 020h
		        noteL E5,140
		        waitL 6
		channel_end
Music_59_Channel_2:
		  inst 9
		  vol 0Ah
		  setRelease 01h
		  vibrato 02Ch
		        noteL G5,96
		        note  F5
		        note  D5
		        note  C5
		        note  G5
		        note  F5
		        noteL D5,36
		        noteL D5,12
		        waitL 24
		        noteL A4,120
		  inst 5
		  vol 09h
		        noteL F5,192
		        note  E5
		        noteL D5,144
		        noteL D5,48
		        note  D5
		        noteL C5,144
		        note  F5
		        noteL F5,48
		        noteL F5,144
		        noteL F5,48
		        noteL E5,96
		        note  Ds5
		        noteL B4,36
		        noteL B4,108
		        noteL B4,48
		        noteL E5,96
		        note  Cs5
		        note  D5
		        note  D5
		        note  D5
		        note  D5
		        note  Cs5
		  inst 25
		  vol 0Bh
		        noteL Cs4,16
		        note  D4
		        note  E4
		        note  A4
		        note  Cs5
		        note  E5
		  vol 09h
		        noteL A5,48
		        noteL F5,96
		        noteL A5,48
		        note  G5
		        noteL E5,144
		        noteL F5,48
		        noteL D5,96
		        noteL F5,48
		        noteL G5,96
		  inst 53
		  vol 0Bh
		        noteL A6,12
		        note  G6
		        note  E6
		        note  C6
		        note  A5
		        note  G5
		        note  E5
		        note  C5
		        waitL 88
		  shifting 020h
		  stereo 080h
		  inst 24
		  vol 07h
		        noteL Gs6,2
		        noteL A6,48
		        noteL E6,6
		        note  D6
		        noteL C6,12
		        noteL A5,6
		        wait
		        note  G5
		        wait
		        noteL F5,48
		        waitL 0
		        noteL E5,6
		        note  F5
		        noteL Gs5,12
		        note  G5
		        note  F5
		        noteL Cs6,2
		        noteL D6,10
		        noteL C6,12
		        note  As5
		        wait
		        noteL Fs6,2
		        noteL G6,22
		        noteL F6,36
		        waitL 44
		        noteL D6,2
		        note  Ds6
		        noteL E6,6
		        wait
		        note  E6
		        wait
		        note  E6
		        wait
		        noteL E6,48
		        noteL D6,6
		        note  C6
		        noteL C6,12
		        noteL Cs6,2
		        noteL D6,22
		        noteL C6,72
		        waitL 0
		        noteL A5,12
		        note  G5
		        noteL Fs5,36
		        noteL F5,12
		        noteL Fs5,60
		        waitL 24
		        noteL F5,8
		        note  G5
		        note  Gs5
		        noteL C6,12
		        noteL D6,2
		        noteL Ds6,22
		        noteL D6,24
		        note  C6
		        noteL Cs6,2
		        noteL D6,22
		        noteL C6,24
		        noteL B5,6
		        note  A5
		        waitL 12
		        noteL G5,24
		        noteL A5,6
		        note  B5
		        noteL D6,12
		        noteL Fs6,2
		        noteL G6,12
		        waitL 10
		        noteL G6,24
		        noteL F6,12
		        note  E6
		        note  Cs6
		        wait
		        noteL Gs6,2
		        noteL A6,28
		  stereo 0C0h
		  shifting 00h
		  inst 56
		  vol 0Ah
		        noteL C5,36
		        noteL D5,12
		        waitL 24
		        noteL E5,120
		        noteL F5,36
		        noteL G5,12
		        waitL 24
		        noteL Gs5,120
		  inst 14
		  vol 08h
		countedLoopStart 1
		        waitL 12
		        noteL As5,6
		        wait
		        note  As5
		        waitL 18
		        noteL G5,6
		        wait
		        note  Ds5
		        waitL 18
		        noteL As5,6
		        wait
		        note  Gs5
		        waitL 18
		        noteL G5,6
		        wait
		        note  Gs5
		        waitL 18
		        noteL Gs5,36
		countedLoopEnd
		        waitL 12
		        noteL F5,6
		        wait
		        note  F5
		        waitL 18
		        noteL Cs5,6
		        wait
		        note  As4
		        waitL 18
		        noteL F5,6
		        wait
		        note  Fs5
		        waitL 18
		        noteL F5,6
		        wait
		        note  Fs5
		        waitL 18
		        noteL Fs5,36
		        waitL 12
		        noteL F5,6
		        wait
		        note  F5
		        waitL 18
		        noteL Cs5,6
		        wait
		        note  As4
		        waitL 18
		        noteL F5,6
		        wait
		        note  Gs5
		        waitL 18
		        noteL Fs5,6
		        wait
		        note  Gs5
		        waitL 18
		        noteL Gs5,36
		  inst 25
		  vol 09h
		        noteL E5,96
		        note  Cs5
		        note  A4
		        note  Fs5
		        note  D5
		        noteL Cs5,72
		        noteL A5,24
		        noteL Gs5,192
		  inst 5
		  vol 09h
		        noteL A5,48
		        noteL A5,96
		        noteL A5,48
		        note  G5
		        noteL E5,96
		        noteL E5,48
		        noteL F5,72
		        noteL F5,24
		        noteL G5,72
		        noteL D5,24
		        noteL C5,48
		        waitL 12
		        noteL C5,36
		        noteL C5,96
		repeatStart
		  inst 25
		  vol 09h
		        noteL C5,120
		        noteL B4,24
		        note  A4
		        note  C5
		        noteL As4,120
		        noteL D5,24
		        note  F5
		        note  Gs5
		        noteL E5,192
		        note  A5
		        noteL Gs4,48
		        note  C5
		        noteL B4,96
		        noteL B4,48
		        note  G4
		        noteL E5,96
		repeatSection1Start
		        noteL C5,96
		        noteL C5,48
		        note  B4
		  inst 13
		  vol 0Ah
		        noteL E5,60
		        waitL 12
		        noteL E5,8
		        note  E5
		        note  E5
		        noteL E5,6
		        waitL 10
		        noteL E5,6
		        waitL 10
		        noteL E5,6
		        waitL 10
		        noteL E5,6
		        waitL 18
		        noteL E5,8
		        waitL 16
		repeatEnd
		repeatSection2Start
		  inst 25
		  vol 0Bh
		        noteL F3,48
		  vol 0Ah
		        noteL C5,24
		        note  D5
		        note  F5
		        note  F5
		        note  G5
		        note  A5
		        noteL Ds5,96
		        noteL G5,48
		        noteL G5,16
		        note  F5
		        note  Ds5
		        noteL D5,102
		        noteL F5,72
		        waitL 10
		        noteL D5,36
		        noteL C5,42
		        noteL As4,50
		  sustain
		        noteL B4,192
		  setRelease 01h
		  vibrato 020h
		        noteL B4,140
		        waitL 6
		channel_end
Music_59_Channel_3:
		  inst 2
		  vol 0Ch
		  vibrato 02Ch
		  sustain
		        noteL B4,0
		  setSlide 05h
		        noteL C5,192
		  vibrato 020h
		  setRelease 01h
		        noteL C5,168
		  noSlide
		  vibrato 02Ch
		        noteL G4,24
		        noteL C4,192
		        noteL B3,0
		  setSlide 05h
		        noteL C4,30
		  noSlide
		        waitL 6
		        noteL C4,12
		        waitL 24
		        noteL G3,96
		        noteL G4,24
		        noteL F4,192
		        note  E4
		        noteL D4,144
		        noteL G4,48
		        noteL C5,192
		        noteL F4,84
		        noteL C4,6
		        wait
		        note  F4
		        wait
		        noteL F4,60
		        noteL C5,24
		        noteL As4,84
		  sustain
		        noteL E4,12
		  setRelease 01h
		        note  F4
		        note  Gs4
		  sustain
		        note  C5
		  setRelease 01h
		        note  D5
		        wait
		        noteL C5,36
		        noteL A4,96
		        note  B4
		        noteL E4,84
		  sustain
		        noteL Fs5,12
		  setRelease 01h
		        note  G5
		  sustain
		        note  Ds5
		  setRelease 01h
		        note  E5
		        note  B4
		        wait
		        noteL E4,24
		        noteL D4,12
		        noteL Cs4,48
		        waitL 12
		        note  Cs4
		        note  D4
		        note  E4
		        noteL A3,48
		        note  A4
		        noteL D5,60
		        waitL 12
		        note  D5
		        note  Cs5
		        noteL C5,96
		        noteL B4,72
		        noteL B4,24
		        noteL As4,96
		        noteL A4,192
		        noteL F4,84
		        noteL C4,6
		        wait
		        note  F4
		        wait
		        noteL F4,84
		        note  E4
		  sustain
		        noteL D5,12
		  setRelease 01h
		        note  E5
		  sustain
		        note  A4
		  setRelease 01h
		        note  B4
		        note  G4
		        wait
		        noteL E4,36
		        noteL D4,84
		        noteL D4,6
		        wait
		        note  G3
		        wait
		        noteL G3,36
		        noteL G4,48
		        noteL C4,120
		        noteL C5,24
		        note  G4
		        note  C4
		        noteL F4,84
		        noteL C4,6
		        wait
		        note  F4
		        wait
		        noteL F4,12
		        note  D5
		        noteL C5,6
		        waitL 18
		        noteL A4,12
		        noteL F4,24
		        noteL As3,84
		        noteL A3,12
		        noteL As3,6
		        wait
		        note  As3
		        wait
		  sustain
		        noteL E4,12
		  setRelease 01h
		        noteL F4,6
		        waitL 18
		        noteL C5,24
		        noteL As4,12
		        noteL A4,48
		        waitL 12
		        note  D4
		        note  E4
		        note  C4
		        noteL A3,6
		        wait
		        noteL A3,36
		        noteL E4,48
		        noteL D4,192
		        noteL F4,48
		        waitL 12
		        note  E4
		        note  F4
		        wait
		        noteL G4,48
		        note  G3
		        note  E4
		        waitL 12
		        note  Ds4
		        note  E4
		        wait
		        noteL A4,48
		        note  A3
		        noteL F3,36
		        noteL F3,12
		        waitL 24
		        noteL F3,48
		        noteL E4,24
		        note  D4
		        note  C4
		        noteL As3,36
		        noteL As3,12
		        waitL 24
		        noteL As3,72
		        noteL As4,48
		        noteL Ds4,84
		        noteL G3,12
		        noteL Gs3,6
		        wait
		        noteL Gs3,84
		        note  Ds4
		        noteL Ds4,6
		        wait
		        note  Cs4
		        wait
		        noteL Cs4,84
		        note  Fs4
		        noteL A3,12
		        noteL B3,6
		        wait
		        noteL B3,84
		        note  Fs4
		        noteL Fs4,6
		        wait
		        note  E4
		        wait
		        noteL E4,84
		        note  A3
		        noteL Gs3,12
		        noteL A3,6
		        wait
		        noteL A3,36
		        noteL A4,24
		        note  Gs4
		        noteL Fs4,84
		        noteL F4,12
		        noteL Fs4,6
		        wait
		        noteL Fs4,36
		        noteL Fs4,24
		        note  E4
		        noteL D4,84
		        noteL D4,6
		        wait
		        note  Ds4
		        wait
		        noteL Ds4,60
		        noteL Ds4,12
		        wait
		        noteL E4,192
		        noteL F4,84
		        noteL F4,6
		        wait
		        note  G4
		        wait
		        noteL G4,60
		        noteL D4,24
		        noteL E4,48
		        waitL 12
		        note  E4
		        note  Ds4
		        note  E4
		        noteL A4,6
		        wait
		        noteL A4,60
		        noteL A3,24
		        noteL D4,36
		        noteL D4,6
		        waitL 18
		        noteL D4,12
		        note  E4
		        note  F4
		        noteL G4,6
		        wait
		        noteL G4,36
		        noteL G3,48
		        noteL C4,36
		        noteL B3,12
		        noteL C4,6
		        wait
		        noteL C4,12
		        note  D4
		        note  C4
		        wait
		        noteL G5,24
		  sustain
		        noteL D5,12
		  setRelease 01h
		        note  E5
		        noteL C5,6
		        waitL 18
		        noteL C4,12
		repeatStart
		        noteL F4,84
		        noteL C4,6
		        wait
		        note  F4
		        wait
		        noteL F4,12
		        note  D5
		        noteL C5,6
		        waitL 18
		        noteL A4,12
		        noteL F4,24
		        noteL As3,84
		        noteL A3,12
		        noteL As3,6
		        wait
		        note  As3
		        wait
		        noteL E4,12
		        noteL F4,6
		        waitL 18
		        noteL C5,24
		        noteL As4,12
		        noteL A4,48
		        waitL 12
		        note  D4
		        note  E4
		        note  C4
		        noteL A3,6
		        wait
		        noteL A3,36
		        noteL E4,48
		        note  D4
		        waitL 12
		        note  A3
		        note  Gs3
		        note  A3
		        wait
		        note  E5
		        note  D5
		        noteL A4,6
		        waitL 18
		        noteL A3,24
		        noteL D4,12
		        noteL F4,48
		        waitL 12
		        note  E4
		        note  F4
		        wait
		        noteL G4,48
		        note  G3
		        note  E4
		        waitL 12
		        note  Ds4
		        note  E4
		        wait
		        noteL A4,48
		        note  A3
		repeatSection1Start
		        noteL F4,60
		        waitL 12
		        noteL F4,6
		        wait
		        note  F4
		        wait
		        noteL G4,48
		        waitL 12
		        note  G4
		        note  G3
		        wait
		        noteL C4,72
		        noteL B3,12
		        note  C4
		        waitL 16
		        noteL C5,8
		        wait
		        note  C5
		        wait
		        noteL G4,24
		        note  C4
		repeatEnd
		repeatSection2Start
		        noteL F3,48
		        noteL F4,24
		        note  E4
		        note  D4
		        note  C4
		        note  B3
		        note  A3
		        noteL Gs3,48
		        waitL 12
		        note  G3
		        note  Gs3
		        note  As3
		        noteL Gs3,60
		        waitL 12
		        note  Gs3
		        note  A3
		        noteL As3,51
		        waitL 12
		        note  As4
		        noteL A4,13
		        noteL As4,14
		        noteL As3,72
		        waitL 10
		        noteL As3,36
		        noteL As3,42
		        noteL As3,50
		  sustain
		        noteL C4,192
		  setRelease 01h
		  vibrato 020h
		        noteL C4,140
		        waitL 6
		channel_end
Music_59_Channel_4:
		  stereo 0C0h
		  inst 39
		  vol 0Ah
		  setRelease 01h
		  vibrato 02Ch
		repeatStart
		        noteL B6,60
		        noteL D6,12
		        note  G6
		        note  B6
		        noteL A6,60
		        noteL C6,12
		        note  F6
		        note  A6
		repeatSection1Start
		        noteL G6,60
		        noteL B5,12
		        note  D6
		        note  G6
		        noteL F6,48
		        noteL E6,12
		        noteL F6,36
		repeatEnd
		repeatSection2Start
		        noteL G6,24
		        noteL E6,12
		        noteL F6,24
		        noteL E6,12
		        noteL D6,78
		  shifting 010h
		  stereo 080h
		  inst 7
		  vol 09h
		        noteL C6,12
		        noteL D6,36
		        noteL E6,16
		        note  E6
		        note  D6
		        noteL A6,96
		        noteL E6,48
		        noteL D6,16
		        note  D6
		        note  C6
		        noteL G6,144
		        noteL C6,16
		        note  C6
		        note  B5
		        noteL F6,60
		        waitL 12
		        noteL A6,24
		        note  A6
		        note  B6
		        noteL B6,36
		        noteL C7,12
		        noteL G6,144
		        noteL A6,12
		        note  B6
		        note  C7
		        note  D7
		        noteL E7,96
		        noteL D7,48
		        noteL C7,36
		        noteL D7,12
		        noteL D7,96
		        waitL 24
		        noteL D7,12
		        note  C7
		        noteL B6,72
		        noteL C7,12
		        note  B6
		        noteL A6,72
		        noteL B6,24
		        noteL A6,36
		        noteL G6,108
		        waitL 24
		        noteL G6,12
		        note  A6
		        noteL As6,96
		        waitL 24
		        note  As6
		        note  A6
		        note  E6
		        noteL E6,16
		        note  F6
		        note  G6
		        noteL F6,48
		        waitL 24
		        note  A6
		        note  B6
		        note  C7
		        noteL E7,36
		        noteL D7,12
		        noteL D7,120
		        noteL E7,24
		        noteL E7,192
		  stereo 040h
		  inst 26
		  vol 0Bh
		        noteL E6,16
		        note  E6
		        note  D6
		        noteL A6,96
		        noteL E6,48
		        noteL D6,16
		        note  D6
		        note  C6
		        noteL G6,144
		        noteL C6,16
		        note  C6
		        note  B5
		        noteL F6,64
		        noteL E6,16
		        note  F6
		        noteL A6,24
		        note  B6
		        noteL B6,36
		        noteL C7,12
		        noteL G6,144
		  vol 0Ah
		        noteL A5,12
		        note  B5
		        note  C6
		        note  D6
		        noteL E6,120
		        noteL D6,24
		        noteL C6,36
		        noteL D6,12
		        noteL D6,144
		        noteL B5,12
		        note  C6
		        note  E6
		        note  G6
		        noteL B6,120
		        noteL C7,24
		        noteL E7,36
		        noteL D7,12
		        noteL D7,144
		        noteL E6,16
		        note  E6
		        note  D6
		        noteL Gs6,112
		        noteL G6,16
		        note  F6
		        note  G6
		        note  G6
		        note  E6
		        noteL B6,96
		        noteL A6,48
		  stereo 080h
		  inst 56
		  vol 0Ah
		        noteL A5,36
		        noteL B5,12
		        waitL 24
		        noteL C6,120
		        noteL D6,36
		        noteL Ds6,12
		        waitL 24
		        noteL F6,120
		  inst 38
		  vol 0Ah
		        noteL G6,72
		        noteL As5,12
		        noteL C6,60
		        noteL As6,16
		        note  Gs6
		        note  G6
		        noteL G6,72
		        noteL Ds6,12
		        noteL F6,108
		        noteL F6,72
		        noteL Gs5,12
		        noteL As5,60
		        noteL Fs6,16
		        note  F6
		        note  Fs6
		        noteL Gs6,72
		        noteL Fs6,12
		        noteL Gs6,36
		        noteL Cs7,12
		        noteL B6,60
		        noteL Ds6,36
		        noteL Cs6,24
		        noteL Ds6,12
		        noteL E6,24
		        noteL A5,96
		        noteL Gs6,36
		        noteL Fs6,24
		        noteL Gs6,12
		        noteL A6,24
		        noteL Cs6,96
		        noteL B6,36
		        noteL A6,24
		        noteL B6,12
		        noteL Cs7,24
		        noteL B6,36
		        noteL A6,24
		        noteL Gs6,12
		        noteL A6,24
		        noteL B6,192
		  stereo 040h
		  inst 26
		  vol 0Bh
		        noteL B5,16
		        note  B5
		        note  A5
		        noteL E6,96
		        noteL D6,48
		        noteL D6,16
		        note  D6
		        note  C6
		        noteL G6,144
		        noteL C6,16
		        note  C6
		        note  B5
		        noteL D6,24
		        note  C6
		        note  E6
		        note  D6
		        note  F6
		        note  B5
		        noteL A5,36
		        noteL B5,12
		        noteL G5,144
		repeatStart
		        noteL A5,12
		        note  B5
		        note  C6
		        note  D6
		        noteL E6,120
		        noteL D6,24
		        noteL C6,36
		        noteL D6,12
		        noteL D6,129
		        noteL D6,6
		        noteL Cs6,5
		        noteL C6,4
		        noteL B5,12
		        note  C6
		        note  E6
		        note  G6
		        noteL B6,120
		        noteL C7,24
		        noteL E7,36
		        noteL D7,12
		        noteL D7,144
		        noteL E6,16
		        note  E6
		        note  D6
		        noteL Gs6,112
		        noteL G6,16
		        note  F6
		        note  G6
		        note  G6
		        note  E6
		        noteL B6,96
		        noteL A6,48
		repeatSection1Start
		        noteL C7,12
		        note  A6
		        note  F6
		        note  E6
		        note  D6
		        note  C6
		        note  A5
		        note  F5
		        note  C7
		        note  Gs6
		        note  G6
		        note  F6
		        note  D6
		        note  B5
		        note  Gs5
		        note  F5
		        note  G5
		        note  B4
		        note  C5
		        note  E5
		        note  G5
		        note  Ds5
		        note  E5
		        note  G5
		        note  B5
		        note  Fs5
		        note  G5
		        note  B5
		        note  C6
		        note  B5
		        note  C6
		        note  E6
		repeatEnd
		repeatSection2Start
		        waitL 48
		        noteL A5,24
		        note  B5
		        note  C6
		        note  D6
		        note  E6
		        note  F6
		        noteL G6,72
		        noteL D6,12
		        noteL Ds6,60
		        noteL As6,16
		        note  Gs6
		        note  G6
		        noteL G6,74
		        noteL C6,14
		        noteL D6,86
		        waitL 10
		        noteL As6,36
		        noteL Gs6,42
		        noteL G6,50
		  sustain
		        noteL G6,192
		  vibrato 020h
		  setRelease 01h
		        noteL G6,140
		        waitL 6
		channel_end
Music_59_Channel_5:
		        waitL 192
		        wait
		        wait
		        waitL 120
		  stereo 080h
		        sampleL 2,36
		  stereo 0C0h
		        sampleL 3,24
		  stereo 040h
		        sampleL 4,12
		countedLoopStart 10
		  stereo 0C0h
		        sampleL 0,84
		        sampleL 0,12
		        sample  0
		        sampleL 0,36
		        sampleL 10,48
		countedLoopEnd
		        sampleL 0,24
		  stereo 080h
		        sampleL 2,36
		  stereo 0C0h
		        sampleL 3,24
		  stereo 080h
		        sampleL 2,12
		  stereo 0C0h
		        sample  0
		        sampleL 3,24
		  stereo 040h
		        sampleL 4,12
		  stereo 0C0h
		        sampleL 0,24
		        sample  1
		countedLoopStart 2
		        sampleL 0,48
		        sampleL 1,36
		        sampleL 0,12
		        sample  0
		        sampleL 0,36
		        sampleL 1,48
		countedLoopEnd
		        sampleL 0,48
		        sampleL 1,36
		        sampleL 0,12
		        sample  0
		        sample  0
		        sampleL 1,24
		  stereo 080h
		        sampleL 2,12
		  stereo 040h
		        sampleL 3,36
		  stereo 0C0h
		countedLoopStart 5
		        sampleL 0,48
		        sampleL 1,36
		        sampleL 0,12
		        sample  0
		        sampleL 0,36
		        sampleL 1,48
		countedLoopEnd
		        sampleL 0,24
		        sampleL 1,12
		        sampleL 0,24
		        sampleL 1,12
		        sampleL 0,48
		  stereo 080h
		        sampleL 2,24
		  stereo 0C0h
		        sample  3
		  stereo 040h
		        sample  4
		  stereo 0C0h
		        sample  0
		        sampleL 1,12
		        sampleL 0,24
		        sampleL 1,12
		        sampleL 0,36
		  stereo 080h
		        sampleL 2,12
		        sampleL 2,24
		  stereo 0C0h
		        sampleL 3,12
		  stereo 040h
		        sampleL 4,24
		  stereo 0C0h
		        sampleL 1,12
		countedLoopStart 2
		        sampleL 0,36
		        sampleL 0,12
		        sampleL 1,48
		        sampleL 0,12
		        sampleL 0,36
		        sampleL 1,48
		countedLoopEnd
		        sampleL 0,36
		        sampleL 0,12
		        sampleL 1,48
		        sampleL 0,12
		        sampleL 0,36
		        sampleL 1,12
		        sampleL 1,36
		        sample  0
		        sampleL 0,12
		        sample  1
		  stereo 080h
		        sampleL 2,36
		  stereo 0C0h
		        sample  0
		        sampleL 0,12
		        sample  1
		  stereo 040h
		        sampleL 4,36
		  stereo 0C0h
		        sample  0
		        sampleL 0,12
		        sample  1
		  stereo 080h
		        sampleL 3,36
		  stereo 0C0h
		        sample  0
		        sampleL 0,12
		        sample  1
		  stereo 040h
		        sampleL 4,36
		  stereo 0C0h
		        sample  0
		        sampleL 0,12
		        sample  1
		  stereo 080h
		        sampleL 2,24
		  stereo 0C0h
		        sampleL 0,12
		        sampleL 0,36
		        sampleL 0,12
		        sample  1
		        sampleL 3,24
		  stereo 040h
		        sampleL 4,12
		  stereo 0C0h
		        sampleL 0,36
		        sampleL 0,12
		        sampleL 1,36
		  stereo 080h
		        sampleL 2,4
		        sample  2
		        sample  2
		        sampleL 2,12
		  stereo 0C0h
		        sampleL 3,24
		        sample  3
		  stereo 040h
		        sampleL 4,12
		  stereo 0C0h
		        sampleL 0,24
		countedLoopStart 2
		        sampleL 0,36
		        sampleL 0,12
		        sampleL 1,48
		        sampleL 0,12
		        sampleL 0,36
		        sampleL 1,48
		countedLoopEnd
		        sampleL 0,36
		        sampleL 0,12
		        sampleL 1,48
		        sampleL 0,24
		        sampleL 0,12
		        sampleL 1,24
		  stereo 080h
		        sampleL 3,12
		  stereo 040h
		        sampleL 4,24
		repeatStart
		countedLoopStart 3
		  stereo 0C0h
		        sampleL 0,36
		        sampleL 0,12
		        sampleL 1,48
		        sampleL 0,12
		        sampleL 0,36
		        sampleL 1,48
		countedLoopEnd
		countedLoopStart 1
		        sampleL 0,48
		        sample  1
		        sample  0
		        sampleL 1,24
		        sample  0
		countedLoopEnd
		repeatSection1Start
		        sampleL 0,48
		        sample  1
		        sample  0
		  stereo 080h
		        sampleL 2,12
		  stereo 040h
		        sample  3
		  stereo 0C0h
		        sampleL 1,24
		        sampleL 0,48
		        sampleL 1,36
		        sampleL 0,12
		        sampleL 0,16
		        sample  1
		        sample  1
		        sampleL 1,24
		        sampleL 1,12
		        sample  0
		repeatEnd
		repeatSection2Start
		        sampleL 0,48
		  stereo 080h
		        sampleL 2,12
		        sample  2
		  stereo 0C0h
		        sampleL 3,24
		        sampleL 3,12
		        sample  3
		  stereo 040h
		        sampleL 4,24
		  stereo 080h
		        sampleL 2,8
		  stereo 0C0h
		        sample  3
		  stereo 040h
		        sample  4
		  stereo 0C0h
		        sample  1
		        sample  1
		        sample  1
		        sampleL 0,36
		  stereo 040h
		        sampleL 3,4
		        sample  3
		        sample  3
		  stereo 080h
		        sampleL 2,12
		        sampleL 2,24
		  stereo 0C0h
		        sampleL 0,12
		        sampleL 0,48
		        sample  1
		        sample  0
		        sampleL 1,43
		  stereo 040h
		        sampleL 4,4
		        sample  4
		        sample  4
		  stereo 0C0h
		        sampleL 3,14
		        sampleL 3,18
		        sampleL 0,50
		  stereo 080h
		        sampleL 2,36
		  stereo 0C0h
		        sampleL 3,42
		  stereo 040h
		        sampleL 4,50
		  stereo 0C0h
		        sampleL 0,96
		channel_end
Music_59_Channel_6:
		  psgInst 07Ah
		  setRelease 01h
		  vibrato 04Ch
		        psgNoteL G3,96
		        psgNote  F3
		        psgNote  D3
		        psgNote  C3
		        psgNote  G3
		        psgNote  F3
		        psgNoteL D3,36
		        psgNoteL D3,12
		  psgInst 00h
		        waitL 24
		  psgInst 07Ah
		        psgNoteL F3,120
		  psgInst 00h
		        waitL 192
		        wait
		        wait
		        waitL 96
		  psgInst 07Bh
		        psgNoteL F4,12
		        psgNote  E4
		        psgNote  C4
		        psgNote  G3
		        psgNote  F3
		        psgNote  E3
		        psgNote  C3
		        psgNote  G2
		  psgInst 02Bh
		countedLoopStart 3
		        psgNoteL A3,12
		        psgNote  C3
		        psgNote  E3
		        psgNote  F3
		countedLoopEnd
		countedLoopStart 3
		        psgNoteL Gs3,12
		        psgNote  C3
		        psgNote  D3
		        psgNote  F3
		countedLoopEnd
		countedLoopStart 1
		        psgNoteL G3,12
		        psgNote  B2
		        psgNote  C3
		        psgNote  E3
		countedLoopEnd
		countedLoopStart 1
		        psgNoteL Fs3,12
		        psgNote  B2
		        psgNote  Cs3
		        psgNote  Ds3
		countedLoopEnd
		        psgNoteL E3,12
		        psgNote  B2
		        psgNote  E3
		        psgNote  Fs3
		        psgNote  G3
		        psgNote  E3
		        psgNote  G3
		        psgNote  A3
		        psgNote  B3
		        psgNote  G3
		        psgNote  Fs4
		        psgNote  G4
		        psgNote  E4
		        psgNote  B3
		        psgNote  G3
		        psgNote  E3
		countedLoopStart 1
		        psgNoteL A3,12
		        psgNote  E3
		        psgNote  G3
		        psgNote  As3
		countedLoopEnd
		countedLoopStart 1
		        psgNoteL Cs4,12
		        psgNote  E3
		        psgNote  G3
		        psgNote  A3
		countedLoopEnd
		countedLoopStart 7
		        psgNoteL D4,12
		        psgNote  E3
		        psgNote  F3
		        psgNote  A3
		countedLoopEnd
		countedLoopStart 1
		        psgNoteL Cs4,12
		        psgNote  E3
		        psgNote  A3
		        psgNote  B3
		countedLoopEnd
		        psgNoteL Cs4,24
		        psgNote  B3
		        psgNote  A3
		        psgNote  E3
		countedLoopStart 3
		        psgNoteL A3,12
		        psgNote  E3
		        psgNote  D3
		        psgNote  C3
		countedLoopEnd
		countedLoopStart 3
		        psgNoteL G3,12
		        psgNote  D3
		        psgNote  C3
		        psgNote  B2
		countedLoopEnd
		countedLoopStart 3
		        psgNoteL F3,12
		        psgNote  C3
		        psgNote  B2
		        psgNote  A2
		countedLoopEnd
		        psgNoteL E3,12
		        psgNote  B2
		        psgNote  A2
		        psgNote  G2
		        psgNote  B2
		        psgNote  C3
		        psgNote  E3
		        psgNote  G3
		        psgNote  F4
		        psgNote  E4
		        psgNote  C4
		        psgNote  G3
		        psgNote  F3
		        psgNote  E3
		        psgNote  C3
		        psgNote  G2
		countedLoopStart 3
		        psgNoteL A3,12
		        psgNote  C3
		        psgNote  E3
		        psgNote  F3
		countedLoopEnd
		countedLoopStart 3
		        psgNoteL Gs3,12
		        psgNote  C3
		        psgNote  D3
		        psgNote  F3
		countedLoopEnd
		countedLoopStart 3
		        psgNoteL G3,12
		        psgNote  B2
		        psgNote  C3
		        psgNote  E3
		countedLoopEnd
		countedLoopStart 3
		        psgNoteL Fs3,12
		        psgNote  A2
		        psgNote  C3
		        psgNote  D3
		countedLoopEnd
		        psgNoteL E3,12
		        psgNote  Gs2
		        psgNote  C3
		        psgNote  D3
		        psgNote  E3
		        psgNote  Gs2
		        psgNote  C3
		        psgNote  E3
		countedLoopStart 1
		        psgNoteL D3,12
		        psgNote  F2
		        psgNote  B2
		        psgNote  C3
		countedLoopEnd
		        psgNoteL D3,12
		        psgNote  G2
		        psgNote  B2
		        psgNote  C3
		        psgNote  D3
		        psgNote  G2
		        psgNote  B2
		        psgNote  D3
		countedLoopStart 1
		        psgNoteL Cs3,12
		        psgNote  E2
		        psgNote  G2
		        psgNote  A2
		countedLoopEnd
		  psgInst 07Ah
		        psgNoteL F3,12
		        psgNote  E3
		        psgNote  F3
		        psgNote  G3
		        psgNote  F3
		        psgNote  G3
		        psgNoteL A3,120
		        psgNoteL F3,12
		        psgNote  E3
		        psgNote  F3
		        psgNote  G3
		        psgNote  F3
		        psgNote  G3
		        psgNoteL Gs3,120
		  psgInst 00h
		        waitL 192
		        wait
		        wait
		        wait
		        wait
		        wait
		        wait
		        waitL 24
		  psgInst 07Bh
		        psgNoteL Gs4,6
		        wait
		        psgNote  Gs4
		        waitL 18
		        psgNoteL E4,6
		        waitL 18
		        psgNoteL B3,6
		        wait
		        psgNote  A3
		        wait
		        psgNote  Gs3
		        waitL 18
		        psgNoteL E3,6
		        waitL 18
		        psgNoteL B2,36
		  psgInst 02Bh
		countedLoopStart 1
		        psgNoteL A3,12
		        psgNote  E3
		        psgNote  D3
		        psgNote  C3
		countedLoopEnd
		countedLoopStart 3
		        psgNoteL G3,12
		        psgNote  D3
		        psgNote  C3
		        psgNote  B2
		countedLoopEnd
		countedLoopStart 1
		        psgNoteL G3,12
		        psgNote  E3
		        psgNote  D3
		        psgNote  C3
		countedLoopEnd
		countedLoopStart 1
		        psgNoteL F3,12
		        psgNote  C3
		        psgNote  B2
		        psgNote  A2
		countedLoopEnd
		countedLoopStart 1
		        psgNoteL F3,12
		        psgNote  D3
		        psgNote  C3
		        psgNote  B2
		countedLoopEnd
		        psgNoteL C3,12
		        psgNote  G2
		        psgNote  B2
		        psgNote  C3
		        psgNote  E3
		        psgNote  B2
		        psgNote  C3
		        psgNote  E3
		        psgNote  G3
		        psgNote  Ds3
		        psgNote  E3
		        psgNote  G3
		        psgNote  B3
		        psgNote  G3
		        psgNote  B3
		        psgNote  C4
		repeatStart
		countedLoopStart 3
		        psgNoteL A3,12
		        psgNote  C3
		        psgNote  E3
		        psgNote  F3
		countedLoopEnd
		countedLoopStart 3
		        psgNoteL Gs3,12
		        psgNote  C3
		        psgNote  D3
		        psgNote  F3
		countedLoopEnd
		countedLoopStart 3
		        psgNoteL G3,12
		        psgNote  B2
		        psgNote  C3
		        psgNote  E3
		countedLoopEnd
		countedLoopStart 3
		        psgNoteL Fs3,12
		        psgNote  A2
		        psgNote  C3
		        psgNote  D3
		countedLoopEnd
		countedLoopStart 1
		        psgNoteL D3,12
		        psgNote  Gs2
		        psgNote  B2
		        psgNote  C3
		countedLoopEnd
		countedLoopStart 1
		        psgNoteL D3,12
		        psgNote  F2
		        psgNote  B2
		        psgNote  C3
		countedLoopEnd
		        psgNoteL D3,12
		        psgNote  G2
		        psgNote  B2
		        psgNote  C3
		        psgNote  D3
		        psgNote  G2
		        psgNote  B2
		        psgNote  D3
		countedLoopStart 1
		        psgNoteL Cs3,12
		        psgNote  E2
		        psgNote  G2
		        psgNote  A2
		countedLoopEnd
		repeatSection1Start
		        psgNoteL C5,12
		        psgNote  A4
		        psgNote  F4
		        psgNote  E4
		        psgNote  D4
		        psgNote  C4
		        psgNote  A3
		        psgNote  F3
		        psgNote  C5
		        psgNote  Gs4
		        psgNote  G4
		        psgNote  F4
		        psgNote  D4
		        psgNote  B3
		        psgNote  Gs3
		        psgNote  F3
		        psgNote  G3
		        psgNote  B2
		        psgNote  C3
		        psgNote  E3
		        psgNote  G3
		        psgNote  Ds3
		        psgNote  E3
		        psgNote  G3
		        psgNote  B3
		        psgNote  Fs3
		        psgNote  G3
		        psgNote  B3
		        psgNote  C4
		        psgNote  B3
		        psgNote  C4
		        psgNote  E4
		repeatEnd
		repeatSection2Start
		  psgInst 07Ah
		        psgNoteL F2,48
		        psgNoteL F3,24
		        psgNote  G3
		        psgNote  A3
		        psgNote  A3
		        psgNote  B3
		        psgNote  C4
		        psgNoteL C4,192
		        psgNoteL Gs3,174
		  psgInst 00h
		        waitL 10
		  psgInst 07Ah
		        psgNoteL F3,36
		        psgNoteL Ds3,42
		        psgNoteL D3,50
		  setRelease 080h
		        psgNoteL E3,192
		  setRelease 01h
		  vibrato 040h
		        psgNoteL E3,140
		  psgInst 00h
		        waitL 6
		channel_end
Music_59_Channel_7:
		  psgInst 07Ah
		  setRelease 01h
		  vibrato 04Ch
		        psgNoteL D3,96
		        psgNote  C3
		        psgNote  B2
		        psgNote  A2
		        psgNote  D3
		        psgNote  C3
		        psgNoteL B2,36
		        psgNoteL B2,12
		  psgInst 00h
		        waitL 24
		  psgInst 07Ah
		        psgNoteL A2,120
		  psgInst 00h
		        waitL 192
		        wait
		        wait
		        waitL 102
		  psgInst 079h
		        psgNoteL F4,12
		        psgNote  E4
		        psgNote  C4
		        psgNote  G3
		        psgNote  F3
		        psgNote  E3
		        psgNote  C3
		        psgNote  G2
		  psgInst 029h
		countedLoopStart 3
		        psgNoteL A3,12
		        psgNote  C3
		        psgNote  E3
		        psgNote  F3
		countedLoopEnd
		countedLoopStart 3
		        psgNoteL Gs3,12
		        psgNote  C3
		        psgNote  D3
		        psgNote  F3
		countedLoopEnd
		countedLoopStart 1
		        psgNoteL G3,12
		        psgNote  B2
		        psgNote  C3
		        psgNote  E3
		countedLoopEnd
		countedLoopStart 1
		        psgNoteL Fs3,12
		        psgNote  B2
		        psgNote  Cs3
		        psgNote  Ds3
		countedLoopEnd
		        psgNoteL E3,12
		        psgNote  B2
		        psgNote  E3
		        psgNote  Fs3
		        psgNote  G3
		        psgNote  E3
		        psgNote  G3
		        psgNote  A3
		        psgNote  B3
		        psgNote  G3
		        psgNote  Fs4
		        psgNote  G4
		        psgNote  E4
		        psgNote  B3
		        psgNote  G3
		        psgNote  E3
		countedLoopStart 1
		        psgNoteL A3,12
		        psgNote  E3
		        psgNote  G3
		        psgNote  As3
		countedLoopEnd
		countedLoopStart 1
		        psgNoteL Cs4,12
		        psgNote  E3
		        psgNote  G3
		        psgNote  A3
		countedLoopEnd
		countedLoopStart 7
		        psgNoteL D4,12
		        psgNote  E3
		        psgNote  F3
		        psgNote  A3
		countedLoopEnd
		countedLoopStart 1
		        psgNoteL Cs4,12
		        psgNote  E3
		        psgNote  A3
		        psgNote  B3
		countedLoopEnd
		        psgNoteL Cs4,24
		        psgNote  B3
		        psgNote  A3
		        psgNote  E3
		countedLoopStart 3
		        psgNoteL A3,12
		        psgNote  E3
		        psgNote  D3
		        psgNote  C3
		countedLoopEnd
		countedLoopStart 3
		        psgNoteL G3,12
		        psgNote  D3
		        psgNote  C3
		        psgNote  B2
		countedLoopEnd
		countedLoopStart 3
		        psgNoteL F3,12
		        psgNote  C3
		        psgNote  B2
		        psgNote  A2
		countedLoopEnd
		        psgNoteL E3,12
		        psgNote  B2
		        psgNote  A2
		        psgNote  G2
		        psgNote  B2
		        psgNote  C3
		        psgNote  E3
		        psgNote  G3
		        psgNote  F4
		        psgNote  E4
		        psgNote  C4
		        psgNote  G3
		        psgNote  F3
		        psgNote  E3
		        psgNote  C3
		        psgNote  G2
		countedLoopStart 3
		        psgNoteL A3,12
		        psgNote  C3
		        psgNote  E3
		        psgNote  F3
		countedLoopEnd
		countedLoopStart 3
		        psgNoteL Gs3,12
		        psgNote  C3
		        psgNote  D3
		        psgNote  F3
		countedLoopEnd
		countedLoopStart 3
		        psgNoteL G3,12
		        psgNote  B2
		        psgNote  C3
		        psgNote  E3
		countedLoopEnd
		countedLoopStart 3
		        psgNoteL Fs3,12
		        psgNote  A2
		        psgNote  C3
		        psgNote  D3
		countedLoopEnd
		        psgNoteL E3,12
		        psgNote  Gs2
		        psgNote  C3
		        psgNote  D3
		        psgNote  E3
		        psgNote  Gs2
		        psgNote  C3
		        psgNote  E3
		countedLoopStart 1
		        psgNoteL D3,12
		        psgNote  F2
		        psgNote  B2
		        psgNote  C3
		countedLoopEnd
		        psgNoteL D3,12
		        psgNote  G2
		        psgNote  B2
		        psgNote  C3
		        psgNote  D3
		        psgNote  G2
		        psgNote  B2
		        psgNote  D3
		        psgNote  Cs3
		        psgNote  E2
		        psgNote  G2
		        psgNote  A2
		        psgNote  Cs3
		        psgNote  E2
		        psgNote  G2
		        psgNoteL A2,6
		  psgInst 07Ah
		        psgNoteL C3,36
		        psgNoteL C3,12
		  psgInst 00h
		        waitL 24
		  psgInst 07Ah
		        psgNoteL F3,120
		        psgNoteL As2,36
		        psgNoteL As2,12
		  psgInst 00h
		        waitL 24
		  psgInst 07Ah
		        psgNoteL As2,120
		  psgInst 00h
		        waitL 192
		        wait
		        wait
		        wait
		        wait
		        wait
		        wait
		        waitL 24
		  psgInst 07Bh
		        psgNoteL B3,6
		        wait
		        psgNote  B3
		        waitL 18
		        psgNoteL Gs3,6
		        waitL 18
		        psgNoteL Gs3,6
		        wait
		        psgNote  Fs3
		        wait
		        psgNote  E3
		        waitL 18
		        psgNoteL Gs2,6
		        waitL 18
		        psgNoteL Gs2,36
		  psgInst 00h
		        waitL 6
		  psgInst 029h
		countedLoopStart 1
		        psgNoteL A3,12
		        psgNote  E3
		        psgNote  D3
		        psgNote  C3
		countedLoopEnd
		countedLoopStart 3
		        psgNoteL G3,12
		        psgNote  D3
		        psgNote  C3
		        psgNote  B2
		countedLoopEnd
		countedLoopStart 1
		        psgNoteL G3,12
		        psgNote  E3
		        psgNote  D3
		        psgNote  C3
		countedLoopEnd
		countedLoopStart 1
		        psgNoteL F3,12
		        psgNote  C3
		        psgNote  B2
		        psgNote  A2
		countedLoopEnd
		countedLoopStart 1
		        psgNoteL F3,12
		        psgNote  D3
		        psgNote  C3
		        psgNote  B2
		countedLoopEnd
		        psgNoteL C3,12
		        psgNote  G2
		        psgNote  B2
		        psgNote  C3
		        psgNote  E3
		        psgNote  B2
		        psgNote  C3
		        psgNote  E3
		        psgNote  G3
		        psgNote  Ds3
		        psgNote  E3
		        psgNote  G3
		        psgNote  B3
		        psgNote  G3
		        psgNote  B3
		        psgNote  C4
		repeatStart
		  psgInst 029h
		countedLoopStart 3
		        psgNoteL A3,12
		        psgNote  C3
		        psgNote  E3
		        psgNote  F3
		countedLoopEnd
		countedLoopStart 3
		        psgNoteL Gs3,12
		        psgNote  C3
		        psgNote  D3
		        psgNote  F3
		countedLoopEnd
		countedLoopStart 3
		        psgNoteL G3,12
		        psgNote  B2
		        psgNote  C3
		        psgNote  E3
		countedLoopEnd
		countedLoopStart 3
		        psgNoteL Fs3,12
		        psgNote  A2
		        psgNote  C3
		        psgNote  D3
		countedLoopEnd
		countedLoopStart 1
		        psgNoteL D3,12
		        psgNote  Gs2
		        psgNote  B2
		        psgNote  C3
		countedLoopEnd
		countedLoopStart 1
		        psgNoteL D3,12
		        psgNote  F2
		        psgNote  B2
		        psgNote  C3
		countedLoopEnd
		        psgNoteL D3,12
		        psgNote  G2
		        psgNote  B2
		        psgNote  C3
		        psgNote  D3
		        psgNote  G2
		        psgNote  B2
		        psgNote  D3
		        psgNote  Cs3
		        psgNote  E2
		        psgNote  G2
		        psgNote  A2
		        psgNote  Cs3
		        psgNote  E2
		        psgNote  G2
		        psgNoteL A2,6
		repeatSection1Start
		        psgNoteL A4,12
		        psgNote  F4
		        psgNote  D4
		        psgNote  C4
		        psgNote  B3
		        psgNote  A3
		        psgNote  F3
		        psgNote  D3
		        psgNote  Gs4
		        psgNote  F4
		        psgNote  E4
		        psgNote  D4
		        psgNote  B3
		        psgNote  Gs3
		        psgNote  F3
		        psgNote  D3
		  psgInst 07Bh
		        psgNoteL C4,60
		        waitL 12
		        psgNoteL C4,8
		        psgNote  C4
		        psgNote  C4
		        psgNoteL C4,6
		        waitL 10
		        psgNoteL C4,6
		        waitL 10
		        psgNoteL C4,6
		        waitL 10
		        psgNoteL C4,6
		        waitL 18
		        psgNoteL C4,6
		        waitL 24
		repeatEnd
		repeatSection2Start
		        waitL 48
		  psgInst 07Ah
		        psgNoteL C3,24
		        psgNote  D3
		        psgNote  F3
		        psgNote  F3
		        psgNote  G3
		        psgNote  A3
		        psgNoteL Ds3,96
		        psgNoteL G3,48
		        psgNoteL G3,16
		        psgNote  F3
		        psgNote  Ds3
		        psgNoteL D3,102
		        psgNoteL F3,72
		  psgInst 00h
		        waitL 10
		  psgInst 07Ah
		        psgNoteL D3,36
		        psgNoteL C3,42
		        psgNoteL As2,50
		  setRelease 080h
		        psgNoteL C3,192
		  vibrato 040h
		  setRelease 01h
		        psgNoteL C3,140
		  psgInst 00h
		        waitL 6
		channel_end
Music_59_Channel_9:
		channel_end
