
; ASM FILE music61.asm :
; 0xC477..0xC971 : Music 61
Music_61:       db 0
		db 0
		db 0
		db 0B0h
		dw Music_61_Channel_0
		dw Music_61_Channel_1
		dw Music_61_Channel_2
		dw Music_61_Channel_3
		dw Music_61_Channel_4
		dw Music_61_Channel_5
		dw Music_61_Channel_6
		dw Music_61_Channel_7
		dw Music_61_Channel_9
		dw Music_61_Channel_9
Music_61_Channel_0:
		  stereo 080h
		mainLoopStart
		  inst 23
		  vol 0Ch
		  setRelease 01h
		  vibrato 00h
		countedLoopStart 1
		        noteL G5,12
		        noteL G5,6
		        noteL F5,12
		        noteL Cs5,6
		        noteL A5,18
		        noteL G4,6
		        note  G5
		        noteL F5,12
		        noteL Cs5,6
		        noteL A5,12
		countedLoopEnd
		        waitL 6
		        note  Cs5
		        note  D5
		        note  E5
		        note  F5
		        note  G5
		        note  A5
		        note  B5
		        note  Cs6
		        note  F5
		  vol 0Bh
		        note  Cs6
		        note  F5
		  vol 0Ah
		        note  Cs6
		        note  F5
		  vol 09h
		        note  Cs6
		        note  F5
		  vol 08h
		        note  Cs6
		        note  F5
		  vol 07h
		        note  Cs6
		        note  F5
		  vol 06h
		        note  Cs6
		        note  F5
		        note  Cs6
		        note  F5
		  vol 0Bh
		countedLoopStart 1
		        noteL G5,12
		        noteL G5,6
		        noteL F5,12
		        noteL Cs5,6
		        noteL A5,18
		        noteL G4,6
		        note  G5
		        noteL F5,12
		        noteL Cs5,6
		        noteL A5,12
		countedLoopEnd
		        noteL B5,12
		        noteL B5,6
		        noteL A5,12
		        noteL F5,6
		        noteL Cs6,18
		        noteL B4,6
		        note  B5
		        noteL A5,12
		        noteL F5,6
		        noteL Cs6,12
		        note  B5
		        noteL B5,6
		        noteL A5,12
		        noteL F5,6
		        noteL Cs6,12
		  vol 0Ch
		        noteL B4,48
		        noteL A5,6
		        note  Cs5
		  vol 0Bh
		        note  A5
		        note  Cs5
		  vol 0Ah
		        note  A5
		        note  Cs5
		  vol 09h
		        note  A5
		        note  Cs5
		  vol 08h
		        note  A5
		        note  Cs5
		  vol 07h
		        note  A5
		        note  Cs5
		  vol 06h
		        note  A5
		        note  Cs5
		        note  A5
		        note  Cs5
		  vol 0Ch
		        note  G5
		        note  B4
		  vol 0Bh
		        note  G5
		        note  B4
		  vol 0Ah
		        note  G5
		        note  B4
		  vol 09h
		        note  G5
		        note  B4
		  vol 08h
		        note  G5
		        note  B4
		  vol 07h
		        note  G5
		        note  B4
		  vol 06h
		        note  G5
		        note  B4
		        note  G5
		        note  B4
		  vol 0Ch
		        noteL D5,60
		        noteL Fs5,6
		        noteL E5,12
		        noteL C5,6
		        noteL Gs5,18
		        noteL Fs4,6
		        note  Fs5
		        noteL E5,12
		        noteL C5,6
		        noteL Gs5,18
		  stereo 040h
		  vol 0Bh
		        noteL D5,6
		        note  As4
		        note  C5
		        note  E4
		        note  Gs4
		        note  C5
		        note  Gs4
		        note  As4
		        note  D5
		        note  As4
		        note  C5
		        note  E4
		        note  Gs4
		        note  C5
		        noteL Gs4,12
		  stereo 080h
		  vol 0Ch
		        noteL F5,6
		        note  F5
		        note  F5
		        note  F5
		        note  F5
		        note  F5
		        note  F5
		mainLoopEnd
Music_61_Channel_1:
		  stereo 040h
		mainLoopStart
		  inst 23
		  vol 0Bh
		  setRelease 01h
		  vibrato 00h
		countedLoopStart 3
		        noteL B4,6
		        note  Ds5
		        note  B4
		        note  Cs5
		        note  F4
		        note  A4
		        note  Cs5
		        note  A4
		countedLoopEnd
		        noteL D4,6
		  vol 0Ch
		        note  A4
		        note  B4
		        note  Cs5
		        note  D5
		        note  E5
		        note  F5
		        note  G5
		        note  A5
		        note  E5
		  vol 0Bh
		        note  A5
		        note  E5
		  vol 0Ah
		        note  A5
		        note  E5
		  vol 09h
		        note  A5
		        note  E5
		  vol 08h
		        note  A5
		        note  E5
		  vol 07h
		        note  A5
		        note  E5
		  vol 06h
		        note  A5
		        note  E5
		        note  A5
		        note  E5
		  vol 0Ah
		countedLoopStart 3
		        noteL B4,6
		        note  Ds5
		        note  B4
		        note  Cs5
		        note  F4
		        note  A4
		        note  Cs5
		        note  A4
		countedLoopEnd
		countedLoopStart 2
		        noteL Ds5,6
		        note  G5
		        note  Ds5
		        note  F5
		        note  Gs4
		        note  Cs5
		        note  F5
		        note  Cs5
		countedLoopEnd
		  vol 0Bh
		        noteL G5,48
		        noteL F5,6
		        note  C5
		  vol 0Ah
		        note  F5
		        note  C5
		  vol 09h
		        note  F5
		        note  C5
		  vol 08h
		        note  F5
		        note  C5
		  vol 07h
		        note  F5
		        note  C5
		  vol 06h
		        note  F5
		        note  C5
		  vol 05h
		        note  F5
		        note  C5
		        note  F5
		        note  C5
		  vol 0Bh
		        note  Ds5
		        note  As4
		  vol 0Ah
		        note  Ds5
		        note  As4
		  vol 09h
		        note  Ds5
		        note  As4
		  vol 08h
		        note  Ds5
		        note  As4
		  vol 07h
		        note  Ds5
		        note  As4
		  vol 06h
		        note  Ds5
		        note  As4
		  vol 05h
		        note  Ds5
		        note  As4
		        note  Ds5
		        note  As4
		  vol 0Bh
		        noteL Fs4,60
		  stereo 0C0h
		  inst 15
		  vol 0Ah
		  setRelease 03h
		        noteL Fs6,6
		        note  E6
		        wait
		        note  C6
		        note  Gs6
		        waitL 12
		        noteL Fs5,6
		        note  Fs6
		        note  E6
		        wait
		        note  C6
		        note  Gs6
		        waitL 12
		  vol 09h
		        noteL D6,6
		        note  As5
		        note  C6
		        note  E5
		        note  Gs5
		        note  C6
		        note  Gs5
		        note  As5
		        note  D6
		        note  As5
		        note  C6
		        note  E5
		        note  Gs5
		        note  C6
		        note  Gs5
		        wait
		  setRelease 01h
		  inst 23
		  vol 0Bh
		  stereo 040h
		        note  B4
		        note  B4
		        note  B4
		        note  B4
		        note  B4
		        note  B4
		        note  B4
		mainLoopEnd
Music_61_Channel_2:
		mainLoopStart
		  inst 23
		  vol 0Bh
		  setRelease 01h
		  vibrato 00h
		countedLoopStart 3
		        noteL G3,18
		        note  A3
		        noteL F3,12
		countedLoopEnd
		  vol 0Ch
		        noteL D4,48
		        noteL A3,6
		  vol 0Bh
		        note  A4
		  vol 0Ah
		        note  A3
		        note  A4
		  vol 09h
		        note  A3
		        note  A4
		  vol 08h
		        note  A3
		        note  A4
		  vol 07h
		        note  A3
		        note  A4
		  vol 06h
		        note  A3
		        note  A4
		  vol 05h
		        note  A3
		        note  A4
		        note  A3
		        note  A4
		  vol 0Bh
		countedLoopStart 3
		        noteL G3,18
		        note  A3
		        noteL F3,12
		countedLoopEnd
		countedLoopStart 2
		        noteL B3,18
		        note  Cs4
		        noteL A3,12
		countedLoopEnd
		  vol 0Ch
		        noteL B3,48
		        noteL A3,6
		  vol 0Bh
		        note  A4
		  vol 0Ah
		        note  A3
		        note  A4
		  vol 09h
		        note  A3
		        note  A4
		  vol 08h
		        note  A3
		        note  A4
		  vol 07h
		        note  A3
		        note  A4
		  vol 06h
		        note  A3
		        note  A4
		  vol 05h
		        note  A3
		        note  A4
		        note  A3
		        note  A4
		  vol 0Ch
		        note  Cs3
		  vol 0Bh
		        note  Cs4
		  vol 0Ah
		        note  Cs3
		        note  Cs4
		  vol 09h
		        note  Cs3
		        note  Cs4
		  vol 08h
		        note  Cs3
		        note  Cs4
		  vol 07h
		        note  Cs3
		        note  Cs4
		  vol 06h
		        note  Cs3
		        note  Cs4
		  vol 05h
		        note  Cs3
		        note  Cs4
		        note  Cs3
		        note  Cs4
		  vol 0Ch
		        noteL D3,96
		        waitL 108
		        noteL Fs3,6
		        noteL Gs3,12
		        noteL Gs3,6
		        noteL E3,18
		        noteL Cs4,6
		        note  Cs4
		        note  Cs4
		        note  Cs4
		        note  Cs4
		        note  Cs4
		        note  Cs4
		mainLoopEnd
Music_61_Channel_3:
		mainLoopStart
		        waitL 198
		  inst 15
		  vol 0Ah
		  setRelease 03h
		  vibrato 00h
		        noteL A5,6
		        note  B5
		        note  Cs6
		        note  D6
		        note  E6
		        note  F6
		        note  G6
		        note  A6
		        note  E6
		  vol 09h
		        note  A6
		        note  E6
		  vol 08h
		        note  A6
		        note  E6
		  vol 07h
		        note  A6
		        note  E6
		  vol 06h
		        note  A6
		        note  E6
		  vol 05h
		        note  A6
		        note  E6
		  vol 04h
		        note  A6
		        note  E6
		  inst 44
		  vol 0Dh
		  setRelease 01h
		  vibrato 02Ch
		        noteL F6,4
		        note  Cs6
		        note  A5
		countedLoopStart 1
		        noteL B5,18
		        noteL Cs6,6
		        waitL 12
		        noteL F6,4
		        note  Cs6
		        note  A5
		countedLoopEnd
		        noteL B5,4
		        note  Cs6
		        note  F6
		        note  E6
		        note  Cs6
		        note  D6
		        note  E6
		        note  A6
		        note  Gs6
		        note  F6
		        note  Gs6
		        note  C7
		        noteL B6,29
		        waitL 7
		        noteL A6,4
		        note  F6
		        note  Cs6
		countedLoopStart 1
		        noteL Ds6,18
		        noteL F6,4
		        waitL 14
		        noteL A6,4
		        note  F6
		        note  Cs6
		countedLoopEnd
		        noteL Ds6,4
		        note  F6
		        note  A6
		        note  Gs6
		        note  F6
		        note  Fs6
		        note  Gs6
		        note  Cs7
		        note  C7
		        note  A6
		        note  C7
		        note  E7
		  setRelease 07h
		        noteL Ds7,12
		        note  B6
		        note  G6
		        note  Ds6
		  setRelease 01h
		        noteL Cs6,3
		        note  Ds6
		        note  Cs6
		        note  Ds6
		  vol 0Ch
		        note  Cs6
		        note  Ds6
		        note  Cs6
		        note  Ds6
		  vol 0Bh
		        note  Cs6
		        note  Ds6
		        note  Cs6
		        note  Ds6
		  vol 0Ah
		        note  Cs6
		        note  Ds6
		        note  Cs6
		        note  Ds6
		  vol 09h
		        note  Cs6
		        note  Ds6
		        note  Cs6
		        note  Ds6
		  vol 08h
		        note  Cs6
		        note  Ds6
		        note  Cs6
		        note  Ds6
		  vol 07h
		        note  Cs6
		        note  Ds6
		        note  Cs6
		        note  Ds6
		  vol 0Dh
		        note  Cs6
		        note  Ds6
		        note  F6
		        note  A6
		        note  B5
		        note  Cs6
		        note  B5
		        note  Cs6
		  vol 0Ch
		        note  B5
		        note  Cs6
		        note  B5
		        note  Cs6
		  vol 0Bh
		        note  B5
		        note  Cs6
		        note  B5
		        note  Cs6
		  vol 0Ah
		        note  B5
		        note  Cs6
		        note  B5
		        note  Cs6
		  vol 09h
		        note  B5
		        note  Cs6
		        note  B5
		        note  Cs6
		  vol 08h
		        note  B5
		        note  Cs6
		        note  B5
		        note  Cs6
		  vol 07h
		        note  B5
		        note  Cs6
		        note  B5
		        note  Cs6
		  vol 06h
		        note  B5
		        note  Cs6
		        note  B5
		        waitL 15
		  vol 0Dh
		        noteL D6,4
		        note  E6
		        note  B6
		        noteL A6,5
		        waitL 7
		        noteL G6,4
		        note  A6
		        note  E7
		  vol 0Ch
		        noteL D7,84
		        waitL 9
		  sustain
		        noteL E6,3
		  setRelease 01h
		        noteL D6,96
		        waitL 24
		  vol 0Dh
		        noteL B5,3
		        note  Cs6
		        note  F6
		        note  Gs6
		        note  G6
		        note  Gs6
		        note  B6
		        note  Ds7
		mainLoopEnd
Music_61_Channel_4:
		mainLoopStart
		  shifting 00h
		  stereo 0C0h
		  inst 15
		  vol 0Ah
		  setRelease 03h
		  vibrato 00h
		countedLoopStart 1
		        noteL G6,6
		        wait
		        note  G6
		        note  F6
		        wait
		        note  Cs6
		        note  A6
		        waitL 12
		        noteL G5,6
		        note  G6
		        note  F6
		        wait
		        note  Cs6
		        note  A6
		        wait
		countedLoopEnd
		        waitL 6
		        note  Cs6
		        note  D6
		        note  E6
		        note  F6
		        note  G6
		        note  A6
		        note  B6
		        note  Cs7
		        note  F6
		  vol 09h
		        note  Cs7
		        note  F6
		  vol 08h
		        note  Cs7
		        note  F6
		  vol 07h
		        note  Cs7
		        note  F6
		  vol 06h
		        note  Cs7
		        note  F6
		  vol 05h
		        note  Cs7
		        note  F6
		  vol 04h
		        note  Cs7
		        noteL F6,9
		  shifting 020h
		  stereo 040h
		  inst 44
		  vol 0Bh
		  setRelease 01h
		  vibrato 02Ch
		        noteL F6,4
		        note  Cs6
		        note  A5
		countedLoopStart 1
		        noteL B5,18
		        noteL Cs6,6
		        waitL 12
		        noteL F6,4
		        note  Cs6
		        note  A5
		countedLoopEnd
		        noteL B5,4
		        note  Cs6
		        note  F6
		        note  E6
		        note  Cs6
		        note  D6
		        note  E6
		        note  A6
		        note  Gs6
		        note  F6
		        note  Gs6
		        note  C7
		        noteL B6,29
		        waitL 7
		        noteL A6,4
		        note  F6
		        note  Cs6
		countedLoopStart 1
		        noteL Ds6,18
		        noteL F6,4
		        waitL 14
		        noteL A6,4
		        note  F6
		        note  Cs6
		countedLoopEnd
		        noteL Ds6,4
		        note  F6
		        note  A6
		        note  Gs6
		        note  F6
		        note  Fs6
		        note  Gs6
		        note  Cs7
		        note  C7
		        note  A6
		        note  C7
		        note  E7
		  setRelease 07h
		        noteL Ds7,12
		        note  B6
		        note  G6
		        note  Ds6
		  setRelease 01h
		        noteL Cs6,3
		        note  Ds6
		        note  Cs6
		        note  Ds6
		  vol 0Ah
		        note  Cs6
		        note  Ds6
		        note  Cs6
		        note  Ds6
		  vol 09h
		        note  Cs6
		        note  Ds6
		        note  Cs6
		        note  Ds6
		  vol 08h
		        note  Cs6
		        note  Ds6
		        note  Cs6
		        note  Ds6
		  vol 07h
		        note  Cs6
		        note  Ds6
		        note  Cs6
		        note  Ds6
		  vol 06h
		        note  Cs6
		        note  Ds6
		        note  Cs6
		        note  Ds6
		  vol 05h
		        note  Cs6
		        note  Ds6
		        note  Cs6
		        note  Ds6
		  vol 0Bh
		        note  Cs6
		        note  Ds6
		        note  F6
		        note  A6
		        note  B5
		        note  Cs6
		        note  B5
		        note  Cs6
		  vol 0Ah
		        note  B5
		        note  Cs6
		        note  B5
		        note  Cs6
		  vol 09h
		        note  B5
		        note  Cs6
		        note  B5
		        note  Cs6
		  vol 08h
		        note  B5
		        note  Cs6
		        note  B5
		        note  Cs6
		  vol 07h
		        note  B5
		        note  Cs6
		        note  B5
		        note  Cs6
		  vol 06h
		        note  B5
		        note  Cs6
		        note  B5
		        note  Cs6
		  vol 05h
		        note  B5
		        note  Cs6
		        note  B5
		        note  Cs6
		  vol 04h
		        note  B5
		        note  Cs6
		        note  B5
		  inst 23
		  vol 0Bh
		        noteL D4,15
		  inst 44
		  vol 0Bh
		        noteL D6,4
		        note  E6
		        note  B6
		        noteL A6,5
		        waitL 7
		        noteL G6,4
		        note  A6
		        note  E7
		  vol 0Ah
		        noteL D7,84
		        waitL 9
		  sustain
		        noteL E6,3
		  setRelease 01h
		        noteL D6,96
		        waitL 24
		  vol 0Bh
		        noteL B5,3
		        note  Cs6
		        note  F6
		        note  Gs6
		        note  G6
		        note  Gs6
		        note  B6
		mainLoopEnd
Music_61_Channel_5:
		channel_end
Music_61_Channel_6:
		mainLoopStart
		  psgInst 00h
		countedLoopStart 23
		        waitL 48
		countedLoopEnd
		        waitL 6
		  psgInst 019h
		  setRelease 03h
		countedLoopStart 6
		        psgNoteL F3,6
		countedLoopEnd
		mainLoopEnd
Music_61_Channel_7:
		mainLoopStart
		  psgInst 00h
		countedLoopStart 23
		        waitL 48
		countedLoopEnd
		        waitL 6
		  psgInst 019h
		  setRelease 03h
		countedLoopStart 6
		        psgNoteL E3,6
		countedLoopEnd
		mainLoopEnd
Music_61_Channel_9:
		channel_end
