
; ASM FILE music45.asm :
; 0xE340..0xE4A6 : Music 45
Music_45:       db 0
		db 0
		db 0
		db 0C4h
		dw Music_45_Channel_0
		dw Music_45_Channel_1
		dw Music_45_Channel_2
		dw Music_45_Channel_9
		dw Music_45_Channel_9
		dw Music_45_Channel_9
		dw Music_45_Channel_9
		dw Music_45_Channel_9
		dw Music_45_Channel_9
		dw Music_45_Channel_9
Music_45_Channel_0:
		mainLoopStart
		  inst 18
		  vol 0Dh
		  setRelease 00h
		  vibrato 04Ch
		  sustain
		        noteL A8,72
		  setSlide 07h
		        noteL As8,3
		        note  A8
		        note  As8
		        note  A8
		        note  As8
		        note  A8
		        note  As8
		        note  A8
		        note  As8
		        note  A8
		        note  As8
		        note  A8
		        note  As8
		        note  A8
		        note  As8
		        note  A8
		        note  As8
		        note  A8
		        note  As8
		        note  A8
		        note  As8
		        note  A8
		  vol 0Ch
		        note  As8
		        note  A8
		  vol 0Bh
		        note  As8
		        note  A8
		  vol 0Ah
		        note  As8
		        note  A8
		  vol 09h
		        note  As8
		        note  A8
		  vol 08h
		        note  As8
		        note  A8
		  vol 07h
		        note  As8
		        note  A8
		  vol 06h
		        note  As8
		        note  A8
		  vol 05h
		        note  As8
		        note  A8
		  vol 04h
		        note  As8
		  setRelease 01h
		        note  A8
		        waitL 96
		        wait
		        wait
		mainLoopEnd
Music_45_Channel_1:
		mainLoopStart
		        waitL 2
		  stereo 040h
		  shifting 020h
		  inst 18
		  vol 0Bh
		  setRelease 00h
		  vibrato 04Ch
		  sustain
		        noteL A8,72
		  setSlide 07h
		        noteL As8,3
		        note  A8
		        note  As8
		        note  A8
		        note  As8
		        note  A8
		        note  As8
		        note  A8
		        note  As8
		        note  A8
		        note  As8
		        note  A8
		        note  As8
		        note  A8
		        note  As8
		        note  A8
		        note  As8
		        note  A8
		        note  As8
		        note  A8
		        note  As8
		        note  A8
		  vol 0Ah
		        note  As8
		        note  A8
		        waitL 48
		  vol 0Dh
		  sustain
		        noteL A8,72
		  setSlide 07h
		        noteL As8,3
		        note  A8
		        note  As8
		        note  A8
		        note  As8
		        note  A8
		        note  As8
		        note  A8
		        note  As8
		        note  A8
		        note  As8
		        note  A8
		        note  As8
		        note  A8
		        note  As8
		        note  A8
		        note  As8
		        note  A8
		        note  As8
		        note  A8
		        note  As8
		        note  A8
		  vol 0Ch
		        note  As8
		        note  A8
		  vol 0Bh
		        note  As8
		        note  A8
		  vol 0Ah
		        note  As8
		        note  A8
		  vol 09h
		        note  As8
		        note  A8
		  vol 08h
		        note  As8
		        note  A8
		  vol 07h
		        note  As8
		        note  A8
		  vol 06h
		        note  As8
		        note  A8
		  vol 05h
		        note  As8
		        note  A8
		  vol 04h
		        note  As8
		  setRelease 01h
		        note  A8
		        waitL 46
		mainLoopEnd
Music_45_Channel_2:
		mainLoopStart
		  stereo 080h
		        waitL 1
		  shifting 010h
		  inst 18
		  vol 0Bh
		  setRelease 00h
		  vibrato 04Ch
		  sustain
		        noteL A8,72
		  setSlide 07h
		        noteL As8,3
		        note  A8
		        note  As8
		        note  A8
		        note  As8
		        note  A8
		        note  As8
		        note  A8
		        note  As8
		        note  A8
		        note  As8
		        note  A8
		        note  As8
		        note  A8
		        note  As8
		        note  A8
		        note  As8
		        note  A8
		        note  As8
		        note  A8
		        note  As8
		        note  A8
		  vol 0Ah
		        note  As8
		        note  A8
		        waitL 5
		  vol 0Dh
		  sustain
		        noteL A8,72
		  setSlide 07h
		        noteL As8,3
		        note  A8
		        note  As8
		        note  A8
		        note  As8
		        note  A8
		        note  As8
		        note  A8
		        note  As8
		        note  A8
		        note  As8
		        note  A8
		        note  As8
		        note  A8
		        note  As8
		        note  A8
		        note  As8
		        note  A8
		        note  As8
		        note  A8
		        note  As8
		        note  A8
		  vol 0Ch
		        note  As8
		        note  A8
		  vol 0Bh
		        note  As8
		        note  A8
		  vol 0Ah
		        note  As8
		        note  A8
		  vol 09h
		        note  As8
		        note  A8
		  vol 08h
		        note  As8
		        note  A8
		  vol 07h
		        note  As8
		        note  A8
		  vol 06h
		        note  As8
		        note  A8
		  vol 05h
		        note  As8
		        note  A8
		  vol 04h
		        note  As8
		  setRelease 01h
		        note  A8
		        waitL 89
		mainLoopEnd
Music_45_Channel_9:
		channel_end
