
; ASM FILE music52.asm :
; 0xB272..0xB6A0 : Music 52
Music_52:       db 0
		db 0
		db 0
		db 0BAh
		dw Music_52_Channel_0
		dw Music_52_Channel_1
		dw Music_52_Channel_2
		dw Music_52_Channel_3
		dw Music_52_Channel_4
		dw Music_52_Channel_5
		dw Music_52_Channel_6
		dw Music_52_Channel_7
		dw Music_52_Channel_9
		dw Music_52_Channel_9
Music_52_Channel_0:
		  inst 49
		  vol 0Bh
		  setRelease 01h
		  vibrato 02Ch
		        noteL A4,48
		mainLoopStart
		        noteL E5,24
		        noteL F5,48
		        noteL Cs5,24
		        note  D5
		        note  F5
		        note  A5
		        note  D6
		        noteL F6,36
		        noteL E6,12
		        noteL E6,80
		        waitL 16
		        noteL A4,48
		        noteL Fs5,24
		        noteL G5,48
		        noteL Ds5,24
		        note  E5
		        note  G5
		        note  As5
		        note  Cs6
		        noteL E6,36
		        noteL D6,12
		        noteL D6,24
		        note  E6
		        noteL F6,60
		        waitL 12
		        noteL D6,24
		        noteL A6,72
		        noteL Gs6,24
		        noteL G6,40
		        waitL 8
		        noteL Cs6,12
		        note  D6
		        note  E6
		        wait
		        noteL G6,72
		        noteL Fs6,24
		        noteL F6,40
		        waitL 8
		        noteL B5,12
		        note  C6
		        note  D6
		        wait
		        noteL D6,24
		        noteL Ds6,48
		        noteL B5,24
		        note  C6
		        note  Ds6
		        note  G6
		        note  C7
		        noteL C7,72
		        noteL C7,24
		        note  Cs7
		        note  C7
		        note  As6
		        note  Gs6
		        noteL G6,48
		        noteL F6,24
		        note  G6
		        noteL Gs6,60
		        waitL 12
		        noteL As5,24
		        note  Fs6
		        noteL G6,48
		        noteL D6,24
		        note  Ds6
		        note  G6
		        note  As6
		        note  Ds7
		        noteL Ds7,72
		        noteL D7,28
		        noteL Cs7,248
		        waitL 50
		        noteL A4,48
		mainLoopEnd
Music_52_Channel_1:
		        waitL 48
		mainLoopStart
		  inst 6
		  vol 0Ah
		  setRelease 01h
		  vibrato 02Ch
		        waitL 12
		        note  A5
		        note  D6
		        note  F6
		        wait
		        note  A5
		        note  Cs6
		        note  E6
		        wait
		        note  A5
		        note  D6
		        note  F6
		        note  Gs6
		        note  A6
		        note  F6
		        note  D6
		        wait
		        note  Gs5
		        note  B5
		        note  D6
		        note  F6
		        note  E6
		        note  D6
		        note  B5
		        note  A5
		        note  Cs6
		        note  E6
		        note  As6
		        noteL A6,16
		        note  G6
		        note  E6
		        waitL 12
		        note  A5
		        note  Cs6
		        note  E6
		        wait
		        note  A5
		        note  Cs6
		        note  G6
		        wait
		        note  A5
		        note  Cs6
		        note  E6
		        note  G6
		        note  As6
		        note  A6
		        note  G6
		        wait
		        note  A5
		        note  D6
		        note  F6
		        note  E6
		        note  F6
		        note  D6
		        note  A5
		        wait
		        note  B5
		        note  D6
		        note  F6
		        noteL A6,16
		        note  G6
		        note  F6
		        waitL 12
		        note  E5
		        note  B5
		        note  D6
		        noteL E6,16
		        note  F6
		        note  E6
		        waitL 12
		        note  A5
		        note  Cs6
		        note  E6
		        noteL A6,24
		        note  G7
		        waitL 12
		        note  D5
		        note  A5
		        note  C6
		        noteL D6,16
		        note  Ds6
		        note  D6
		        waitL 12
		        note  G5
		        note  B5
		        note  D6
		        noteL G6,24
		        note  F7
		        waitL 12
		        note  C6
		        note  Ds6
		        note  G6
		        wait
		        note  B5
		        note  Ds6
		        note  G6
		        wait
		        note  C6
		        note  Ds6
		        note  G6
		        note  B6
		        note  C7
		        note  G6
		        note  Ds6
		        wait
		        note  G5
		        note  Gs5
		        note  C6
		        noteL Ds6,16
		        note  Gs6
		        note  C7
		        noteL Cs7,12
		        note  Gs6
		        note  C7
		        note  Gs6
		        note  As6
		        note  F6
		        note  Gs6
		        note  Ds6
		        wait
		        note  G5
		        note  D6
		        note  F6
		        note  G6
		        note  F6
		        note  D6
		        note  B5
		        wait
		        note  As5
		        note  D6
		        note  F6
		        noteL C7,16
		        note  As6
		        note  Gs6
		        waitL 12
		        note  G5
		        note  As5
		        note  Ds6
		        wait
		        note  Gs5
		        note  As5
		        note  D6
		        wait
		        note  G5
		        note  As5
		        note  Ds6
		        note  Fs6
		        note  G6
		        note  As6
		        note  Ds7
		        noteL G7,16
		        note  F7
		        note  Ds7
		        noteL As6,52
		        waitL 32
		  vol 0Ch
		        noteL A6,20
		        noteL G6,16
		        noteL F6,14
		        noteL E6,12
		        noteL D6,10
		        noteL Cs6,11
		        noteL As5,12
		        noteL Gs5,11
		        noteL A5,10
		        noteL As5,9
		        noteL A5,8
		        note  E5
		        noteL D5,10
		        noteL Cs5,12
		  vol 0Dh
		        noteL E5,10
		        noteL G5,8
		        noteL A5,6
		  vol 0Ch
		        noteL Cs6,5
		        noteL E6,4
		        note  G6
		        note  A6
		  vol 0Bh
		        note  Cs7
		        note  E7
		        noteL G7,6
		  vol 0Ah
		        noteL A7,96
		mainLoopEnd
Music_52_Channel_2:
		        waitL 48
		  inst 49
		  vol 0Ah
		  setRelease 01h
		  vibrato 02Ch
		mainLoopStart
		        noteL A4,96
		        noteL A4,48
		        note  F4
		        noteL Gs4,24
		        note  A4
		        noteL B4,48
		        noteL Cs5,90
		        waitL 6
		        noteL Cs5,48
		        note  G4
		        note  A4
		        note  G5
		        noteL G5,36
		        noteL F5,12
		        noteL F5,24
		        note  G5
		        noteL A5,96
		        noteL B5,24
		        note  C6
		        noteL D6,48
		        noteL Cs6,40
		        waitL 8
		        noteL A5,12
		        note  B5
		        note  Cs6
		        wait
		        noteL A5,24
		        note  B5
		        noteL C6,48
		        noteL B5,40
		        waitL 8
		        noteL G5,12
		        note  A5
		        note  B5
		        wait
		        noteL B5,24
		        note  C6
		        noteL F5,48
		        note  G5
		        note  Ds5
		        noteL Ds6,72
		        noteL Ds6,24
		        note  Cs6
		        note  Ds6
		        note  F6
		        note  Ds6
		        noteL D6,48
		        note  G5
		        noteL D5,96
		        note  As5
		        noteL As5,48
		        noteL G5,24
		        note  As5
		        noteL As5,100
		        noteL A5,248
		        waitL 98
		mainLoopEnd
Music_52_Channel_3:
		        waitL 48
		  inst 58
		  vol 0Ah
		  setRelease 01h
		  vibrato 02Ch
		mainLoopStart
		        noteL D3,48
		        note  E3
		        noteL F3,24
		        note  E3
		        note  D3
		        note  C3
		        note  B2
		        note  A2
		        noteL Gs2,48
		        noteL A2,90
		        waitL 6
		        noteL A2,48
		        note  B2
		        noteL Cs3,24
		        note  D3
		        noteL E3,48
		        note  D3
		        note  C3
		        noteL B2,96
		        note  E3
		        note  A2
		        note  D3
		        note  G2
		        noteL C3,48
		        note  D3
		        noteL Ds3,24
		        note  D3
		        note  C3
		        note  As2
		        note  Gs2
		        note  Ds3
		        note  Gs3
		        note  Fs3
		        note  F3
		        note  Ds3
		        note  Cs3
		        note  C3
		        noteL B2,96
		        note  As2
		        noteL Ds3,48
		        note  F3
		        noteL G3,24
		        note  Ds3
		        note  As2
		        note  Gs2
		        noteL G2,100
		        noteL A2,248
		        waitL 98
		mainLoopEnd
Music_52_Channel_4:
		  shifting 020h
		        waitL 6
		  inst 49
		  vol 09h
		  setRelease 01h
		  vibrato 02Ch
		        noteL A4,48
		mainLoopStart
		        noteL E5,24
		        noteL F5,48
		        noteL Cs5,24
		        note  D5
		        note  F5
		        note  A5
		        note  D6
		        noteL F6,36
		        noteL E6,12
		        noteL E6,80
		        waitL 16
		        noteL A4,48
		        noteL Fs5,24
		        noteL G5,48
		        noteL Ds5,24
		        note  E5
		        note  G5
		        note  As5
		        note  Cs6
		        noteL E6,36
		        noteL D6,12
		        noteL D6,24
		        note  E6
		        noteL F6,60
		        waitL 12
		        noteL D6,24
		        noteL A6,72
		        noteL Gs6,24
		        noteL G6,40
		        waitL 8
		        noteL Cs6,12
		        note  D6
		        note  E6
		        wait
		        noteL G6,72
		        noteL Fs6,24
		        noteL F6,40
		        waitL 8
		        noteL B5,12
		        note  C6
		        note  D6
		        wait
		        noteL D6,24
		        noteL Ds6,48
		        noteL B5,24
		        note  C6
		        note  Ds6
		        note  G6
		        note  C7
		        noteL C7,72
		        noteL C7,24
		        note  Cs7
		        note  C7
		        note  As6
		        note  Gs6
		        noteL G6,48
		        noteL F6,24
		        note  G6
		        noteL Gs6,60
		        waitL 12
		        noteL As5,24
		        note  Fs6
		        noteL G6,48
		        noteL D6,24
		        note  Ds6
		        note  G6
		        note  As6
		        note  Ds7
		        noteL Ds7,72
		        noteL D7,28
		        noteL Cs7,248
		        waitL 50
		        noteL A4,48
		mainLoopEnd
Music_52_Channel_5:
		channel_end
Music_52_Channel_6:
		  psgInst 00h
		        waitL 54
		mainLoopStart
		  setRelease 01h
		  vibrato 02Ch
		        waitL 12
		  psgInst 087h
		        psgNote  A3
		        psgNote  D4
		        psgNote  F4
		  psgInst 00h
		        wait
		  psgInst 087h
		        psgNote  A3
		        psgNote  Cs4
		        psgNote  E4
		  psgInst 00h
		        wait
		  psgInst 087h
		        psgNote  A3
		        psgNote  D4
		        psgNote  F4
		        psgNote  Gs4
		        psgNote  A4
		        psgNote  F4
		        psgNote  D4
		  psgInst 00h
		        wait
		  psgInst 087h
		        psgNote  Gs3
		        psgNote  B3
		        psgNote  D4
		        psgNote  F4
		        psgNote  E4
		        psgNote  D4
		        psgNote  B3
		        psgNote  A3
		        psgNote  Cs4
		        psgNote  E4
		        psgNote  As4
		        psgNoteL A4,16
		        psgNote  G4
		        psgNote  E4
		  psgInst 00h
		        waitL 12
		  psgInst 087h
		        psgNote  A3
		        psgNote  Cs4
		        psgNote  E4
		  psgInst 00h
		        wait
		  psgInst 087h
		        psgNote  A3
		        psgNote  Cs4
		        psgNote  G4
		  psgInst 00h
		        wait
		  psgInst 087h
		        psgNote  A3
		        psgNote  Cs4
		        psgNote  E4
		        psgNote  G4
		        psgNote  As4
		        psgNote  A4
		        psgNote  G4
		  psgInst 00h
		        wait
		  psgInst 087h
		        psgNote  A3
		        psgNote  D4
		        psgNote  F4
		        psgNote  E4
		        psgNote  F4
		        psgNote  D4
		        psgNote  A3
		  psgInst 00h
		        wait
		  psgInst 087h
		        psgNote  B3
		        psgNote  D4
		        psgNote  F4
		        psgNoteL A4,16
		        psgNote  G4
		        psgNote  F4
		  psgInst 00h
		        waitL 12
		  psgInst 087h
		        psgNote  E3
		        psgNote  B3
		        psgNote  D4
		        psgNoteL E4,16
		        psgNote  F4
		        psgNote  E4
		  psgInst 00h
		        waitL 12
		  psgInst 087h
		        psgNote  A3
		        psgNote  Cs4
		        psgNote  E4
		        psgNote  A4
		  psgInst 00h
		        wait
		  psgInst 07h
		        psgNote  G5
		  psgInst 00h
		        waitL 24
		  psgInst 087h
		        psgNoteL D3,12
		        psgNote  A3
		        psgNote  C4
		        psgNoteL D4,16
		        psgNote  Ds4
		        psgNote  D4
		  psgInst 00h
		        waitL 12
		  psgInst 087h
		        psgNote  G3
		        psgNote  B3
		        psgNote  D4
		        psgNote  G4
		  psgInst 00h
		        wait
		  psgInst 087h
		        psgNote  F5
		  psgInst 00h
		        waitL 24
		  psgInst 087h
		        psgNoteL C4,12
		        psgNote  Ds4
		        psgNote  G4
		  psgInst 00h
		        wait
		  psgInst 087h
		        psgNote  B3
		        psgNote  Ds4
		        psgNote  G4
		  psgInst 00h
		        wait
		  psgInst 087h
		        psgNote  C4
		        psgNote  Ds4
		        psgNote  G4
		        psgNote  B4
		        psgNote  C5
		        psgNote  G4
		        psgNote  Ds4
		  psgInst 00h
		        wait
		  psgInst 087h
		        psgNote  G3
		        psgNote  Gs3
		        psgNote  C4
		        psgNoteL Ds4,16
		        psgNote  Gs4
		        psgNote  C5
		        psgNoteL Cs5,12
		        psgNote  Gs4
		        psgNote  C5
		        psgNote  Gs4
		        psgNote  As4
		        psgNote  F4
		        psgNote  Gs4
		        psgNote  Ds4
		  psgInst 00h
		        wait
		  psgInst 087h
		        psgNote  G3
		        psgNote  D4
		        psgNote  F4
		        psgNote  G4
		        psgNote  F4
		        psgNote  D4
		        psgNote  B3
		  psgInst 00h
		        wait
		  psgInst 087h
		        psgNote  As3
		        psgNote  D4
		        psgNote  F4
		        psgNoteL C5,16
		        psgNote  As4
		        psgNote  Gs4
		  psgInst 00h
		        waitL 12
		  psgInst 087h
		        psgNote  G3
		        psgNote  As3
		        psgNote  Ds4
		  psgInst 00h
		        wait
		  psgInst 087h
		        psgNote  Gs3
		        psgNote  As3
		        psgNote  D4
		  psgInst 00h
		        wait
		  psgInst 087h
		        psgNote  G3
		        psgNote  As3
		        psgNote  Ds4
		        psgNote  Fs4
		        psgNote  G4
		        psgNote  As4
		        psgNote  Ds5
		        psgNoteL G5,16
		        psgNote  F5
		        psgNote  Ds5
		        psgNote  As4
		  psgInst 00h
		        waitL 68
		  psgInst 089h
		        psgNoteL A4,20
		        psgNoteL G4,16
		        psgNoteL F4,14
		        psgNoteL E4,12
		        psgNoteL D4,10
		        psgNoteL Cs4,11
		        psgNoteL As3,12
		        psgNoteL Gs3,11
		        psgNoteL A3,10
		        psgNoteL As3,9
		        psgNoteL A3,8
		        psgNote  E3
		        psgNoteL D3,10
		        psgNoteL Cs3,12
		  psgInst 08Ah
		        psgNoteL E3,10
		        psgNoteL G3,8
		        psgNoteL A3,6
		  psgInst 0Ah
		        psgNoteL Cs4,5
		        psgNoteL E4,4
		        psgNote  G4
		        psgNote  A4
		  psgInst 088h
		        psgNote  Cs5
		        psgNote  E5
		        psgNoteL G5,6
		  psgInst 087h
		        psgNoteL A5,20
		  psgInst 084h
		        psgNote  A5
		  psgInst 00h
		        waitL 56
		mainLoopEnd
Music_52_Channel_7:
		channel_end
Music_52_Channel_9:
		channel_end
